%TF.GenerationSoftware,KiCad,Pcbnew,10.0.4*%
%TF.CreationDate,2026-06-24T21:21:43+08:00*%
%TF.ProjectId,DCJ11CoreBoard_v1.2,44434a31-3143-46f7-9265-426f6172645f,rev?*%
%TF.SameCoordinates,Original*%
%TF.FileFunction,Paste,Top*%
%TF.FilePolarity,Positive*%
%FSLAX46Y46*%
G04 Gerber Fmt 4.6, Leading zero omitted, Abs format (unit mm)*
G04 Created by KiCad (PCBNEW 10.0.4) date 2026-06-24 21:21:43*
%MOMM*%
%LPD*%
G01*
G04 APERTURE LIST*
G04 Aperture macros list*
%AMRoundRect*
0 Rectangle with rounded corners*
0 $1 Rounding radius*
0 $2 $3 $4 $5 $6 $7 $8 $9 X,Y pos of 4 corners*
0 Add a 4 corners polygon primitive as box body*
4,1,4,$2,$3,$4,$5,$6,$7,$8,$9,$2,$3,0*
0 Add four circle primitives for the rounded corners*
1,1,$1+$1,$2,$3*
1,1,$1+$1,$4,$5*
1,1,$1+$1,$6,$7*
1,1,$1+$1,$8,$9*
0 Add four rect primitives between the rounded corners*
20,1,$1+$1,$2,$3,$4,$5,0*
20,1,$1+$1,$4,$5,$6,$7,0*
20,1,$1+$1,$6,$7,$8,$9,0*
20,1,$1+$1,$8,$9,$2,$3,0*%
%AMHorizOval*
0 Thick line with rounded ends*
0 $1 width*
0 $2 $3 position (X,Y) of the first rounded end (center of the circle)*
0 $4 $5 position (X,Y) of the second rounded end (center of the circle)*
0 Add line between two ends*
20,1,$1,$2,$3,$4,$5,0*
0 Add two circle primitives to create the rounded ends*
1,1,$1,$2,$3*
1,1,$1,$4,$5*%
%AMRotRect*
0 Rectangle, with rotation*
0 The origin of the aperture is its center*
0 $1 length*
0 $2 width*
0 $3 Rotation angle, in degrees counterclockwise*
0 Add horizontal line*
21,1,$1,$2,0,0,$3*%
G04 Aperture macros list end*
%ADD10RoundRect,0.200000X-0.200000X-0.275000X0.200000X-0.275000X0.200000X0.275000X-0.200000X0.275000X0*%
%ADD11RoundRect,0.250000X0.250000X0.475000X-0.250000X0.475000X-0.250000X-0.475000X0.250000X-0.475000X0*%
%ADD12RoundRect,0.200000X-0.275000X0.200000X-0.275000X-0.200000X0.275000X-0.200000X0.275000X0.200000X0*%
%ADD13RotRect,1.400000X1.200000X315.000000*%
%ADD14RoundRect,0.250000X-0.250000X-0.475000X0.250000X-0.475000X0.250000X0.475000X-0.250000X0.475000X0*%
%ADD15RoundRect,0.200000X0.275000X-0.200000X0.275000X0.200000X-0.275000X0.200000X-0.275000X-0.200000X0*%
%ADD16R,0.800000X0.800000*%
%ADD17RoundRect,0.075000X0.712500X0.075000X-0.712500X0.075000X-0.712500X-0.075000X0.712500X-0.075000X0*%
%ADD18RoundRect,0.200000X0.200000X0.275000X-0.200000X0.275000X-0.200000X-0.275000X0.200000X-0.275000X0*%
%ADD19RoundRect,0.225000X0.250000X-0.225000X0.250000X0.225000X-0.250000X0.225000X-0.250000X-0.225000X0*%
%ADD20RoundRect,0.140000X0.170000X-0.140000X0.170000X0.140000X-0.170000X0.140000X-0.170000X-0.140000X0*%
%ADD21RoundRect,0.150000X-0.587500X-0.150000X0.587500X-0.150000X0.587500X0.150000X-0.587500X0.150000X0*%
%ADD22RoundRect,0.100000X-0.640000X-0.100000X0.640000X-0.100000X0.640000X0.100000X-0.640000X0.100000X0*%
%ADD23HorizOval,0.629997X0.436639X0.436639X-0.436639X-0.436639X0*%
%ADD24RoundRect,0.225000X-0.225000X-0.250000X0.225000X-0.250000X0.225000X0.250000X-0.225000X0.250000X0*%
%ADD25RoundRect,0.140000X0.140000X0.170000X-0.140000X0.170000X-0.140000X-0.170000X0.140000X-0.170000X0*%
%ADD26RoundRect,0.250000X0.425000X0.650000X-0.425000X0.650000X-0.425000X-0.650000X0.425000X-0.650000X0*%
%ADD27RoundRect,0.200000X-0.053033X0.335876X-0.335876X0.053033X0.053033X-0.335876X0.335876X-0.053033X0*%
%ADD28RoundRect,0.250000X0.475000X-0.250000X0.475000X0.250000X-0.475000X0.250000X-0.475000X-0.250000X0*%
%ADD29RoundRect,0.125000X0.125000X-0.345000X0.125000X0.345000X-0.125000X0.345000X-0.125000X-0.345000X0*%
%ADD30RoundRect,0.225000X0.225000X0.250000X-0.225000X0.250000X-0.225000X-0.250000X0.225000X-0.250000X0*%
%ADD31RoundRect,0.150000X-0.150000X0.512500X-0.150000X-0.512500X0.150000X-0.512500X0.150000X0.512500X0*%
%ADD32RoundRect,0.140000X-0.219203X-0.021213X-0.021213X-0.219203X0.219203X0.021213X0.021213X0.219203X0*%
%ADD33RoundRect,0.150000X0.150000X-0.512500X0.150000X0.512500X-0.150000X0.512500X-0.150000X-0.512500X0*%
%ADD34R,1.400000X2.120015*%
%ADD35RotRect,0.800000X0.864008X315.000000*%
%ADD36RoundRect,0.140000X-0.140000X-0.170000X0.140000X-0.170000X0.140000X0.170000X-0.140000X0.170000X0*%
%ADD37RoundRect,0.250000X-0.425000X-0.650000X0.425000X-0.650000X0.425000X0.650000X-0.425000X0.650000X0*%
%ADD38HorizOval,0.400000X0.000000X0.000000X0.000000X0.000000X0*%
%ADD39RoundRect,0.140000X-0.170000X0.140000X-0.170000X-0.140000X0.170000X-0.140000X0.170000X0.140000X0*%
%ADD40R,1.200000X3.500000*%
%ADD41RoundRect,0.162500X0.162500X-0.650000X0.162500X0.650000X-0.162500X0.650000X-0.162500X-0.650000X0*%
%ADD42RoundRect,0.125000X-0.345000X-0.125000X0.345000X-0.125000X0.345000X0.125000X-0.345000X0.125000X0*%
%ADD43RoundRect,0.140000X-0.021213X0.219203X-0.219203X0.021213X0.021213X-0.219203X0.219203X-0.021213X0*%
%ADD44RoundRect,0.225000X-0.250000X0.225000X-0.250000X-0.225000X0.250000X-0.225000X0.250000X0.225000X0*%
%ADD45R,2.150013X3.320015*%
%ADD46RoundRect,0.150000X-0.512500X-0.150000X0.512500X-0.150000X0.512500X0.150000X-0.512500X0.150000X0*%
%ADD47R,1.358903X1.500000*%
%ADD48R,1.100000X0.550013*%
%ADD49R,1.100000X0.300000*%
%ADD50R,1.000000X1.500000*%
%ADD51R,0.700000X1.500000*%
%ADD52R,1.500000X2.800000*%
%ADD53RoundRect,0.250000X-0.475000X0.250000X-0.475000X-0.250000X0.475000X-0.250000X0.475000X0.250000X0*%
G04 APERTURE END LIST*
D10*
%TO.C,R20*%
X16000000Y-41700000D03*
X17640000Y-41700000D03*
%TD*%
D11*
%TO.C,C12*%
X125094999Y-101600000D03*
X123195001Y-101600000D03*
%TD*%
D12*
%TO.C,R6*%
X155900000Y-97559998D03*
X155900000Y-99200000D03*
%TD*%
D13*
%TO.C,OSC1*%
X97556599Y-80560343D03*
X99112341Y-82116085D03*
X100349823Y-80878603D03*
X98794081Y-79322861D03*
%TD*%
D14*
%TO.C,C11*%
X130925001Y-107175000D03*
X132824999Y-107175000D03*
%TD*%
D10*
%TO.C,R11*%
X158484998Y-94350000D03*
X160125000Y-94350000D03*
%TD*%
D15*
%TO.C,R15*%
X63100000Y-85095001D03*
X63100000Y-83454999D03*
%TD*%
D16*
%TO.C,LED42*%
X99591919Y-19200001D03*
X99591919Y-20901805D03*
%TD*%
%TO.C,LED9*%
X38588400Y-20901806D03*
X38588400Y-19200000D03*
%TD*%
D17*
%TO.C,U3*%
X168917500Y-75420000D03*
X168917500Y-74920001D03*
X168917500Y-74420000D03*
X168917500Y-73920000D03*
X168917500Y-73419999D03*
X168917500Y-72920000D03*
X168917500Y-72420000D03*
X168917500Y-71920000D03*
X168917500Y-71420000D03*
X168917499Y-70920000D03*
X168917500Y-70420000D03*
X168917500Y-69920000D03*
X168917500Y-69420000D03*
X168917500Y-68920000D03*
X168917499Y-68420000D03*
X168917500Y-67920000D03*
X168917500Y-67420000D03*
X168917500Y-66920000D03*
X168917500Y-66420000D03*
X168917500Y-65920001D03*
X168917500Y-65420000D03*
X168917500Y-64920000D03*
X168917500Y-64419999D03*
X168917500Y-63920000D03*
X149542500Y-63920000D03*
X149542500Y-64419999D03*
X149542500Y-64920000D03*
X149542500Y-65420000D03*
X149542500Y-65920001D03*
X149542500Y-66420000D03*
X149542500Y-66920000D03*
X149542500Y-67420000D03*
X149542500Y-67920000D03*
X149542501Y-68420000D03*
X149542500Y-68920000D03*
X149542500Y-69420000D03*
X149542500Y-69920000D03*
X149542500Y-70420000D03*
X149542501Y-70920000D03*
X149542500Y-71420000D03*
X149542500Y-71920000D03*
X149542500Y-72420000D03*
X149542500Y-72920000D03*
X149542500Y-73419999D03*
X149542500Y-73920000D03*
X149542500Y-74420000D03*
X149542500Y-74920001D03*
X149542500Y-75420000D03*
%TD*%
D16*
%TO.C,LED51*%
X161910993Y-94378194D03*
X163612799Y-94378194D03*
%TD*%
D18*
%TO.C,R22*%
X43000000Y-102660000D03*
X41359998Y-102660000D03*
%TD*%
D16*
%TO.C,LED20*%
X89325175Y-9900001D03*
X89325175Y-11601805D03*
%TD*%
%TO.C,LED45*%
X68491686Y-19200001D03*
X68491686Y-20901805D03*
%TD*%
%TO.C,LED14*%
X94508547Y-9900001D03*
X94508547Y-11601805D03*
%TD*%
%TO.C,LED28*%
X76266745Y-19200001D03*
X76266745Y-20901805D03*
%TD*%
D19*
%TO.C,C2*%
X158700000Y-103880000D03*
X158700000Y-102320000D03*
%TD*%
D16*
%TO.C,LED29*%
X91816861Y-19200001D03*
X91816861Y-20901805D03*
%TD*%
D10*
%TO.C,R36*%
X85879999Y-87200000D03*
X87520001Y-87200000D03*
%TD*%
D20*
%TO.C,R34*%
X133404999Y-24687499D03*
X133404999Y-23687501D03*
%TD*%
D16*
%TO.C,LED3*%
X143498194Y-16109399D03*
X145200000Y-16109399D03*
%TD*%
%TO.C,LED37*%
X112550350Y-19200001D03*
X112550350Y-20901805D03*
%TD*%
%TO.C,LED43*%
X109958664Y-19200001D03*
X109958664Y-20901805D03*
%TD*%
D21*
%TO.C,Q2*%
X43362500Y-114050000D03*
X43362500Y-115950000D03*
X45237500Y-115000000D03*
%TD*%
D22*
%TO.C,U9*%
X65827500Y-43050000D03*
X65827500Y-43700000D03*
X65827500Y-44350000D03*
X65827500Y-45000000D03*
X65827500Y-45640000D03*
X65827500Y-46300000D03*
X65827500Y-46940000D03*
X65827500Y-47590000D03*
X65827500Y-48240000D03*
X65827500Y-48890000D03*
X71547500Y-48890000D03*
X71547500Y-48240000D03*
X71547500Y-47590000D03*
X71547500Y-46940000D03*
X71547500Y-46300000D03*
X71547500Y-45640000D03*
X71547500Y-45000000D03*
X71547500Y-44350000D03*
X71547500Y-43700000D03*
X71547500Y-43050000D03*
%TD*%
D23*
%TO.C,U5*%
X157693854Y-19150228D03*
X156795827Y-18252200D03*
X155897800Y-17354173D03*
X154999772Y-16456146D03*
X151206146Y-20249772D03*
X152104173Y-21147800D03*
X153002200Y-22045827D03*
X153900228Y-22943854D03*
%TD*%
D22*
%TO.C,U11*%
X65827500Y-54420000D03*
X65827500Y-55070000D03*
X65827500Y-55720000D03*
X65827500Y-56370000D03*
X65827500Y-57010000D03*
X65827500Y-57670000D03*
X65827500Y-58310000D03*
X65827500Y-58960000D03*
X65827500Y-59610000D03*
X65827500Y-60260000D03*
X71547500Y-60260000D03*
X71547500Y-59610000D03*
X71547500Y-58960000D03*
X71547500Y-58310000D03*
X71547500Y-57670000D03*
X71547500Y-57010000D03*
X71547500Y-56370000D03*
X71547500Y-55720000D03*
X71547500Y-55070000D03*
X71547500Y-54420000D03*
%TD*%
D16*
%TO.C,LED22*%
X104875291Y-9900001D03*
X104875291Y-11601805D03*
%TD*%
D22*
%TO.C,U13*%
X65827500Y-77160000D03*
X65827500Y-77810000D03*
X65827500Y-78460000D03*
X65827500Y-79110000D03*
X65827500Y-79750000D03*
X65827500Y-80410000D03*
X65827500Y-81050000D03*
X65827500Y-81700000D03*
X65827500Y-82350000D03*
X65827500Y-83000000D03*
X71547500Y-83000000D03*
X71547500Y-82350000D03*
X71547500Y-81700000D03*
X71547500Y-81050000D03*
X71547500Y-80410000D03*
X71547500Y-79750000D03*
X71547500Y-79110000D03*
X71547500Y-78460000D03*
X71547500Y-77810000D03*
X71547500Y-77160000D03*
%TD*%
D24*
%TO.C,C16*%
X116870000Y-99525000D03*
X118430000Y-99525000D03*
%TD*%
D25*
%TO.C,C25*%
X71600000Y-75900000D03*
X70600000Y-75900000D03*
%TD*%
D26*
%TO.C,S1*%
X23250002Y-110600000D03*
X19100000Y-110600000D03*
%TD*%
D27*
%TO.C,R9*%
X102633739Y-78698569D03*
X101474083Y-79858225D03*
%TD*%
D28*
%TO.C,C5*%
X146074998Y-103849996D03*
X146074998Y-101949998D03*
%TD*%
D16*
%TO.C,LED13*%
X86733489Y-9900001D03*
X86733489Y-11601805D03*
%TD*%
%TO.C,LED31*%
X107366978Y-19200001D03*
X107366978Y-20901805D03*
%TD*%
D29*
%TO.C,Q3*%
X91650000Y-83699998D03*
X90350000Y-83699998D03*
X91000000Y-85499999D03*
%TD*%
D22*
%TO.C,U8*%
X65827500Y-31680000D03*
X65827500Y-32330000D03*
X65827500Y-32980000D03*
X65827500Y-33630000D03*
X65827500Y-34270000D03*
X65827500Y-34930000D03*
X65827500Y-35570000D03*
X65827500Y-36220000D03*
X65827500Y-36870000D03*
X65827500Y-37520000D03*
X71547500Y-37520000D03*
X71547500Y-36870000D03*
X71547500Y-36220000D03*
X71547500Y-35570000D03*
X71547500Y-34930000D03*
X71547500Y-34270000D03*
X71547500Y-33630000D03*
X71547500Y-32980000D03*
X71547500Y-32330000D03*
X71547500Y-31680000D03*
%TD*%
D30*
%TO.C,C15*%
X113950000Y-99525000D03*
X112390000Y-99525000D03*
%TD*%
D10*
%TO.C,R21*%
X16000000Y-29000000D03*
X17640000Y-29000000D03*
%TD*%
D16*
%TO.C,LED8*%
X33132600Y-20901806D03*
X33132600Y-19200000D03*
%TD*%
%TO.C,LED10*%
X44044200Y-20901806D03*
X44044200Y-19200000D03*
%TD*%
%TO.C,LED30*%
X97000233Y-19200001D03*
X97000233Y-20901805D03*
%TD*%
D18*
%TO.C,R19*%
X43000000Y-74720000D03*
X41359998Y-74720000D03*
%TD*%
D31*
%TO.C,U14*%
X118544999Y-101662500D03*
X116645001Y-101662500D03*
X117595000Y-103937500D03*
%TD*%
D10*
%TO.C,R23*%
X16000000Y-95040000D03*
X17640000Y-95040000D03*
%TD*%
D16*
%TO.C,LED24*%
X78958430Y-9900001D03*
X78958430Y-11601805D03*
%TD*%
D32*
%TO.C,C17*%
X99000359Y-77424847D03*
X99707465Y-78131953D03*
%TD*%
D16*
%TO.C,LED50*%
X161910993Y-96481807D03*
X163612799Y-96481807D03*
%TD*%
D10*
%TO.C,R18*%
X16000000Y-44240000D03*
X17640000Y-44240000D03*
%TD*%
D16*
%TO.C,LED49*%
X49500000Y-20901806D03*
X49500000Y-19200000D03*
%TD*%
D18*
%TO.C,R14*%
X39820001Y-107900000D03*
X38179999Y-107900000D03*
%TD*%
D33*
%TO.C,U7*%
X154000000Y-103737500D03*
X154949999Y-103737500D03*
X155899998Y-103737500D03*
X155899998Y-101462500D03*
X154949999Y-101462500D03*
X154000000Y-101462500D03*
%TD*%
D16*
%TO.C,LED48*%
X102183605Y-19200001D03*
X102183605Y-20901805D03*
%TD*%
D34*
%TO.C,L2*%
X132952940Y-101825000D03*
X128897060Y-101825000D03*
%TD*%
D16*
%TO.C,LED38*%
X115142036Y-19200001D03*
X115142036Y-20901805D03*
%TD*%
D18*
%TO.C,R5*%
X154520001Y-99200000D03*
X152879999Y-99200000D03*
%TD*%
D35*
%TO.C,L3*%
X100737900Y-77051905D03*
X99748094Y-76062099D03*
%TD*%
D10*
%TO.C,R27*%
X16000000Y-59480000D03*
X17640000Y-59480000D03*
%TD*%
D16*
%TO.C,LED18*%
X76366744Y-9900001D03*
X76366744Y-11601805D03*
%TD*%
%TO.C,LED46*%
X81450117Y-19200001D03*
X81450117Y-20901805D03*
%TD*%
%TO.C,LED44*%
X120325408Y-19200001D03*
X120325408Y-20901805D03*
%TD*%
D28*
%TO.C,C6*%
X148200000Y-103849999D03*
X148200000Y-101950001D03*
%TD*%
D24*
%TO.C,C8*%
X152900000Y-97410000D03*
X154460000Y-97410000D03*
%TD*%
D25*
%TO.C,R37*%
X130674999Y-33575000D03*
X129675001Y-33575000D03*
%TD*%
D36*
%TO.C,R48*%
X146950000Y-18175000D03*
X147949998Y-18175000D03*
%TD*%
D37*
%TO.C,S6*%
X147225000Y-31300000D03*
X151375000Y-31300000D03*
%TD*%
D25*
%TO.C,C22*%
X71600000Y-41775000D03*
X70600000Y-41775000D03*
%TD*%
D16*
%TO.C,LED21*%
X97100233Y-9900001D03*
X97100233Y-11601805D03*
%TD*%
%TO.C,LED7*%
X27676799Y-20901806D03*
X27676799Y-19200000D03*
%TD*%
D38*
%TO.C,U2*%
X129899637Y-60020000D03*
X129192333Y-60727304D03*
X128485226Y-61434411D03*
X127778119Y-62141518D03*
X127070851Y-62848786D03*
X126363906Y-63555731D03*
X125656799Y-64262838D03*
X124949710Y-64969927D03*
X124242585Y-65677052D03*
X123535479Y-66384158D03*
X122828569Y-67091068D03*
X122120924Y-67798713D03*
X121414158Y-68505479D03*
X120707052Y-69212585D03*
X119999783Y-69919854D03*
X119292838Y-70626799D03*
X118585731Y-71333906D03*
X117878642Y-72040995D03*
X117171518Y-72748119D03*
X116464411Y-73455226D03*
X115757501Y-74162136D03*
X115049856Y-74869781D03*
X115757501Y-45877864D03*
X115050197Y-46585168D03*
X114343091Y-47292275D03*
X113635984Y-47999382D03*
X112928715Y-48706651D03*
X112221770Y-49413596D03*
X111514663Y-50120702D03*
X110807574Y-50827791D03*
X110100450Y-51534916D03*
X109393343Y-52242023D03*
X108686434Y-52948932D03*
X107978788Y-53656578D03*
X107272023Y-54363343D03*
X106564916Y-55070450D03*
X105857647Y-55777719D03*
X105150702Y-56484663D03*
X104443596Y-57191770D03*
X103736506Y-57898859D03*
X103029382Y-58605984D03*
X102322275Y-59313091D03*
X101615366Y-60020000D03*
X100907720Y-60727646D03*
X115049856Y-45170219D03*
X114342552Y-45877523D03*
X113635445Y-46584630D03*
X112928338Y-47291736D03*
X112221069Y-47999005D03*
X111514125Y-48705950D03*
X110807018Y-49413057D03*
X110099929Y-50120146D03*
X109392804Y-50827270D03*
X108685697Y-51534377D03*
X107978788Y-52241287D03*
X107271142Y-52948932D03*
X106564377Y-53655697D03*
X105857270Y-54362804D03*
X105150002Y-55070073D03*
X104443057Y-55777018D03*
X103735950Y-56484125D03*
X103028861Y-57191214D03*
X102321736Y-57898338D03*
X101614630Y-58605445D03*
X100907720Y-59312354D03*
X100200075Y-60020000D03*
X129192333Y-59312696D03*
X128485029Y-60020000D03*
X127777922Y-60727107D03*
X127070815Y-61434214D03*
X126363547Y-62141482D03*
X125656602Y-62848427D03*
X124949495Y-63555534D03*
X124242406Y-64262623D03*
X123535281Y-64969747D03*
X122828175Y-65676854D03*
X122121265Y-66383764D03*
X121413619Y-67091409D03*
X120706854Y-67798175D03*
X119999747Y-68505281D03*
X119292479Y-69212550D03*
X118585534Y-69919495D03*
X117878427Y-70626602D03*
X117171338Y-71333691D03*
X116464214Y-72040815D03*
X115757107Y-72747922D03*
X115050197Y-73454832D03*
X114342552Y-74162477D03*
X128485226Y-58605589D03*
X127777922Y-59312893D03*
X127070815Y-60020000D03*
X126363708Y-60727107D03*
X125656440Y-61434375D03*
X124949495Y-62141320D03*
X124242388Y-62848427D03*
X123535299Y-63555516D03*
X122828175Y-64262641D03*
X122121068Y-64969747D03*
X121414158Y-65676657D03*
X120706513Y-66384303D03*
X119999747Y-67091068D03*
X119292641Y-67798175D03*
X118585372Y-68505443D03*
X117878427Y-69212388D03*
X117171320Y-69919495D03*
X116464231Y-70626584D03*
X115757107Y-71333708D03*
X115050000Y-72040815D03*
X114343091Y-72747725D03*
X113635445Y-73455370D03*
X127778119Y-57898482D03*
X127070815Y-58605786D03*
X126363708Y-59312893D03*
X125656602Y-60020000D03*
X124949333Y-60727269D03*
X124242388Y-61434214D03*
X123535281Y-62141320D03*
X122828192Y-62848409D03*
X122121068Y-63555534D03*
X121413961Y-64262641D03*
X120707052Y-64969550D03*
X119999406Y-65677196D03*
X119292641Y-66383961D03*
X118585534Y-67091068D03*
X117878265Y-67798337D03*
X117171320Y-68505281D03*
X116464214Y-69212388D03*
X115757124Y-69919477D03*
X115050000Y-70626602D03*
X114342893Y-71333708D03*
X113635984Y-72040618D03*
X112928338Y-72748264D03*
X127070851Y-57191214D03*
X126363547Y-57898518D03*
X125656440Y-58605625D03*
X124949333Y-59312731D03*
X124242064Y-60020000D03*
X123535119Y-60726945D03*
X122828013Y-61434052D03*
X122120924Y-62141141D03*
X121413799Y-62848265D03*
X120706692Y-63555372D03*
X119999783Y-64262281D03*
X119292137Y-64969927D03*
X118585372Y-65676692D03*
X117878265Y-66383799D03*
X117170996Y-67091068D03*
X116464052Y-67798013D03*
X115756945Y-68505119D03*
X115049856Y-69212209D03*
X114342731Y-69919333D03*
X113635625Y-70626440D03*
X112928715Y-71333349D03*
X112221069Y-72040995D03*
X126363906Y-56484269D03*
X125656602Y-57191573D03*
X124949495Y-57898680D03*
X124242388Y-58605786D03*
X123535119Y-59313055D03*
X122828175Y-60020000D03*
X122121068Y-60727107D03*
X121413979Y-61434196D03*
X120706854Y-62141320D03*
X119999747Y-62848427D03*
X119292838Y-63555337D03*
X118585192Y-64262982D03*
X117878427Y-64969747D03*
X117171320Y-65676854D03*
X116464052Y-66384123D03*
X115757107Y-67091068D03*
X115050000Y-67798175D03*
X114342911Y-68505264D03*
X113635786Y-69212388D03*
X112928680Y-69919495D03*
X112221770Y-70626404D03*
X111514125Y-71334050D03*
X125656799Y-55777162D03*
X124949495Y-56484466D03*
X124242388Y-57191573D03*
X123535281Y-57898680D03*
X122828013Y-58605948D03*
X122121068Y-59312893D03*
X121413961Y-60020000D03*
X120706872Y-60727089D03*
X119999747Y-61434214D03*
X119292641Y-62141320D03*
X118585731Y-62848230D03*
X117878086Y-63555875D03*
X117171320Y-64262641D03*
X116464214Y-64969747D03*
X115756945Y-65677016D03*
X115050000Y-66383961D03*
X114342893Y-67091068D03*
X113635804Y-67798157D03*
X112928680Y-68505281D03*
X112221573Y-69212388D03*
X111514663Y-69919298D03*
X110807018Y-70626943D03*
X124949710Y-55070073D03*
X124242406Y-55777377D03*
X123535299Y-56484484D03*
X122828192Y-57191591D03*
X122120924Y-57898859D03*
X121413979Y-58605804D03*
X120706872Y-59312911D03*
X119999783Y-60020000D03*
X119292658Y-60727124D03*
X118585552Y-61434231D03*
X117878642Y-62141141D03*
X117170996Y-62848786D03*
X116464231Y-63555552D03*
X115757124Y-64262658D03*
X115049856Y-64969927D03*
X114342911Y-65676872D03*
X113635804Y-66383979D03*
X112928715Y-67091068D03*
X112221591Y-67798192D03*
X111514484Y-68505299D03*
X110807574Y-69212209D03*
X110099929Y-69919854D03*
X124242585Y-54362948D03*
X123535281Y-55070253D03*
X122828175Y-55777359D03*
X122121068Y-56484466D03*
X121413799Y-57191735D03*
X120706854Y-57898680D03*
X119999747Y-58605786D03*
X119292658Y-59312876D03*
X118585534Y-60020000D03*
X117878427Y-60727107D03*
X117171518Y-61434016D03*
X116463872Y-62141662D03*
X115757107Y-62848427D03*
X115050000Y-63555534D03*
X114342731Y-64262803D03*
X113635786Y-64969747D03*
X112928680Y-65676854D03*
X112221591Y-66383943D03*
X111514466Y-67091068D03*
X110807359Y-67798175D03*
X110100450Y-68505084D03*
X109392804Y-69212730D03*
X123535479Y-53655842D03*
X122828175Y-54363146D03*
X122121068Y-55070253D03*
X121413961Y-55777359D03*
X120706692Y-56484628D03*
X119999747Y-57191573D03*
X119292641Y-57898680D03*
X118585552Y-58605769D03*
X117878427Y-59312893D03*
X117171320Y-60020000D03*
X116464411Y-60726909D03*
X115756765Y-61434555D03*
X115050000Y-62141320D03*
X114342893Y-62848427D03*
X113635625Y-63555696D03*
X112928680Y-64262641D03*
X112221573Y-64969747D03*
X111514484Y-65676837D03*
X110807359Y-66383961D03*
X110100253Y-67091068D03*
X109393343Y-67797977D03*
X108685697Y-68505623D03*
X122828569Y-52948932D03*
X122121265Y-53656236D03*
X121414158Y-54363343D03*
X120707052Y-55070450D03*
X119999783Y-55777719D03*
X119292838Y-56484663D03*
X118585731Y-57191770D03*
X117878642Y-57898859D03*
X117171518Y-58605984D03*
X116464411Y-59313091D03*
X115757501Y-60020000D03*
X115049856Y-60727646D03*
X114343091Y-61434411D03*
X113635984Y-62141518D03*
X112928715Y-62848786D03*
X112221770Y-63555731D03*
X111514663Y-64262838D03*
X110807574Y-64969927D03*
X110100450Y-65677052D03*
X109393343Y-66384158D03*
X108686434Y-67091068D03*
X107978788Y-67798713D03*
X122120924Y-52241287D03*
X121413619Y-52948591D03*
X120706513Y-53655697D03*
X119999406Y-54362804D03*
X119292137Y-55070073D03*
X118585192Y-55777018D03*
X117878086Y-56484125D03*
X117170996Y-57191214D03*
X116463872Y-57898338D03*
X115756765Y-58605445D03*
X115049856Y-59312354D03*
X114342210Y-60020000D03*
X113635445Y-60726765D03*
X112928338Y-61433872D03*
X112221069Y-62141141D03*
X111514125Y-62848086D03*
X110807018Y-63555192D03*
X110099929Y-64262281D03*
X109392804Y-64969406D03*
X108685697Y-65676513D03*
X107978788Y-66383422D03*
X107271142Y-67091068D03*
X121414158Y-51534521D03*
X120706854Y-52241825D03*
X119999747Y-52948932D03*
X119292641Y-53656039D03*
X118585372Y-54363308D03*
X117878427Y-55070253D03*
X117171320Y-55777359D03*
X116464231Y-56484448D03*
X115757107Y-57191573D03*
X115050000Y-57898680D03*
X114343091Y-58605589D03*
X113635445Y-59313235D03*
X112928680Y-60020000D03*
X112221573Y-60727107D03*
X111514304Y-61434375D03*
X110807359Y-62141320D03*
X110100253Y-62848427D03*
X109393163Y-63555516D03*
X108686039Y-64262641D03*
X107978932Y-64969747D03*
X107272023Y-65676657D03*
X106564377Y-66384303D03*
X120707052Y-50827415D03*
X119999747Y-51534719D03*
X119292641Y-52241825D03*
X118585534Y-52948932D03*
X117878265Y-53656201D03*
X117171320Y-54363146D03*
X116464214Y-55070253D03*
X115757124Y-55777342D03*
X115050000Y-56484466D03*
X114342893Y-57191573D03*
X113635984Y-57898482D03*
X112928338Y-58606128D03*
X112221573Y-59312893D03*
X111514466Y-60020000D03*
X110807197Y-60727269D03*
X110100253Y-61434214D03*
X109393146Y-62141320D03*
X108686057Y-62848409D03*
X107978932Y-63555534D03*
X107271825Y-64262641D03*
X106564916Y-64969550D03*
X105857270Y-65677196D03*
X119999783Y-50120146D03*
X119292479Y-50827450D03*
X118585372Y-51534557D03*
X117878265Y-52241663D03*
X117170996Y-52948932D03*
X116464052Y-53655877D03*
X115756945Y-54362984D03*
X115049856Y-55070073D03*
X114342731Y-55777197D03*
X113635625Y-56484304D03*
X112928715Y-57191214D03*
X112221069Y-57898859D03*
X111514304Y-58605625D03*
X110807197Y-59312731D03*
X110099929Y-60020000D03*
X109392984Y-60726945D03*
X108685877Y-61434052D03*
X107978788Y-62141141D03*
X107271663Y-62848265D03*
X106564557Y-63555372D03*
X105857647Y-64262281D03*
X105150002Y-64969927D03*
X119292838Y-49413201D03*
X118585534Y-50120505D03*
X117878427Y-50827612D03*
X117171320Y-51534719D03*
X116464052Y-52241987D03*
X115757107Y-52948932D03*
X115050000Y-53656039D03*
X114342911Y-54363128D03*
X113635786Y-55070253D03*
X112928680Y-55777359D03*
X112221770Y-56484269D03*
X111514125Y-57191914D03*
X110807359Y-57898680D03*
X110100253Y-58605786D03*
X109392984Y-59313055D03*
X108686039Y-60020000D03*
X107978932Y-60727107D03*
X107271843Y-61434196D03*
X106564719Y-62141320D03*
X105857612Y-62848427D03*
X105150702Y-63555337D03*
X104443057Y-64262982D03*
X118585731Y-48706094D03*
X117878427Y-49413398D03*
X117171320Y-50120505D03*
X116464214Y-50827612D03*
X115756945Y-51534881D03*
X115050000Y-52241825D03*
X114342893Y-52948932D03*
X113635804Y-53656021D03*
X112928680Y-54363146D03*
X112221573Y-55070253D03*
X111514663Y-55777162D03*
X110807018Y-56484808D03*
X110100253Y-57191573D03*
X109393146Y-57898680D03*
X108685877Y-58605948D03*
X107978932Y-59312893D03*
X107271825Y-60020000D03*
X106564736Y-60727089D03*
X105857612Y-61434214D03*
X105150505Y-62141320D03*
X104443596Y-62848230D03*
X103735950Y-63555875D03*
X117878642Y-47999005D03*
X117171338Y-48706309D03*
X116464231Y-49413416D03*
X115757124Y-50120523D03*
X115049856Y-50827791D03*
X114342911Y-51534736D03*
X113635804Y-52241843D03*
X112928715Y-52948932D03*
X112221591Y-53656057D03*
X111514484Y-54363163D03*
X110807574Y-55070073D03*
X110099929Y-55777719D03*
X109393163Y-56484484D03*
X108686057Y-57191591D03*
X107978788Y-57898859D03*
X107271843Y-58605804D03*
X106564736Y-59312911D03*
X105857647Y-60020000D03*
X105150523Y-60727124D03*
X104443416Y-61434231D03*
X103736506Y-62141141D03*
X103028861Y-62848786D03*
X117171518Y-47291881D03*
X116464214Y-47999185D03*
X115757107Y-48706292D03*
X115050000Y-49413398D03*
X114342731Y-50120667D03*
X113635786Y-50827612D03*
X112928680Y-51534719D03*
X112221591Y-52241808D03*
X111514466Y-52948932D03*
X110807359Y-53656039D03*
X110100450Y-54362948D03*
X109392804Y-55070594D03*
X108686039Y-55777359D03*
X107978932Y-56484466D03*
X107271663Y-57191735D03*
X106564719Y-57898680D03*
X105857612Y-58605786D03*
X105150523Y-59312876D03*
X104443398Y-60020000D03*
X103736292Y-60727107D03*
X103029382Y-61434016D03*
X102321736Y-62141662D03*
X116464411Y-46584774D03*
X115757107Y-47292078D03*
X115050000Y-47999185D03*
X114342893Y-48706292D03*
X113635625Y-49413560D03*
X112928680Y-50120505D03*
X112221573Y-50827612D03*
X111514484Y-51534701D03*
X110807359Y-52241825D03*
X110100253Y-52948932D03*
X109393343Y-53655842D03*
X108685697Y-54363487D03*
X107978932Y-55070253D03*
X107271825Y-55777359D03*
X106564557Y-56484628D03*
X105857612Y-57191573D03*
X105150505Y-57898680D03*
X104443416Y-58605769D03*
X103736292Y-59312893D03*
X103029185Y-60020000D03*
X102322275Y-60726909D03*
X101614630Y-61434555D03*
%TD*%
D16*
%TO.C,LED32*%
X117733722Y-19200001D03*
X117733722Y-20901805D03*
%TD*%
%TO.C,LED4*%
X143498194Y-18200000D03*
X145200000Y-18200000D03*
%TD*%
%TO.C,LED33*%
X65900000Y-19200001D03*
X65900000Y-20901805D03*
%TD*%
%TO.C,LED36*%
X104775292Y-19200001D03*
X104775292Y-20901805D03*
%TD*%
%TO.C,LED6*%
X22220999Y-20901806D03*
X22220999Y-19200000D03*
%TD*%
D39*
%TO.C,C32*%
X43500000Y-65400000D03*
X43500000Y-66400000D03*
%TD*%
D16*
%TO.C,LED52*%
X50735694Y-115000000D03*
X52437500Y-115000000D03*
%TD*%
D40*
%TO.C,C30*%
X56400000Y-106945054D03*
X56400000Y-101604946D03*
%TD*%
D41*
%TO.C,U17*%
X132095000Y-33587500D03*
X133365000Y-33587500D03*
X134635000Y-33587500D03*
X135905000Y-33587500D03*
X135905000Y-26412500D03*
X134635000Y-26412500D03*
X133365000Y-26412500D03*
X132095000Y-26412500D03*
%TD*%
D10*
%TO.C,R25*%
X16000000Y-62020000D03*
X17640000Y-62020000D03*
%TD*%
D39*
%TO.C,C18*%
X132099998Y-23700001D03*
X132099998Y-24700001D03*
%TD*%
D19*
%TO.C,C20*%
X51400000Y-86680000D03*
X51400000Y-85120000D03*
%TD*%
D16*
%TO.C,LED17*%
X68591686Y-9900001D03*
X68591686Y-11601805D03*
%TD*%
%TO.C,LED23*%
X71183372Y-9900001D03*
X71183372Y-11601805D03*
%TD*%
D25*
%TO.C,C21*%
X71600000Y-30400000D03*
X70600000Y-30400000D03*
%TD*%
D42*
%TO.C,Q1*%
X45800000Y-110775000D03*
X45800000Y-109475000D03*
X43999999Y-110125000D03*
%TD*%
D19*
%TO.C,C3*%
X157400000Y-103880000D03*
X157400000Y-102320000D03*
%TD*%
D15*
%TO.C,R38*%
X81100000Y-97220001D03*
X81100000Y-95579999D03*
%TD*%
D12*
%TO.C,R12*%
X49600000Y-87979999D03*
X49600000Y-89620001D03*
%TD*%
D16*
%TO.C,LED26*%
X91916861Y-9900001D03*
X91916861Y-11601805D03*
%TD*%
%TO.C,LED2*%
X16765199Y-20901806D03*
X16765199Y-19200000D03*
%TD*%
D19*
%TO.C,C14*%
X113100000Y-107285000D03*
X113100000Y-105725000D03*
%TD*%
D25*
%TO.C,C24*%
X71600000Y-64525000D03*
X70600000Y-64525000D03*
%TD*%
D16*
%TO.C,LED15*%
X99691919Y-9900001D03*
X99691919Y-11601805D03*
%TD*%
D43*
%TO.C,C48*%
X149903553Y-21546447D03*
X149196447Y-22253553D03*
%TD*%
D16*
%TO.C,LED53*%
X89249098Y-87200000D03*
X90950902Y-87200000D03*
%TD*%
%TO.C,LED40*%
X78858431Y-19200001D03*
X78858431Y-20901805D03*
%TD*%
D31*
%TO.C,U15*%
X114094999Y-101662500D03*
X112195001Y-101662500D03*
X113145000Y-103937500D03*
%TD*%
D44*
%TO.C,C10*%
X137625000Y-98270000D03*
X137625000Y-99830000D03*
%TD*%
D18*
%TO.C,R13*%
X23220001Y-107900000D03*
X21579999Y-107900000D03*
%TD*%
D45*
%TO.C,L1*%
X154112878Y-109700000D03*
X148287122Y-109700000D03*
%TD*%
D44*
%TO.C,C19*%
X51400000Y-90900000D03*
X51400000Y-92460000D03*
%TD*%
D16*
%TO.C,LED16*%
X102283605Y-9900001D03*
X102283605Y-11601805D03*
%TD*%
D22*
%TO.C,U12*%
X65827500Y-65790000D03*
X65827500Y-66440000D03*
X65827500Y-67090000D03*
X65827500Y-67740000D03*
X65827500Y-68380000D03*
X65827500Y-69040000D03*
X65827500Y-69680000D03*
X65827500Y-70330000D03*
X65827500Y-70980000D03*
X65827500Y-71630000D03*
X71547500Y-71630000D03*
X71547500Y-70980000D03*
X71547500Y-70330000D03*
X71547500Y-69680000D03*
X71547500Y-69040000D03*
X71547500Y-68380000D03*
X71547500Y-67740000D03*
X71547500Y-67090000D03*
X71547500Y-66440000D03*
X71547500Y-65790000D03*
%TD*%
D16*
%TO.C,LED41*%
X89225175Y-19200001D03*
X89225175Y-20901805D03*
%TD*%
%TO.C,LED47*%
X86633489Y-19200001D03*
X86633489Y-20901805D03*
%TD*%
D46*
%TO.C,U10*%
X135362500Y-101562500D03*
X135362500Y-102512500D03*
X135362500Y-103462500D03*
X137637500Y-103462500D03*
X137637500Y-101562500D03*
%TD*%
D16*
%TO.C,LED1*%
X11309399Y-20901806D03*
X11309399Y-19200000D03*
%TD*%
D17*
%TO.C,U4*%
X168887500Y-56060000D03*
X168887500Y-55560001D03*
X168887500Y-55060000D03*
X168887500Y-54560000D03*
X168887500Y-54059999D03*
X168887500Y-53560000D03*
X168887500Y-53060000D03*
X168887500Y-52560000D03*
X168887500Y-52060000D03*
X168887499Y-51560000D03*
X168887500Y-51060000D03*
X168887500Y-50560000D03*
X168887500Y-50060000D03*
X168887500Y-49560000D03*
X168887499Y-49060000D03*
X168887500Y-48560000D03*
X168887500Y-48060000D03*
X168887500Y-47560000D03*
X168887500Y-47060000D03*
X168887500Y-46560001D03*
X168887500Y-46060000D03*
X168887500Y-45560000D03*
X168887500Y-45059999D03*
X168887500Y-44560000D03*
X149512500Y-44560000D03*
X149512500Y-45059999D03*
X149512500Y-45560000D03*
X149512500Y-46060000D03*
X149512500Y-46560001D03*
X149512500Y-47060000D03*
X149512500Y-47560000D03*
X149512500Y-48060000D03*
X149512500Y-48560000D03*
X149512501Y-49060000D03*
X149512500Y-49560000D03*
X149512500Y-50060000D03*
X149512500Y-50560000D03*
X149512500Y-51060000D03*
X149512501Y-51560000D03*
X149512500Y-52060000D03*
X149512500Y-52560000D03*
X149512500Y-53060000D03*
X149512500Y-53560000D03*
X149512500Y-54059999D03*
X149512500Y-54560000D03*
X149512500Y-55060000D03*
X149512500Y-55560001D03*
X149512500Y-56060000D03*
%TD*%
D10*
%TO.C,R24*%
X16000000Y-97580000D03*
X17640000Y-97580000D03*
%TD*%
D47*
%TO.C,C29*%
X49020000Y-64560000D03*
X49020000Y-66959796D03*
%TD*%
D16*
%TO.C,LED34*%
X84041803Y-19200001D03*
X84041803Y-20901805D03*
%TD*%
D36*
%TO.C,R49*%
X146900001Y-16150000D03*
X147899999Y-16150000D03*
%TD*%
D19*
%TO.C,C13*%
X117570000Y-107285000D03*
X117570000Y-105725000D03*
%TD*%
D16*
%TO.C,LED27*%
X71083372Y-19200001D03*
X71083372Y-20901805D03*
%TD*%
%TO.C,LED12*%
X73775058Y-9900001D03*
X73775058Y-11601805D03*
%TD*%
D18*
%TO.C,R16*%
X48920001Y-110825000D03*
X47279999Y-110825000D03*
%TD*%
D10*
%TO.C,R10*%
X158484998Y-96481806D03*
X160125000Y-96481806D03*
%TD*%
D37*
%TO.C,S2*%
X35724999Y-110600000D03*
X39875001Y-110600000D03*
%TD*%
D48*
%TO.C,USB1*%
X172536494Y-106200025D03*
X172536494Y-105399924D03*
D49*
X172536494Y-104249809D03*
X172536494Y-103250064D03*
X172536494Y-102749936D03*
X172536494Y-101749936D03*
D48*
X172536494Y-99799975D03*
X172536494Y-100599822D03*
D49*
X172536494Y-101249809D03*
X172536494Y-102250064D03*
X172536494Y-103749936D03*
X172536494Y-104749936D03*
%TD*%
D28*
%TO.C,C7*%
X143900000Y-103849996D03*
X143900000Y-101949998D03*
%TD*%
D50*
%TO.C,U16*%
X91128905Y-99552698D03*
X88628778Y-99552698D03*
X86128905Y-99552698D03*
X83618872Y-99552698D03*
X81118745Y-99552698D03*
X78618872Y-99552698D03*
X76198755Y-99552698D03*
X74498730Y-99552698D03*
X93628778Y-99552698D03*
D51*
X73198755Y-99552698D03*
X71998857Y-99552698D03*
D52*
X70598806Y-101352800D03*
X70598806Y-115852673D03*
X97898781Y-115852673D03*
X95698883Y-101352800D03*
%TD*%
D25*
%TO.C,C23*%
X71600000Y-53150000D03*
X70600000Y-53150000D03*
%TD*%
D12*
%TO.C,R7*%
X136125000Y-98229999D03*
X136125000Y-99870001D03*
%TD*%
D16*
%TO.C,LED35*%
X94408547Y-19200001D03*
X94408547Y-20901805D03*
%TD*%
D18*
%TO.C,R8*%
X140545001Y-99850000D03*
X138904999Y-99850000D03*
%TD*%
D53*
%TO.C,C9*%
X137875000Y-105150001D03*
X137875000Y-107049999D03*
%TD*%
D16*
%TO.C,LED19*%
X81550116Y-9900001D03*
X81550116Y-11601805D03*
%TD*%
%TO.C,LED11*%
X66000000Y-9900001D03*
X66000000Y-11601805D03*
%TD*%
D48*
%TO.C,USB2*%
X172536494Y-20200025D03*
X172536494Y-19399924D03*
D49*
X172536494Y-18249809D03*
X172536494Y-17250064D03*
X172536494Y-16749936D03*
X172536494Y-15749936D03*
D48*
X172536494Y-13799975D03*
X172536494Y-14599822D03*
D49*
X172536494Y-15249809D03*
X172536494Y-16250064D03*
X172536494Y-17749936D03*
X172536494Y-18749936D03*
%TD*%
D10*
%TO.C,R26*%
X16000000Y-56940000D03*
X17640000Y-56940000D03*
%TD*%
D16*
%TO.C,LED25*%
X84141803Y-9900001D03*
X84141803Y-11601805D03*
%TD*%
%TO.C,LED39*%
X73675059Y-19200001D03*
X73675059Y-20901805D03*
%TD*%
D39*
%TO.C,R35*%
X134604998Y-35387502D03*
X134604998Y-36387500D03*
%TD*%
D47*
%TO.C,C28*%
X10000000Y-67100000D03*
X10000000Y-64700204D03*
%TD*%
D20*
%TO.C,C31*%
X15500000Y-66400000D03*
X15500000Y-65400000D03*
%TD*%
D18*
%TO.C,R17*%
X48957501Y-115000000D03*
X47317499Y-115000000D03*
%TD*%
M02*
