M48
; DRILL file KiCad 10.0.1 date 2026-05-23T20:40:13
; FORMAT={-:-/ absolute / inch / decimal}
; #@! TF.CreationDate,2026-05-23T20:40:13+08:00
; #@! TF.GenerationSoftware,Kicad,Pcbnew,10.0.1
; #@! TF.FileFunction,Plated,1,4,PTH
FMAT,2
INCH
; #@! TA.AperFunction,Plated,PTH,ViaDrill
T1C0.0118
; #@! TA.AperFunction,Plated,PTH,ComponentDrill
T2C0.0236
; #@! TA.AperFunction,Plated,PTH,ComponentDrill
T3C0.0315
; #@! TA.AperFunction,Plated,PTH,ComponentDrill
T4C0.0394
%
G90
G05
T1
X1.4537Y-4.2785
X1.4646Y-2.1978
X1.4654Y-2.7844
X1.4656Y-2.8878
X1.498Y-2.1388
X1.501Y-1.6348
X1.5488Y-4.6717
X1.6486Y-4.7441
X2.1949Y-4.6752
X2.3022Y-4.7441
X2.3524Y-2.5886
X2.3969Y-4.4933
X2.8189Y-1.5945
X2.9528Y-3.7638
X2.9528Y-4.2047
X2.9567Y-1.5945
X3.0428Y-1.378
X3.0807Y-1.139
X3.0843Y-1.7583
X3.0945Y-1.5945
X3.1102Y-3.095
X3.1102Y-3.7638
X3.1102Y-4.2047
X3.1114Y-3.6429
X3.1299Y-1.378
X3.1299Y-3.1206
X3.1496Y-1.7839
X3.1496Y-3.1457
X3.1693Y-3.1714
X3.189Y-1.811
X3.189Y-1.874
X3.1895Y-3.1973
X3.2087Y-3.2225
X3.2165Y-1.8976
X3.2185Y-1.378
X3.2283Y-1.8346
X3.2283Y-3.248
X3.2323Y-1.5945
X3.2362Y-1.9252
X3.2362Y-3.6681
X3.2579Y-1.139
X3.2598Y-1.9488
X3.3071Y-1.378
X3.3386Y-4.9646
X3.3397Y-3.7745
X3.3957Y-1.9626
X3.3957Y-2.4082
X3.4065Y-2.8537
X3.4065Y-3.2993
X3.4252Y-4.3937
X3.435Y-1.6831
X3.5008Y-2.1291
X3.5008Y-3.4756
X3.5047Y-2.5858
X3.5047Y-3.0315
X3.5088Y-2.2038
X3.5118Y-1.7583
X3.5157Y-2.6496
X3.5162Y-3.095
X3.5169Y-3.5406
X3.5622Y-2.1299
X3.563Y-3.9567
X3.5649Y-2.5866
X3.5649Y-3.0334
X3.5649Y-3.4782
X3.5755Y-1.6831
X3.6122Y-1.7327
X3.6614Y-3.9173
X3.6704Y-3.3009
X3.7045Y-4.0748
X3.7155Y-1.6831
X3.75Y-1.7323
X3.7545Y-4.0748
X3.8091Y-2.3062
X3.8189Y-4.3799
X3.8484Y-2.5354
X3.8545Y-4.0748
X3.8555Y-1.6831
X3.878Y-4.3799
X3.8858Y-2.5354
X3.9075Y-4.2028
X3.9272Y-2.5591
X3.937Y-1.378
X3.9665Y-2.5827
X3.9956Y-1.6831
X3.9961Y-2.6102
X3.9992Y-4.252
X4.0256Y-1.378
X4.0256Y-2.2294
X4.0256Y-4.1142
X4.0354Y-3.7874
X4.065Y-2.255
X4.0748Y-1.139
X4.0758Y-3.8278
X4.0827Y-3.6299
X4.0976Y-4.3898
X4.1043Y-2.2802
X4.1142Y-1.378
X4.1339Y-2.9528
X4.1356Y-1.6831
X4.1437Y-2.3314
X4.1535Y-4.4713
X4.1634Y-3.8189
X4.1811Y-3.0472
X4.1831Y-2.357
X4.1929Y-4.3701
X4.2028Y-1.378
X4.2028Y-3.8287
X4.2224Y-2.3819
X4.2421Y-3.6024
X4.2441Y-3.7874
X4.2598Y-3.0333
X4.2618Y-2.4082
X4.2756Y-1.6831
X4.2913Y-1.378
X4.2992Y-3.0787
X4.3012Y-2.4409
X4.3209Y-3.7106
X4.3307Y-1.139
X4.3307Y-3.8583
X4.3406Y-2.4646
X4.3447Y-2.9823
X4.3661Y-2.8661
X4.3799Y-1.378
X4.3799Y-2.4882
X4.4134Y-4.3937
X4.4134Y-4.9646
X4.4156Y-1.6831
X4.4666Y-3.2441
X4.4685Y-1.378
X4.4803Y-2.7598
X4.4947Y-3.2717
X4.5118Y-2.7323
X4.5472Y-3.1693
X4.5571Y-1.6831
X4.5593Y-1.378
X4.5866Y-2.8051
X4.5866Y-3.2874
X4.5965Y-1.139
X4.6033Y-3.3268
X4.6457Y-1.378
X4.6614Y-3.437
X4.6654Y-3.622
X4.6752Y-2.3917
X4.685Y-4.5472
X4.685Y-4.626
X4.689Y-3.4685
X4.6956Y-1.6831
X4.7047Y-2.628
X4.7056Y-3.5715
X4.7165Y-3.4941
X4.7244Y-4.5866
X4.734Y-2.5101
X4.7343Y-1.378
X4.7559Y-3.5079
X4.7638Y-3.3957
X4.7638Y-4.5472
X4.7638Y-4.626
X4.7717Y-2.5236
X4.7795Y-2.437
X4.7982Y-2.5502
X4.8228Y-1.378
X4.8268Y-2.5787
X4.8327Y-2.6969
X4.8357Y-1.6831
X4.8622Y-1.139
X4.872Y-2.6673
X4.876Y-3.378
X4.8917Y-2.7953
X4.8996Y-3.3524
X4.9016Y-3.2185
X4.9114Y-1.378
X4.9757Y-1.6831
X4.9921Y-2.748
X5.0Y-1.378
X5.0079Y-3.2598
X5.0197Y-2.7756
X5.0197Y-4.2913
X5.0335Y-4.6245
X5.0335Y-4.6639
X5.0335Y-4.7032
X5.0394Y-4.0859
X5.0472Y-2.5787
X5.0709Y-2.5551
X5.0728Y-4.6245
X5.0728Y-4.6639
X5.0728Y-4.7032
X5.0886Y-1.378
X5.0906Y-4.4414
X5.0925Y-2.5354
X5.1122Y-4.6245
X5.1122Y-4.6639
X5.1122Y-4.7032
X5.1157Y-1.6831
X5.1244Y-2.287
X5.1476Y-3.0512
X5.1575Y-2.2204
X5.1673Y-2.4776
X5.1772Y-1.378
X5.187Y-4.0906
X5.189Y-2.9409
X5.1978Y-3.0364
X5.2165Y-1.139
X5.2264Y-2.9862
X5.2557Y-1.6831
X5.2657Y-1.378
X5.2756Y-4.0197
X5.2815Y-2.185
X5.311Y-2.9724
X5.3268Y-4.0197
X5.3543Y-2.9232
X5.3583Y-4.3627
X5.3622Y-3.1506
X5.3681Y-4.4792
X5.3957Y-1.6831
X5.4035Y-1.8602
X5.4331Y-4.626
X5.4331Y-4.6654
X5.4331Y-4.7146
X5.4331Y-4.7638
X5.4722Y-2.9429
X5.4724Y-3.0906
X5.5357Y-1.6831
X5.6024Y-4.1496
X5.6299Y-4.311
X5.6299Y-4.3504
X5.6299Y-4.3898
X5.6417Y-4.1496
X5.6693Y-4.311
X5.6693Y-4.3504
X5.6693Y-4.3898
X5.7087Y-4.311
X5.7087Y-4.3504
X5.7087Y-4.3898
X5.7215Y-2.2736
X5.7283Y-1.4272
X5.7776Y-1.5059
X5.7815Y-2.3228
X5.7874Y-1.5453
X5.7945Y-1.6929
X5.8614Y-1.6929
X5.876Y-2.2736
X5.8898Y-4.5458
X5.922Y-4.4178
X5.9252Y-2.3327
X5.9291Y-4.5458
X5.9646Y-1.3878
X5.9685Y-4.5458
X5.9843Y-3.1161
X6.0012Y-4.3391
X6.0039Y-1.4764
X6.0079Y-4.5458
X6.0118Y-3.0285
X6.0148Y-3.9537
X6.0354Y-2.9774
X6.0374Y-3.0118
X6.0374Y-3.8307
X6.0448Y-3.9558
X6.06Y-2.9567
X6.0846Y-2.2047
X6.0846Y-3.1978
X6.0854Y-1.7618
X6.0866Y-4.654
X6.1024Y-2.2244
X6.1024Y-3.2175
X6.1188Y-3.2371
X6.122Y-2.2441
X6.124Y-3.9488
X6.1398Y-3.2569
X6.1437Y-2.2638
X6.1516Y-1.6043
X6.1575Y-3.2766
X6.1614Y-1.7618
X6.1634Y-2.2835
X6.1811Y-4.3307
X6.1811Y-4.3701
X6.1811Y-4.4094
X6.1811Y-4.4488
X6.1831Y-2.3031
X6.1831Y-3.2963
X6.2008Y-2.3248
X6.2008Y-3.3179
X6.2189Y-2.3429
X6.2189Y-3.336
X6.2205Y-4.3307
X6.2205Y-4.3701
X6.2205Y-4.4094
X6.2205Y-4.4488
X6.2421Y-2.3622
X6.2421Y-3.3553
X6.2598Y-3.9567
X6.2598Y-4.3307
X6.2598Y-4.3701
X6.2697Y-1.4862
X6.2772Y-1.3976
X6.2795Y-2.9528
X6.3199Y-2.185
X6.3202Y-4.3858
X6.3209Y-2.9508
X6.3209Y-3.1791
X6.3209Y-3.9547
X6.376Y-2.3858
X6.376Y-3.3789
X6.3962Y-2.4015
X6.3962Y-3.3967
X6.4154Y-2.4242
X6.4154Y-3.4173
X6.435Y-2.4449
X6.435Y-3.438
X6.4542Y-2.4619
X6.4542Y-3.455
X6.4744Y-2.4803
X6.4744Y-3.4734
X6.497Y-2.5
X6.497Y-3.4931
X6.5157Y-3.8189
X6.5167Y-2.5197
X6.5167Y-3.5128
X6.5374Y-2.5394
X6.5394Y-3.5374
X6.563Y-2.9932
X6.564Y-2.9675
X6.5945Y-2.8307
X6.5945Y-3.8169
X6.5984Y-4.2559
X6.5984Y-4.311
X6.622Y-2.7913
X6.624Y-3.7795
X6.8406Y-4.372
X6.8425Y-4.2539
X6.8504Y-1.5059
X6.8504Y-1.6535
T3
X1.2791Y-1.6354
X1.2791Y-1.7354
X1.2791Y-1.8354
X1.2791Y-1.9354
X1.2791Y-2.0354
X1.2791Y-2.1354
X1.2791Y-2.2354
X1.2791Y-2.3354
X1.2791Y-2.4354
X1.2791Y-2.5354
X1.2791Y-2.6354
X1.2791Y-2.7354
X1.2791Y-2.8354
X1.2791Y-2.9354
X1.2791Y-3.0354
X1.2791Y-3.1354
X1.2791Y-3.2354
X1.2791Y-3.3354
X1.2791Y-3.4354
X1.2791Y-3.5354
X1.2791Y-3.6354
X1.2791Y-3.7354
X1.2791Y-3.8354
X1.2791Y-3.9354
X1.2791Y-4.0354
X1.2791Y-4.1354
X1.2791Y-4.2354
X1.2791Y-4.3354
X1.2791Y-4.4354
X1.2791Y-4.5354
X2.5791Y-1.8354
X2.5791Y-2.3354
X2.5791Y-2.7354
X2.5791Y-3.6354
X2.5791Y-4.5354
X2.5791Y-1.6354
X2.5791Y-1.7354
X2.5791Y-1.9354
X2.5791Y-2.0354
X2.5791Y-2.1354
X2.5791Y-2.2354
X2.5791Y-2.4354
X2.5791Y-2.5354
X2.5791Y-2.6354
X2.5791Y-2.8354
X2.5791Y-2.9354
X2.5791Y-3.0354
X2.5791Y-3.1354
X2.5791Y-3.2354
X2.5791Y-3.3354
X2.5791Y-3.4354
X2.5791Y-3.5354
X2.5791Y-3.7354
X2.5791Y-3.8354
X2.5791Y-3.9354
X2.5791Y-4.0354
X2.5791Y-4.1354
X2.5791Y-4.2354
X2.5791Y-4.3354
X2.5791Y-4.4354
X3.0315Y-3.8882
X3.0315Y-4.0803
T4
X1.1453Y-1.6354
X1.1453Y-1.7354
X1.1453Y-1.8354
X1.1453Y-1.9354
X1.1453Y-2.0354
X1.1453Y-2.1354
X1.1453Y-2.2354
X1.1453Y-2.3354
X1.1453Y-2.4354
X1.1453Y-2.5354
X1.1453Y-2.6354
X1.1453Y-2.7354
X1.1453Y-2.8354
X1.1453Y-2.9354
X1.1453Y-3.0354
X1.1453Y-3.1354
X1.1453Y-3.2354
X1.1453Y-3.3354
X1.1453Y-3.4354
X1.1453Y-3.5354
X1.1453Y-3.6354
X1.1453Y-3.7354
X1.1453Y-3.8354
X1.1453Y-3.9354
X1.1453Y-4.0354
X1.1453Y-4.1354
X1.1453Y-4.2354
X1.1453Y-4.3354
X1.1453Y-4.4354
X1.1453Y-4.5354
X2.7083Y-1.6354
X2.7083Y-1.7354
X2.7083Y-1.8354
X2.7083Y-1.9354
X2.7083Y-2.0354
X2.7083Y-2.1354
X2.7083Y-2.2354
X2.7083Y-2.3354
X2.7083Y-2.4354
X2.7083Y-2.5354
X2.7083Y-2.6354
X2.7083Y-2.7354
X2.7083Y-2.8354
X2.7083Y-2.9354
X2.7083Y-3.0354
X2.7083Y-3.1354
X2.7083Y-3.2354
X2.7083Y-3.3354
X2.7083Y-3.4354
X2.7083Y-3.5354
X2.7083Y-3.6354
X2.7083Y-3.7354
X2.7083Y-3.8354
X2.7083Y-3.9354
X2.7083Y-4.0354
X2.7083Y-4.1354
X2.7083Y-4.2354
X2.7083Y-4.3354
X2.7083Y-4.4354
X2.7083Y-4.5354
X5.2543Y-1.9331
X5.3543Y-1.9331
X5.4543Y-1.9331
X5.5543Y-1.9331
X5.6543Y-1.9331
X5.7543Y-1.9331
X5.8543Y-1.9331
X5.9543Y-1.9331
T2
G00X6.7963Y-1.4203
M15
G01X6.8317Y-1.4203
M16
G05
G00X6.7963Y-1.7608
M15
G01X6.8317Y-1.7608
M16
G05
G00X6.7963Y-4.1526
M15
G01X6.8317Y-4.1526
M16
G05
G00X6.7963Y-4.4931
M15
G01X6.8317Y-4.4931
M16
G05
G00X6.9675Y-1.4203
M15
G01X6.9911Y-1.4203
M16
G05
G00X6.9675Y-1.7608
M15
G01X6.9911Y-1.7608
M16
G05
G00X6.9675Y-4.1526
M15
G01X6.9911Y-4.1526
M16
G05
G00X6.9675Y-4.4931
M15
G01X6.9911Y-4.4931
M16
G05
M30
