M48
; DRILL file KiCad 10.0.4 date 2026-06-24T21:21:43
; FORMAT={-:-/ absolute / inch / decimal}
; #@! TF.CreationDate,2026-06-24T21:21:43+08:00
; #@! TF.GenerationSoftware,Kicad,Pcbnew,10.0.4
; #@! TF.FileFunction,Plated,1,6,PTH
FMAT,2
INCH
; #@! TA.AperFunction,Plated,PTH,ViaDrill
T1C0.0118
; #@! TA.AperFunction,Plated,PTH,ComponentDrill
T2C0.0157
; #@! TA.AperFunction,Plated,PTH,ComponentDrill
T3C0.0236
; #@! TA.AperFunction,Plated,PTH,ComponentDrill
T4C0.0315
; #@! TA.AperFunction,Plated,PTH,ComponentDrill
T5C0.0394
; #@! TA.AperFunction,Plated,PTH,ComponentDrill
T6C0.0866
%
G90
G05
T1
X0.4449Y-0.7008
X0.5512Y-0.8229
X0.624Y-1.8937
X0.6496Y-1.7992
X0.66Y-0.7008
X0.6945Y-1.1417
X0.6945Y-1.6417
X0.6945Y-1.7417
X0.6945Y-2.2417
X0.6945Y-2.3417
X0.6945Y-2.4417
X0.6945Y-3.7417
X0.6945Y-3.7904
X0.7205Y-0.4488
X0.752Y-0.4488
X0.752Y-4.2598
X0.7657Y-0.9016
X0.7835Y-0.4488
X0.815Y-0.4488
X0.8484Y-4.2028
X0.8748Y-0.7008
X0.9547Y-0.9764
X1.0079Y-3.9705
X1.0256Y-2.872
X1.0669Y-2.5236
X1.0896Y-0.7008
X1.1949Y-0.8229
X1.2008Y-0.7205
X1.2992Y-1.189
X1.3044Y-0.7008
X1.3287Y-2.372
X1.3642Y-2.6969
X1.3937Y-2.187
X1.4528Y-4.2461
X1.4567Y-4.3543
X1.4685Y-3.878
X1.4961Y-0.9173
X1.5192Y-0.7008
X1.5472Y-0.437
X1.5787Y-0.437
X1.6102Y-0.437
X1.6283Y-2.9417
X1.6283Y-4.0417
X1.6417Y-0.437
X1.6713Y-3.6654
X1.685Y-2.4911
X1.734Y-0.7008
X1.8311Y-4.3615
X1.8445Y-0.7441
X1.8563Y-0.8229
X1.8671Y-4.31
X1.9459Y-3.5748
X1.9488Y-0.7008
X1.9518Y-3.4055
X1.9619Y-3.6257
X1.966Y-3.3647
X2.0645Y-4.5276
X2.0669Y-3.3512
X2.0689Y-3.6402
X2.0768Y-3.2136
X2.1348Y-4.2461
X2.1772Y-4.001
X2.2264Y-2.5472
X2.2283Y-3.4882
X2.2598Y-2.0315
X2.2638Y-2.6157
X2.2648Y-1.2728
X2.2657Y-4.001
X2.2756Y-3.6004
X2.3Y-2.6413
X2.3046Y-1.2984
X2.3091Y-4.2461
X2.313Y-2.4291
X2.3327Y-3.2559
X2.3363Y-2.6669
X2.3443Y-1.324
X2.3681Y-3.4488
X2.3725Y-2.6921
X2.3841Y-1.3492
X2.4088Y-2.7181
X2.4239Y-1.3752
X2.445Y-2.7433
X2.4626Y-1.2067
X2.4637Y-1.4004
X2.4724Y-2.0846
X2.4744Y-2.9606
X2.4783Y-4.4193
X2.4813Y-2.7689
X2.4843Y-1.5433
X2.4882Y-2.4311
X2.5035Y-1.426
X2.5433Y-1.4516
X2.5472Y-3.3445
X2.5512Y-4.0335
X2.5728Y-0.9528
X2.5787Y-1.1811
X2.5906Y-1.5079
X2.5906Y-2.4035
X2.5906Y-2.8504
X2.5925Y-3.2992
X2.5945Y-0.8799
X2.5984Y-0.5118
X2.6122Y-3.7323
X2.6417Y-2.0787
X2.6437Y-0.7559
X2.6447Y-3.1909
X2.6476Y-0.3898
X2.6634Y-1.6299
X2.6634Y-2.3307
X2.6831Y-1.7697
X2.689Y-3.0709
X2.6965Y-0.8799
X2.7005Y-0.5118
X2.7461Y-3.2579
X2.75Y-2.4862
X2.75Y-2.7618
X2.7795Y-4.5611
X2.7795Y-1.1969
X2.7795Y-1.6447
X2.7795Y-2.0925
X2.7795Y-2.5404
X2.7795Y-2.9882
X2.7986Y-0.8799
X2.8025Y-0.5118
X2.8189Y-1.1969
X2.8189Y-1.6447
X2.8189Y-2.0925
X2.8189Y-2.5404
X2.8189Y-2.9882
X2.8209Y-1.0217
X2.8386Y-3.9903
X2.8484Y-0.7559
X2.8543Y-1.5197
X2.8858Y-3.7028
X2.8957Y-2.8189
X2.9006Y-0.8799
X2.9045Y-0.5118
X2.9429Y-3.6122
X2.9823Y-2.1024
X2.9882Y-2.565
X3.0Y-3.9646
X3.0026Y-0.8799
X3.0059Y-2.8878
X3.0066Y-0.5118
X3.0276Y-4.0315
X3.0335Y-4.1614
X3.0591Y-0.3898
X3.0709Y-3.7795
X3.0807Y-2.4291
X3.0952Y-3.9646
X3.1043Y-4.3524
X3.1047Y-0.8799
X3.1086Y-0.5118
X3.1555Y-0.5453
X3.1673Y-0.7559
X3.2067Y-0.8799
X3.2106Y-0.5118
X3.2441Y-4.1476
X3.2579Y-1.6811
X3.2638Y-0.5728
X3.2638Y-1.0965
X3.2913Y-3.9646
X3.3087Y-0.8799
X3.3127Y-0.5118
X3.3671Y-1.2392
X3.372Y-3.7894
X3.372Y-4.0079
X3.378Y-1.2106
X3.3782Y-1.097
X3.3811Y-3.4016
X3.3909Y-3.9646
X3.3917Y-2.2598
X3.4108Y-0.8799
X3.4147Y-0.5118
X3.439Y-1.6299
X3.4705Y-1.2402
X3.4705Y-3.2894
X3.4893Y-3.9646
X3.5128Y-0.8799
X3.5167Y-0.5118
X3.5551Y-1.1791
X3.5581Y-3.2638
X3.5591Y-4.0315
X3.5689Y-0.3898
X3.5906Y-3.9646
X3.6148Y-0.8799
X3.6188Y-0.5118
X3.6496Y-0.6043
X3.7169Y-0.8799
X3.7208Y-0.5118
X3.752Y-2.4469
X3.7589Y-3.1742
X3.7638Y-1.1634
X3.7677Y-4.0906
X3.8189Y-0.8799
X3.8209Y-2.3091
X3.8228Y-3.1102
X3.8228Y-0.5118
X3.8273Y-3.2426
X3.8967Y-3.3071
X3.8977Y-3.0482
X3.9021Y-3.2329
X3.9163Y-2.363
X3.9209Y-0.8799
X3.9249Y-0.5118
X3.9271Y-2.9946
X3.9439Y-2.3907
X3.9567Y-2.3189
X3.9572Y-3.2485
X3.9724Y-0.7559
X4.0118Y-2.6142
X4.0157Y-3.19
X4.023Y-0.8799
X4.0269Y-0.5118
X4.0285Y-2.3632
X4.0394Y-1.1929
X4.0561Y-2.3346
X4.0571Y-2.3908
X4.0571Y-3.4016
X4.0807Y-3.6831
X4.0846Y-0.3898
X4.0846Y-2.3073
X4.0846Y-2.4187
X4.1122Y-2.2795
X4.1122Y-2.3356
X4.1132Y-2.3907
X4.125Y-0.8799
X4.1289Y-0.5118
X4.1398Y-2.4743
X4.1594Y-1.9724
X4.1673Y-2.2238
X4.1673Y-2.3352
X4.1673Y-2.3896
X4.1683Y-2.2795
X4.1683Y-2.4465
X4.1752Y-0.7559
X4.1949Y-2.4743
X4.1952Y-2.3618
X4.1959Y-2.1959
X4.2222Y-2.3349
X4.2227Y-2.4465
X4.2244Y-2.5022
X4.227Y-0.8799
X4.25Y-2.3071
X4.2506Y-2.4187
X4.252Y-2.4743
X4.2756Y-3.6693
X4.2784Y-2.3908
X4.2785Y-2.1124
X4.2805Y-2.1673
X4.2854Y-1.8012
X4.2894Y-1.3602
X4.2992Y-1.2146
X4.3062Y-2.363
X4.3068Y-2.1388
X4.3068Y-2.6398
X4.3071Y-2.5295
X4.311Y-1.3799
X4.3199Y-1.1939
X4.3291Y-0.8799
X4.3327Y-1.3976
X4.3341Y-2.3351
X4.3346Y-2.6122
X4.3346Y-2.6683
X4.3347Y-2.1122
X4.3349Y-2.5574
X4.3356Y-2.2795
X4.3386Y-1.2874
X4.3415Y-1.1722
X4.3484Y-0.5335
X4.3543Y-1.4213
X4.3602Y-1.1555
X4.3619Y-2.3073
X4.3625Y-2.5295
X4.3625Y-2.1971
X4.3625Y-2.0285
X4.3625Y-2.6949
X4.3625Y-2.5856
X4.378Y-1.1358
X4.378Y-1.4409
X4.3888Y-1.8907
X4.3897Y-2.2795
X4.3903Y-2.0561
X4.3903Y-2.0
X4.3903Y-2.5571
X4.3907Y-2.6683
X4.3957Y-1.6161
X4.3976Y-1.1181
X4.4016Y-1.4567
X4.4173Y-1.1024
X4.4182Y-1.9724
X4.4182Y-2.752
X4.4183Y-1.9173
X4.4211Y-3.8652
X4.4232Y-1.4744
X4.4311Y-0.8799
X4.435Y-1.6083
X4.4409Y-1.0827
X4.4429Y-1.4921
X4.4449Y-2.3352
X4.4459Y-2.3908
X4.446Y-1.9429
X4.446Y-2.7234
X4.4528Y-1.6535
X4.4567Y-4.2756
X4.4685Y-3.1457
X4.4722Y-2.4196
X4.4723Y-2.3069
X4.4724Y-2.363
X4.4738Y-2.8071
X4.4741Y-2.7517
X4.4743Y-1.9726
X4.4744Y-1.6102
X4.4744Y-1.9173
X4.4902Y-1.4252
X4.4909Y-3.8652
X4.5Y-2.3917
X4.5001Y-2.3348
X4.501Y-2.2795
X4.5017Y-1.7773
X4.5017Y-1.9439
X4.5017Y-2.4469
X4.502Y-1.8878
X4.502Y-2.7795
X4.5022Y-2.7205
X4.5059Y-1.4941
X4.51Y-1.277
X4.5151Y-4.2756
X4.5256Y-3.1791
X4.5295Y-2.3071
X4.5295Y-2.4183
X4.5295Y-2.751
X4.5295Y-1.5984
X4.5295Y-1.747
X4.5295Y-1.9173
X4.5295Y-2.0285
X4.5295Y-2.25
X4.5295Y-2.363
X4.5295Y-2.4754
X4.5295Y-2.9803
X4.5295Y-1.8051
X4.5332Y-0.8799
X4.5374Y-3.624
X4.5413Y-1.4646
X4.5571Y-1.4862
X4.5571Y-2.4465
X4.5571Y-2.7234
X4.5572Y-2.0008
X4.5574Y-1.8898
X4.5574Y-2.2785
X4.5574Y-2.7795
X4.5574Y-2.9528
X4.5581Y-2.1122
X4.5591Y-2.3346
X4.5591Y-2.3917
X4.565Y-1.4449
X4.5735Y-4.2753
X4.5827Y-3.1457
X4.5848Y-2.6966
X4.5852Y-1.9724
X4.5852Y-2.8061
X4.5859Y-2.083
X4.5866Y-2.363
X4.5869Y-2.3068
X4.5869Y-2.4196
X4.5886Y-1.6004
X4.5982Y-3.8297
X4.5982Y-3.8711
X4.613Y-1.9459
X4.613Y-2.7234
X4.6142Y-2.3352
X4.6142Y-2.3907
X4.6278Y-1.3463
X4.6319Y-4.2776
X4.6352Y-0.8799
X4.6358Y-3.0315
X4.6407Y-2.0285
X4.6409Y-2.751
X4.6417Y-2.363
X4.6535Y-1.3209
X4.6687Y-2.001
X4.6687Y-2.6683
X4.687Y-0.7559
X4.6966Y-2.0856
X4.6969Y-2.6959
X4.6989Y-2.196
X4.7009Y-3.9163
X4.7009Y-3.9557
X4.7146Y-1.3642
X4.7222Y-2.5558
X4.7234Y-2.3352
X4.7234Y-2.6122
X4.7244Y-2.0561
X4.7244Y-2.1683
X4.7372Y-0.8799
X4.7461Y-0.6043
X4.75Y-2.5837
X4.751Y-2.3632
X4.7518Y-2.195
X4.752Y-2.3071
X4.752Y-2.6407
X4.753Y-2.1417
X4.7579Y-2.8465
X4.7593Y-3.9161
X4.7593Y-3.9554
X4.7677Y-2.8031
X4.7776Y-1.0945
X4.7794Y-2.2226
X4.7795Y-2.5591
X4.7797Y-2.1672
X4.7798Y-2.3349
X4.7808Y-2.1139
X4.7933Y-0.9665
X4.8071Y-2.1403
X4.8071Y-2.2516
X4.8071Y-2.5856
X4.8072Y-2.1947
X4.8079Y-2.0856
X4.813Y-2.8917
X4.8177Y-3.9183
X4.8177Y-3.9577
X4.8287Y-2.8228
X4.8356Y-2.0581
X4.8356Y-2.4465
X4.8356Y-2.5022
X4.8366Y-2.5579
X4.8622Y-1.9134
X4.8622Y-2.3632
X4.8622Y-2.7953
X4.8622Y-3.7539
X4.8632Y-2.2516
X4.8632Y-2.4744
X4.8632Y-2.53
X4.876Y-2.6929
X4.8819Y-2.7677
X4.89Y-2.391
X4.8916Y-2.3345
X4.8917Y-2.2238
X4.8917Y-2.4469
X4.8937Y-3.4409
X4.9016Y-2.0276
X4.9016Y-2.7362
X4.9173Y-0.6004
X4.9193Y-2.3073
X4.9194Y-2.3623
X4.9213Y-2.7165
X4.9409Y-2.0276
X4.9459Y-2.3908
X4.9469Y-2.2234
X4.9469Y-2.2795
X4.9486Y-4.0955
X4.9486Y-4.1742
X4.9508Y-2.7461
X4.9587Y-2.8504
X4.9724Y-2.363
X4.9744Y-2.4187
X4.9783Y-1.9823
X4.988Y-4.1348
X4.9902Y-3.4134
X5.002Y-2.3908
X5.003Y-2.3352
X5.0059Y-2.1043
X5.0177Y-2.8858
X5.0274Y-4.0955
X5.0274Y-4.1742
X5.0276Y-0.6713
X5.0315Y-2.363
X5.0551Y-2.1654
X5.0591Y-0.2963
X5.0669Y-1.0945
X5.0787Y-2.185
X5.0827Y-2.7776
X5.0846Y-3.4213
X5.0866Y-2.8602
X5.0945Y-0.9606
X5.1053Y-1.2953
X5.1102Y-2.1457
X5.1122Y-2.7992
X5.128Y-2.3907
X5.1358Y-2.8248
X5.1378Y-2.1654
X5.1378Y-2.7756
X5.1417Y-0.8563
X5.1476Y-0.6457
X5.1476Y-3.3445
X5.1555Y-0.9311
X5.1555Y-2.437
X5.1575Y-2.7559
X5.1594Y-2.363
X5.1732Y-1.3223
X5.1752Y-2.8957
X5.1772Y-2.4075
X5.1772Y-2.4606
X5.1772Y-2.7362
X5.189Y-3.7087
X5.1969Y-2.437
X5.1969Y-2.4803
X5.1969Y-2.7165
X5.2008Y-0.9961
X5.2126Y-2.3209
X5.2165Y-2.5
X5.2165Y-2.6969
X5.2224Y-2.1673
X5.2362Y-2.5197
X5.2402Y-2.2992
X5.2402Y-2.6772
X5.25Y-1.2618
X5.25Y-1.5787
X5.2559Y-2.2579
X5.2559Y-2.5394
X5.2579Y-2.3209
X5.2736Y-2.7185
X5.2756Y-2.2795
X5.2756Y-2.5591
X5.2795Y-0.7244
X5.2795Y-0.9331
X5.2825Y-4.1496
X5.2825Y-4.189
X5.2835Y-3.4055
X5.2933Y-2.2579
X5.2953Y-2.5787
X5.3012Y-1.1102
X5.3031Y-3.9508
X5.315Y-2.5984
X5.3219Y-4.1496
X5.3219Y-4.189
X5.3287Y-1.4331
X5.3327Y-2.1949
X5.3346Y-2.6181
X5.3425Y-2.4016
X5.3484Y-2.6811
X5.3504Y-1.1063
X5.3506Y-1.3858
X5.3543Y-2.6378
X5.3622Y-1.5236
X5.374Y-2.6575
X5.3898Y-2.2539
X5.4055Y-2.685
X5.4193Y-2.3681
X5.4331Y-1.0197
X5.4508Y-0.626
X5.4843Y-2.1594
X5.502Y-1.9803
X5.561Y-2.2756
X5.5991Y-4.2461
X5.6142Y-1.3681
X5.6201Y-1.0748
X5.622Y-1.6949
X5.6495Y-0.6713
X5.6555Y-2.1811
X5.6604Y-3.9272
X5.6604Y-3.9665
X5.6647Y-4.2461
X5.6949Y-0.8307
X5.7087Y-2.7461
X5.7188Y-3.9272
X5.7188Y-3.9665
X5.7303Y-4.2461
X5.7323Y-0.9606
X5.7461Y-2.6929
X5.7677Y-2.2776
X5.7697Y-1.752
X5.7697Y-1.7933
X5.7772Y-3.9269
X5.7772Y-3.9663
X5.7835Y-1.9764
X5.7874Y-3.6398
X5.7992Y-1.774
X5.8228Y-1.8134
X5.8268Y-1.75
X5.8287Y-1.7913
X5.8346Y-4.1358
X5.8356Y-3.9291
X5.8356Y-3.9685
X5.8504Y-0.8543
X5.9193Y-0.8307
X5.9291Y-0.6732
X5.937Y-2.1772
X5.9429Y-2.753
X5.9433Y-1.7937
X5.9439Y-1.9931
X5.9508Y-1.4803
X5.9547Y-4.0837
X5.9596Y-1.3169
X5.9823Y-2.753
X5.9833Y-1.9931
X5.9941Y-4.0827
X6.0059Y-2.9035
X6.0118Y-0.9547
X6.0197Y-3.9478
X6.0335Y-4.0837
X6.0354Y-2.1142
X6.0512Y-2.1673
X6.063Y-3.9449
X6.0768Y-2.1181
X6.077Y-2.148
X6.077Y-2.878
X6.0787Y-3.0079
X6.0994Y-4.1585
X6.1014Y-1.8268
X6.1014Y-2.4843
X6.1258Y-2.2234
X6.1258Y-2.9852
X6.126Y-2.189
X6.126Y-3.0354
X6.1501Y-2.9689
X6.1502Y-2.2071
X6.1713Y-2.1594
X6.1732Y-3.0079
X6.1745Y-2.9492
X6.1746Y-2.1874
X6.1781Y-3.8409
X6.187Y-0.6378
X6.1989Y-2.9295
X6.199Y-2.1677
X6.2008Y-3.2697
X6.2185Y-2.1161
X6.2185Y-3.9744
X6.2233Y-2.9098
X6.2234Y-2.148
X6.2396Y-3.7146
X6.2477Y-2.8902
X6.2478Y-2.1283
X6.2598Y-3.9744
X6.2657Y-2.0768
X6.2721Y-2.8705
X6.2722Y-2.1087
X6.2965Y-2.8504
X6.2966Y-2.0886
X6.3012Y-3.9744
X6.311Y-2.0374
X6.3209Y-2.8307
X6.321Y-2.0689
X6.3307Y-1.9764
X6.3366Y-1.9055
X6.3386Y-1.937
X6.3453Y-2.8114
X6.3454Y-2.0496
X6.3642Y-2.7736
X6.3681Y-2.7087
X6.3697Y-2.6732
X6.3698Y-1.9114
X6.3917Y-2.7913
X6.3937Y-1.8681
X6.3941Y-2.6545
X6.3942Y-1.8927
X6.4035Y-2.6949
X6.4185Y-2.6343
X6.4186Y-1.8724
X6.4409Y-1.8248
X6.4414Y-3.7157
X6.4414Y-3.7985
X6.4429Y-2.6146
X6.443Y-1.8528
X6.4673Y-2.5945
X6.4674Y-1.8327
X6.4882Y-1.7854
X6.4917Y-2.5748
X6.4918Y-1.813
X6.516Y-2.5551
X6.5162Y-1.7933
X6.5335Y-1.7461
X6.5404Y-2.5364
X6.5406Y-1.7746
X6.5648Y-2.5161
X6.565Y-1.7543
X6.5886Y-1.9744
X6.5886Y-2.4764
X6.6339Y-2.4508
X6.6457Y-2.3878
X6.7047Y-1.9906
X6.7047Y-3.9266
X6.7079Y-2.7528
X6.7087Y-1.9409
X6.7126Y-2.7047
X6.7283Y-2.7717
X6.7303Y-4.0236
X6.7307Y-2.0102
X6.7402Y-4.0551
X6.8465Y-0.7402
X6.8465Y-3.9866
X6.8465Y-4.1043
X6.8484Y-0.6004
X6.8957Y-0.499
X6.9173Y-0.8396
X6.9516Y-0.6673
X6.974Y-4.0305
X6.974Y-4.063
T2
X0.1319Y-0.1969
X0.1319Y-4.5276
X0.1509Y-0.1509
X0.1509Y-0.2428
X0.1509Y-4.4816
X0.1509Y-4.5735
X0.1969Y-0.1319
X0.1969Y-0.2618
X0.1969Y-4.4626
X0.1969Y-4.5925
X0.2428Y-0.1509
X0.2428Y-0.2428
X0.2428Y-4.4816
X0.2428Y-4.5735
X0.2618Y-0.1969
X0.2618Y-4.5276
X6.8248Y-0.1969
X6.8248Y-4.5276
X6.8438Y-0.1509
X6.8438Y-0.2428
X6.8438Y-4.4816
X6.8438Y-4.5735
X6.8898Y-0.1319
X6.8898Y-0.2618
X6.8898Y-4.4626
X6.8898Y-4.5925
X6.9357Y-0.1509
X6.9357Y-0.2428
X6.9357Y-4.4816
X6.9357Y-4.5735
X6.9547Y-0.1969
X6.9547Y-4.5276
T4
X0.5118Y-1.1417
X0.5118Y-1.2417
X0.5118Y-1.3417
X0.5118Y-1.4417
X0.5118Y-1.5417
X0.5118Y-1.6417
X0.5118Y-1.7417
X0.5118Y-1.8417
X0.5118Y-1.9417
X0.5118Y-2.0417
X0.5118Y-2.1417
X0.5118Y-2.2417
X0.5118Y-2.3417
X0.5118Y-2.4417
X0.5118Y-2.5417
X0.5118Y-2.6417
X0.5118Y-2.7417
X0.5118Y-2.8417
X0.5118Y-2.9417
X0.5118Y-3.0417
X0.5118Y-3.1417
X0.5118Y-3.2417
X0.5118Y-3.3417
X0.5118Y-3.4417
X0.5118Y-3.5417
X0.5118Y-3.6417
X0.5118Y-3.7417
X0.5118Y-3.8417
X0.5118Y-3.9417
X0.5118Y-4.0417
X1.8118Y-1.1417
X1.8118Y-1.2417
X1.8118Y-1.3417
X1.8118Y-1.4417
X1.8118Y-1.5417
X1.8118Y-1.6417
X1.8118Y-1.7417
X1.8118Y-1.8417
X1.8118Y-1.9417
X1.8118Y-2.0417
X1.8118Y-2.1417
X1.8118Y-2.2417
X1.8118Y-2.3417
X1.8118Y-2.4417
X1.8118Y-2.5417
X1.8118Y-2.6417
X1.8118Y-2.7417
X1.8118Y-2.8417
X1.8118Y-2.9417
X1.8118Y-3.0417
X1.8118Y-3.1417
X1.8118Y-3.2417
X1.8118Y-3.3417
X1.8118Y-3.4417
X1.8118Y-3.5417
X1.8118Y-3.6417
X1.8118Y-3.7417
X1.8118Y-3.8417
X1.8118Y-3.9417
X1.8118Y-4.0417
X2.1575Y-3.3984
X2.1575Y-3.5906
T5
X4.741Y-3.5354
X4.841Y-3.5354
X4.8975Y-0.3463
X4.941Y-3.5354
X4.9975Y-0.3463
X5.041Y-3.5354
X5.0975Y-0.3463
X5.141Y-3.5354
X5.1975Y-0.3463
X5.241Y-3.5354
X5.2975Y-0.3463
X5.341Y-3.5354
X5.3975Y-0.3463
X5.441Y-3.5354
X5.4975Y-0.3463
X5.5975Y-0.3463
T6
X0.1969Y-0.1969
X0.1969Y-4.5276
X6.8898Y-0.1969
X6.8898Y-4.5276
T3
G00X6.7967Y-0.499
M15
G01X6.8321Y-0.499
M16
G05
G00X6.7967Y-0.8396
M15
G01X6.8321Y-0.8396
M16
G05
G00X6.7967Y-3.8848
M15
G01X6.8321Y-3.8848
M16
G05
G00X6.7967Y-4.2254
M15
G01X6.8321Y-4.2254
M16
G05
G00X6.968Y-0.499
M15
G01X6.9916Y-0.499
M16
G05
G00X6.968Y-0.8396
M15
G01X6.9916Y-0.8396
M16
G05
G00X6.968Y-3.8848
M15
G01X6.9916Y-3.8848
M16
G05
G00X6.968Y-4.2254
M15
G01X6.9916Y-4.2254
M16
G05
M30
