%TF.GenerationSoftware,KiCad,Pcbnew,10.0.1*%
%TF.CreationDate,2026-06-07T04:22:57+08:00*%
%TF.ProjectId,DCJ11CoreBoard,44434a31-3143-46f7-9265-426f6172642e,rev?*%
%TF.SameCoordinates,Original*%
%TF.FileFunction,Paste,Bot*%
%TF.FilePolarity,Positive*%
%FSLAX46Y46*%
G04 Gerber Fmt 4.6, Leading zero omitted, Abs format (unit mm)*
G04 Created by KiCad (PCBNEW 10.0.1) date 2026-06-07 04:22:57*
%MOMM*%
%LPD*%
G01*
G04 APERTURE LIST*
G04 Aperture macros list*
%AMRoundRect*
0 Rectangle with rounded corners*
0 $1 Rounding radius*
0 $2 $3 $4 $5 $6 $7 $8 $9 X,Y pos of 4 corners*
0 Add a 4 corners polygon primitive as box body*
4,1,4,$2,$3,$4,$5,$6,$7,$8,$9,$2,$3,0*
0 Add four circle primitives for the rounded corners*
1,1,$1+$1,$2,$3*
1,1,$1+$1,$4,$5*
1,1,$1+$1,$6,$7*
1,1,$1+$1,$8,$9*
0 Add four rect primitives between the rounded corners*
20,1,$1+$1,$2,$3,$4,$5,0*
20,1,$1+$1,$4,$5,$6,$7,0*
20,1,$1+$1,$6,$7,$8,$9,0*
20,1,$1+$1,$8,$9,$2,$3,0*%
G04 Aperture macros list end*
%ADD10RoundRect,0.150000X0.150000X-0.590000X0.150000X0.590000X-0.150000X0.590000X-0.150000X-0.590000X0*%
%ADD11RoundRect,0.225000X0.335876X0.017678X0.017678X0.335876X-0.335876X-0.017678X-0.017678X-0.335876X0*%
%ADD12RoundRect,0.200000X-0.200000X-0.275000X0.200000X-0.275000X0.200000X0.275000X-0.200000X0.275000X0*%
%ADD13RoundRect,0.225000X0.017678X-0.335876X0.335876X-0.017678X-0.017678X0.335876X-0.335876X0.017678X0*%
%ADD14RoundRect,0.225000X-0.017678X0.335876X-0.335876X0.017678X0.017678X-0.335876X0.335876X-0.017678X0*%
%ADD15RoundRect,0.200000X-0.053033X0.335876X-0.335876X0.053033X0.053033X-0.335876X0.335876X-0.053033X0*%
%ADD16RoundRect,0.200000X0.275000X-0.200000X0.275000X0.200000X-0.275000X0.200000X-0.275000X-0.200000X0*%
%ADD17RoundRect,0.200000X0.200000X0.275000X-0.200000X0.275000X-0.200000X-0.275000X0.200000X-0.275000X0*%
%ADD18RoundRect,0.225000X-0.225000X-0.250000X0.225000X-0.250000X0.225000X0.250000X-0.225000X0.250000X0*%
%ADD19RoundRect,0.150000X-0.512500X-0.150000X0.512500X-0.150000X0.512500X0.150000X-0.512500X0.150000X0*%
%ADD20RoundRect,0.225000X-0.335876X-0.017678X-0.017678X-0.335876X0.335876X0.017678X0.017678X0.335876X0*%
%ADD21R,1.000000X1.500000*%
%ADD22R,0.700000X1.500000*%
%ADD23R,1.500000X2.800000*%
G04 APERTURE END LIST*
D10*
%TO.C,Q1*%
X89161333Y-41500000D03*
X87261333Y-41500000D03*
X88211333Y-39620001D03*
%TD*%
D11*
%TO.C,C16*%
X105551543Y-76751543D03*
X104448457Y-75648457D03*
%TD*%
D12*
%TO.C,R1*%
X165079999Y-109500000D03*
X166720001Y-109500000D03*
%TD*%
D10*
%TO.C,Q2*%
X92717777Y-41500000D03*
X90817777Y-41500000D03*
X91767777Y-39620001D03*
%TD*%
D11*
%TO.C,C17*%
X120651543Y-61151543D03*
X119548457Y-60048457D03*
%TD*%
D12*
%TO.C,R37*%
X146679999Y-57750000D03*
X148320001Y-57750000D03*
%TD*%
D13*
%TO.C,C25*%
X115000000Y-82300000D03*
X116103086Y-81196914D03*
%TD*%
D10*
%TO.C,Q20*%
X84000000Y-39250000D03*
X82100000Y-39250000D03*
X83050000Y-37370001D03*
%TD*%
D13*
%TO.C,C22*%
X109900000Y-77500000D03*
X111003086Y-76396914D03*
%TD*%
D10*
%TO.C,Q12*%
X128282222Y-41500000D03*
X126382222Y-41500000D03*
X127332222Y-39620001D03*
%TD*%
D12*
%TO.C,R39*%
X147179999Y-44000000D03*
X148820001Y-44000000D03*
%TD*%
%TO.C,R2*%
X165079999Y-108100000D03*
X166720001Y-108100000D03*
%TD*%
D10*
%TO.C,Q9*%
X117612889Y-41500000D03*
X115712889Y-41500000D03*
X116662889Y-39620001D03*
%TD*%
%TO.C,Q4*%
X99830666Y-41500000D03*
X97930666Y-41500000D03*
X98880666Y-39620001D03*
%TD*%
%TO.C,Q14*%
X135395111Y-41500000D03*
X133495111Y-41500000D03*
X134445111Y-39620001D03*
%TD*%
D14*
%TO.C,C38*%
X131051543Y-75548457D03*
X129948457Y-76651543D03*
%TD*%
D10*
%TO.C,Q8*%
X114056444Y-41500000D03*
X112156444Y-41500000D03*
X113106444Y-39620001D03*
%TD*%
%TO.C,Q16*%
X142508000Y-41500000D03*
X140608000Y-41500000D03*
X141558000Y-39620001D03*
%TD*%
D12*
%TO.C,R43*%
X175179999Y-42500000D03*
X176820001Y-42500000D03*
%TD*%
D15*
%TO.C,R19*%
X129459656Y-61140344D03*
X128300000Y-62300000D03*
%TD*%
D10*
%TO.C,Q6*%
X106943555Y-41500000D03*
X105043555Y-41500000D03*
X105993555Y-39620001D03*
%TD*%
D12*
%TO.C,R38*%
X147929999Y-59250000D03*
X149570001Y-59250000D03*
%TD*%
D10*
%TO.C,Q11*%
X124725778Y-41500000D03*
X122825778Y-41500000D03*
X123775778Y-39620001D03*
%TD*%
D16*
%TO.C,R67*%
X161700000Y-115220001D03*
X161700000Y-113579999D03*
%TD*%
D17*
%TO.C,R3*%
X163393555Y-112300610D03*
X161753553Y-112300610D03*
%TD*%
D13*
%TO.C,C23*%
X119148457Y-86551543D03*
X120251543Y-85448457D03*
%TD*%
D10*
%TO.C,Q19*%
X80500000Y-39249999D03*
X78600000Y-39249999D03*
X79550000Y-37370000D03*
%TD*%
%TO.C,Q3*%
X96274222Y-41500000D03*
X94374222Y-41500000D03*
X95324222Y-39620001D03*
%TD*%
%TO.C,Q7*%
X110500000Y-41500000D03*
X108600000Y-41500000D03*
X109550000Y-39620001D03*
%TD*%
D15*
%TO.C,R21*%
X130449605Y-62130291D03*
X129289949Y-63289947D03*
%TD*%
D18*
%TO.C,C1*%
X158973554Y-112300610D03*
X160533554Y-112300610D03*
%TD*%
D10*
%TO.C,Q5*%
X103387111Y-41500000D03*
X101487111Y-41500000D03*
X102437111Y-39620001D03*
%TD*%
%TO.C,Q13*%
X131838667Y-41500000D03*
X129938667Y-41500000D03*
X130888667Y-39620001D03*
%TD*%
D12*
%TO.C,R42*%
X175179999Y-38250000D03*
X176820001Y-38250000D03*
%TD*%
D13*
%TO.C,C18*%
X135648457Y-76251543D03*
X136751543Y-75148457D03*
%TD*%
D19*
%TO.C,U2*%
X160866053Y-110300609D03*
X160866053Y-109350610D03*
X160866053Y-108400611D03*
X163141053Y-108400611D03*
X163141053Y-109350610D03*
X163141053Y-110300609D03*
%TD*%
D10*
%TO.C,Q17*%
X73500000Y-39250000D03*
X71600000Y-39250000D03*
X72550000Y-37370001D03*
%TD*%
%TO.C,Q18*%
X77000000Y-39249999D03*
X75100000Y-39249999D03*
X76050000Y-37370000D03*
%TD*%
D14*
%TO.C,C19*%
X120351543Y-91548457D03*
X119248457Y-92651543D03*
%TD*%
D20*
%TO.C,C21*%
X114548457Y-70948457D03*
X115651543Y-72051543D03*
%TD*%
D21*
%TO.C,U14*%
X91569901Y-109800025D03*
X94070028Y-109800025D03*
X96569901Y-109800025D03*
X99079934Y-109800025D03*
X101580061Y-109800025D03*
X104079934Y-109800025D03*
X106500051Y-109800025D03*
X108200077Y-109800025D03*
X89070028Y-109800025D03*
D22*
X109500051Y-109800025D03*
X110699949Y-109800025D03*
D23*
X112100000Y-111600127D03*
X112100000Y-126100000D03*
X84800025Y-126100000D03*
X86999923Y-111600127D03*
%TD*%
D10*
%TO.C,Q10*%
X121169333Y-41500000D03*
X119269333Y-41500000D03*
X120219333Y-39620001D03*
%TD*%
D13*
%TO.C,C40*%
X120548457Y-88051543D03*
X121651543Y-86948457D03*
%TD*%
D14*
%TO.C,C41*%
X119851543Y-64848457D03*
X118748457Y-65951543D03*
%TD*%
D10*
%TO.C,Q15*%
X138951556Y-41500000D03*
X137051556Y-41500000D03*
X138001556Y-39620001D03*
%TD*%
D14*
%TO.C,C20*%
X121651543Y-66448457D03*
X120548457Y-67551543D03*
%TD*%
%TO.C,C24*%
X126051543Y-70548457D03*
X124948457Y-71651543D03*
%TD*%
D11*
%TO.C,C39*%
X126351543Y-82051543D03*
X125248457Y-80948457D03*
%TD*%
M02*
