%TF.GenerationSoftware,KiCad,Pcbnew,10.0.4*%
%TF.CreationDate,2026-07-17T21:54:09+08:00*%
%TF.ProjectId,DCJ11CoreBoard_v1.3,44434a31-3143-46f7-9265-426f6172645f,1.3*%
%TF.SameCoordinates,Original*%
%TF.FileFunction,Copper,L6,Bot*%
%TF.FilePolarity,Positive*%
%FSLAX46Y46*%
G04 Gerber Fmt 4.6, Leading zero omitted, Abs format (unit mm)*
G04 Created by KiCad (PCBNEW 10.0.4) date 2026-07-17 21:54:09*
%MOMM*%
%LPD*%
G01*
G04 APERTURE LIST*
G04 Aperture macros list*
%AMRoundRect*
0 Rectangle with rounded corners*
0 $1 Rounding radius*
0 $2 $3 $4 $5 $6 $7 $8 $9 X,Y pos of 4 corners*
0 Add a 4 corners polygon primitive as box body*
4,1,4,$2,$3,$4,$5,$6,$7,$8,$9,$2,$3,0*
0 Add four circle primitives for the rounded corners*
1,1,$1+$1,$2,$3*
1,1,$1+$1,$4,$5*
1,1,$1+$1,$6,$7*
1,1,$1+$1,$8,$9*
0 Add four rect primitives between the rounded corners*
20,1,$1+$1,$2,$3,$4,$5,0*
20,1,$1+$1,$4,$5,$6,$7,0*
20,1,$1+$1,$6,$7,$8,$9,0*
20,1,$1+$1,$8,$9,$2,$3,0*%
%AMRotRect*
0 Rectangle, with rotation*
0 The origin of the aperture is its center*
0 $1 length*
0 $2 width*
0 $3 Rotation angle, in degrees counterclockwise*
0 Add horizontal line*
21,1,$1,$2,0,0,$3*%
G04 Aperture macros list end*
%TA.AperFunction,ComponentPad*%
%ADD10R,2.400000X1.600000*%
%TD*%
%TA.AperFunction,ComponentPad*%
%ADD11O,2.400000X1.600000*%
%TD*%
%TA.AperFunction,ComponentPad*%
%ADD12R,1.800000X1.800000*%
%TD*%
%TA.AperFunction,ComponentPad*%
%ADD13O,1.600000X1.600000*%
%TD*%
%TA.AperFunction,ComponentPad*%
%ADD14O,2.000000X1.100000*%
%TD*%
%TA.AperFunction,ComponentPad*%
%ADD15O,1.800000X1.200000*%
%TD*%
%TA.AperFunction,ComponentPad*%
%ADD16O,1.400000X1.400000*%
%TD*%
%TA.AperFunction,ComponentPad*%
%ADD17C,5.000000*%
%TD*%
%TA.AperFunction,ComponentPad*%
%ADD18R,1.500000X1.500000*%
%TD*%
%TA.AperFunction,ComponentPad*%
%ADD19O,1.500000X1.500000*%
%TD*%
%TA.AperFunction,SMDPad,CuDef*%
%ADD20RoundRect,0.140000X-0.170000X0.140000X-0.170000X-0.140000X0.170000X-0.140000X0.170000X0.140000X0*%
%TD*%
%TA.AperFunction,SMDPad,CuDef*%
%ADD21RoundRect,0.140000X0.219203X0.021213X0.021213X0.219203X-0.219203X-0.021213X-0.021213X-0.219203X0*%
%TD*%
%TA.AperFunction,SMDPad,CuDef*%
%ADD22RoundRect,0.150000X0.512500X0.150000X-0.512500X0.150000X-0.512500X-0.150000X0.512500X-0.150000X0*%
%TD*%
%TA.AperFunction,SMDPad,CuDef*%
%ADD23RoundRect,0.140000X-0.140000X-0.170000X0.140000X-0.170000X0.140000X0.170000X-0.140000X0.170000X0*%
%TD*%
%TA.AperFunction,SMDPad,CuDef*%
%ADD24RoundRect,0.140000X0.021213X-0.219203X0.219203X-0.021213X-0.021213X0.219203X-0.219203X0.021213X0*%
%TD*%
%TA.AperFunction,SMDPad,CuDef*%
%ADD25RoundRect,0.140000X-0.219203X-0.021213X-0.021213X-0.219203X0.219203X0.021213X0.021213X0.219203X0*%
%TD*%
%TA.AperFunction,SMDPad,CuDef*%
%ADD26RoundRect,0.140000X0.170000X-0.140000X0.170000X0.140000X-0.170000X0.140000X-0.170000X-0.140000X0*%
%TD*%
%TA.AperFunction,SMDPad,CuDef*%
%ADD27RotRect,0.700000X0.200000X315.000000*%
%TD*%
%TA.AperFunction,SMDPad,CuDef*%
%ADD28RotRect,0.200000X0.700000X315.000000*%
%TD*%
%TA.AperFunction,SMDPad,CuDef*%
%ADD29RotRect,2.900000X2.900000X135.000000*%
%TD*%
%TA.AperFunction,SMDPad,CuDef*%
%ADD30RoundRect,0.250000X-0.512652X-0.159099X-0.159099X-0.512652X0.512652X0.159099X0.159099X0.512652X0*%
%TD*%
%TA.AperFunction,SMDPad,CuDef*%
%ADD31RoundRect,0.140000X0.140000X0.170000X-0.140000X0.170000X-0.140000X-0.170000X0.140000X-0.170000X0*%
%TD*%
%TA.AperFunction,SMDPad,CuDef*%
%ADD32RoundRect,0.140000X-0.021213X0.219203X-0.219203X0.021213X0.021213X-0.219203X0.219203X-0.021213X0*%
%TD*%
%TA.AperFunction,SMDPad,CuDef*%
%ADD33O,0.400000X0.900000*%
%TD*%
%TA.AperFunction,SMDPad,CuDef*%
%ADD34RotRect,0.700000X0.200000X45.000000*%
%TD*%
%TA.AperFunction,SMDPad,CuDef*%
%ADD35RotRect,0.200000X0.700000X45.000000*%
%TD*%
%TA.AperFunction,SMDPad,CuDef*%
%ADD36RotRect,2.900000X2.900000X225.000000*%
%TD*%
%TA.AperFunction,SMDPad,CuDef*%
%ADD37RoundRect,0.200000X-0.200000X-0.275000X0.200000X-0.275000X0.200000X0.275000X-0.200000X0.275000X0*%
%TD*%
%TA.AperFunction,SMDPad,CuDef*%
%ADD38RoundRect,0.225000X0.250000X-0.225000X0.250000X0.225000X-0.250000X0.225000X-0.250000X-0.225000X0*%
%TD*%
%TA.AperFunction,SMDPad,CuDef*%
%ADD39RoundRect,0.200000X0.200000X0.275000X-0.200000X0.275000X-0.200000X-0.275000X0.200000X-0.275000X0*%
%TD*%
%TA.AperFunction,SMDPad,CuDef*%
%ADD40RoundRect,0.250000X-0.250000X-0.475000X0.250000X-0.475000X0.250000X0.475000X-0.250000X0.475000X0*%
%TD*%
%TA.AperFunction,SMDPad,CuDef*%
%ADD41RoundRect,0.250000X0.250000X0.475000X-0.250000X0.475000X-0.250000X-0.475000X0.250000X-0.475000X0*%
%TD*%
%TA.AperFunction,ViaPad*%
%ADD42C,0.600000*%
%TD*%
%TA.AperFunction,ViaPad*%
%ADD43C,0.450000*%
%TD*%
%TA.AperFunction,Conductor*%
%ADD44C,0.150000*%
%TD*%
%TA.AperFunction,Conductor*%
%ADD45C,0.200000*%
%TD*%
%TA.AperFunction,Conductor*%
%ADD46C,0.127000*%
%TD*%
G04 APERTURE END LIST*
D10*
%TO.P,U1,1,~{TEST1}_1*%
%TO.N,~{TEST1}*%
X13000000Y-29000000D03*
D11*
%TO.P,U1,2,AIO0_2*%
%TO.N,AIO0*%
X13000000Y-31540000D03*
%TO.P,U1,3,AIO1_3*%
%TO.N,AIO1*%
X13000000Y-34080000D03*
%TO.P,U1,4,AIO2_4*%
%TO.N,AIO2*%
X13000000Y-36620000D03*
%TO.P,U1,5,AIO3_5*%
%TO.N,AIO3*%
X13000000Y-39160000D03*
%TO.P,U1,6,~{PWRF}_6*%
%TO.N,~{PWRF}*%
X13000000Y-41700000D03*
%TO.P,U1,7,~{FPE}_7*%
%TO.N,~{FPE}*%
X13000000Y-44240000D03*
%TO.P,U1,8,~{EVENT}_8*%
%TO.N,~{EVENT}*%
X13000000Y-46780000D03*
%TO.P,U1,9,HALT_9*%
%TO.N,HALT*%
X13000000Y-49320000D03*
%TO.P,U1,10,IRQ0_10*%
%TO.N,IRQ0*%
X13000000Y-51860000D03*
%TO.P,U1,11,IRQ1_11*%
%TO.N,IRQ1*%
X13000000Y-54400000D03*
%TO.P,U1,12,IRQ2_12*%
%TO.N,IRQ2*%
X13000000Y-56940000D03*
%TO.P,U1,13,IRQ3_13*%
%TO.N,IRQ3*%
X13000000Y-59480000D03*
%TO.P,U1,14,~{PARITY}_14*%
%TO.N,~{PARITY}*%
X13000000Y-62020000D03*
%TO.P,U1,15,GND_15*%
%TO.N,GND*%
X13000000Y-64560000D03*
%TO.P,U1,16,VCC_16*%
%TO.N,+5V*%
X13000000Y-67100000D03*
%TO.P,U1,17,BS0_17*%
%TO.N,BS0*%
X13000000Y-69640000D03*
%TO.P,U1,18,BS1_18*%
%TO.N,BS1*%
X13000000Y-72180000D03*
%TO.P,U1,19,~{MAP}_19*%
%TO.N,unconnected-(U1-~{MAP}-Pad19)*%
X13000000Y-74720000D03*
%TO.P,U1,20,~{ABORT}_20*%
%TO.N,~{ABORT}*%
X13000000Y-77260000D03*
%TO.P,U1,21,DAL21_21*%
%TO.N,DAL21*%
X13000000Y-79800000D03*
%TO.P,U1,22,DAL20_22*%
%TO.N,DAL20*%
X13000000Y-82340000D03*
%TO.P,U1,23,DAL19_23*%
%TO.N,DAL19*%
X13000000Y-84880000D03*
%TO.P,U1,24,DAL18_24*%
%TO.N,DAL18*%
X13000000Y-87420000D03*
%TO.P,U1,25,DAL17_25*%
%TO.N,DAL17*%
X13000000Y-89960000D03*
%TO.P,U1,26,DAL16_26*%
%TO.N,DAL16*%
X13000000Y-92500000D03*
%TO.P,U1,27,~{DMR}_27*%
%TO.N,~{DMR}*%
X13000000Y-95040000D03*
%TO.P,U1,28,~{MISS}_28*%
%TO.N,~{MISS}*%
X13000000Y-97580000D03*
%TO.P,U1,29,~{PRDC}_29*%
%TO.N,unconnected-(U1-~{PRDC}-Pad29)*%
X13000000Y-100120000D03*
%TO.P,U1,30,NC_30*%
%TO.N,unconnected-(U1-NC-Pad30)*%
X13000000Y-102660000D03*
%TO.P,U1,31,~{TEST2}_31*%
%TO.N,~{TEST2}*%
X46020000Y-102660000D03*
%TO.P,U1,32,CONT_32*%
%TO.N,CONT*%
X46020000Y-100120000D03*
%TO.P,U1,33,~{INIT}_33*%
%TO.N,~{INIT}*%
X46020000Y-97580000D03*
%TO.P,U1,34,CLK2_34*%
%TO.N,CLK2*%
X46020000Y-95040000D03*
%TO.P,U1,35,CLK_35*%
%TO.N,unconnected-(U1-CLK-Pad35)*%
X46020000Y-92500000D03*
%TO.P,U1,36,XTALI_36*%
%TO.N,XTALI*%
X46020000Y-89960000D03*
%TO.P,U1,37,XTALO_37*%
%TO.N,XTALO*%
X46020000Y-87420000D03*
%TO.P,U1,38,~{SCTL}_38*%
%TO.N,~{SCTL}*%
X46020000Y-84880000D03*
%TO.P,U1,39,~{STRB}_39*%
%TO.N,~{STRB}*%
X46020000Y-82340000D03*
%TO.P,U1,40,~{ALE}_40*%
%TO.N,~{ALE}*%
X46020000Y-79800000D03*
%TO.P,U1,41,~{BUFCTL}_41*%
%TO.N,~{BUFCTL}*%
X46020000Y-77260000D03*
%TO.P,U1,42,DV_42*%
%TO.N,DV*%
X46020000Y-74720000D03*
%TO.P,U1,43,DAL5_43*%
%TO.N,DAL5*%
X46020000Y-72180000D03*
%TO.P,U1,44,DAL4_44*%
%TO.N,DAL4*%
X46020000Y-69640000D03*
%TO.P,U1,45,GND_45*%
%TO.N,GND*%
X46020000Y-67100000D03*
%TO.P,U1,46,VCC_46*%
%TO.N,+5V*%
X46020000Y-64560000D03*
%TO.P,U1,47,DAL3_47*%
%TO.N,DAL3*%
X46020000Y-62020000D03*
%TO.P,U1,48,DAL2_48*%
%TO.N,DAL2*%
X46020000Y-59480000D03*
%TO.P,U1,49,DAL1_49*%
%TO.N,DAL1*%
X46020000Y-56940000D03*
%TO.P,U1,50,DAL15_50*%
%TO.N,DAL15*%
X46020000Y-54400000D03*
%TO.P,U1,51,DAL14_51*%
%TO.N,DAL14*%
X46020000Y-51860000D03*
%TO.P,U1,52,DAL13_52*%
%TO.N,DAL13*%
X46020000Y-49320000D03*
%TO.P,U1,53,DAL12_53*%
%TO.N,DAL12*%
X46020000Y-46780000D03*
%TO.P,U1,54,DAL11_54*%
%TO.N,DAL11*%
X46020000Y-44240000D03*
%TO.P,U1,55,DAL10_55*%
%TO.N,DAL10*%
X46020000Y-41700000D03*
%TO.P,U1,56,DAL9_56*%
%TO.N,DAL9*%
X46020000Y-39160000D03*
%TO.P,U1,57,DAL0_57*%
%TO.N,DAL0*%
X46020000Y-36620000D03*
%TO.P,U1,58,DAL8_58*%
%TO.N,DAL8*%
X46020000Y-34080000D03*
%TO.P,U1,59,DAL7_59*%
%TO.N,DAL7*%
X46020000Y-31540000D03*
%TO.P,U1,60,DAL6_60*%
%TO.N,DAL6*%
X46020000Y-29000000D03*
%TD*%
D12*
%TO.P,P2,1,1_1*%
%TO.N,/ETH_INT*%
X145650000Y-4000000D03*
D13*
%TO.P,P2,2,2_2*%
%TO.N,/ETH_SCS*%
X148190000Y-4000000D03*
%TO.P,P2,3,3_3*%
%TO.N,/ETH_SCLK*%
X150730000Y-4000000D03*
%TO.P,P2,4,4_4*%
%TO.N,/ETH_MOSI*%
X153270000Y-4000000D03*
%TO.P,P2,5,5_5*%
%TO.N,GND*%
X155810000Y-4000000D03*
%TO.P,P2,6,6_6*%
X158350000Y-4000000D03*
%TD*%
D14*
%TO.P,USB3,13,EH_13*%
%TO.N,GND*%
X173086405Y-20124994D03*
D15*
X177286558Y-20124994D03*
D14*
%TO.P,USB3,14,EH_14*%
X173086405Y-11475006D03*
D15*
X177286558Y-11475006D03*
%TD*%
D16*
%TO.P,X1,1,OSC1_1*%
%TO.N,XTALI*%
X54800000Y-91200000D03*
%TO.P,X1,2,OSC2_2*%
%TO.N,XTALO*%
X54800000Y-86320142D03*
%TD*%
D12*
%TO.P,P1,1,1_1*%
%TO.N,/ETH_MISO*%
X145650000Y-24320000D03*
D13*
%TO.P,P1,2,2_2*%
%TO.N,/ETH_RST*%
X148190000Y-24320000D03*
%TO.P,P1,3,3_3*%
%TO.N,unconnected-(P1-Pad3)*%
X150730000Y-24320000D03*
%TO.P,P1,4,4_4*%
%TO.N,unconnected-(P1-Pad4)*%
X153270000Y-24320000D03*
%TO.P,P1,5,5_5*%
%TO.N,+3V3*%
X155810000Y-24320000D03*
%TO.P,P1,6,6_6*%
%TO.N,GND*%
X158350000Y-24320000D03*
%TD*%
D17*
%TO.P,H3,1,1_1*%
%TO.N,GND*%
X175000000Y-115000000D03*
%TD*%
%TO.P,H2,1,1_1*%
%TO.N,GND*%
X5000000Y-5000000D03*
%TD*%
%TO.P,H4,1,1_1*%
%TO.N,GND*%
X175000000Y-5000000D03*
%TD*%
D14*
%TO.P,USB1,13,EH_13*%
%TO.N,GND*%
X173086405Y-107324994D03*
D15*
X177286558Y-107324994D03*
D14*
%TO.P,USB1,14,EH_14*%
X173086405Y-98675006D03*
D15*
X177286558Y-98675006D03*
%TD*%
D18*
%TO.P,H6,1,1_1*%
%TO.N,GND*%
X120420753Y-89800000D03*
D19*
%TO.P,H6,2,2_2*%
%TO.N,/EXTIO0*%
X122960758Y-89800000D03*
%TO.P,H6,3,3_3*%
%TO.N,/EXTIO1*%
X125500763Y-89800000D03*
%TO.P,H6,4,4_4*%
%TO.N,/EXTIO2*%
X128040768Y-89800000D03*
%TO.P,H6,5,5_5*%
%TO.N,/EXTIO3*%
X130580774Y-89800000D03*
%TO.P,H6,6,6_6*%
%TO.N,/IO_TX2*%
X133120779Y-89800000D03*
%TO.P,H6,7,7_7*%
%TO.N,/IO_RX2*%
X135660784Y-89800000D03*
%TO.P,H6,8,8_8*%
%TO.N,+3V3*%
X138200789Y-89800000D03*
%TD*%
D18*
%TO.P,H1,1,1_1*%
%TO.N,/TDI*%
X112509982Y-8797003D03*
D19*
%TO.P,H1,2,2_2*%
%TO.N,/TDO*%
X115049987Y-8797003D03*
%TO.P,H1,3,3_3*%
%TO.N,/TCK*%
X117589992Y-8797003D03*
%TO.P,H1,4,4_4*%
%TO.N,/TMS*%
X120129997Y-8797003D03*
%TO.P,H1,5,5_5*%
%TO.N,+2V5*%
X122670003Y-8797003D03*
%TO.P,H1,6,6_6*%
%TO.N,/IO_TX1*%
X125210008Y-8797003D03*
%TO.P,H1,7,7_7*%
%TO.N,/IO_RX1*%
X127750013Y-8797003D03*
%TO.P,H1,8,8_8*%
%TO.N,GND*%
X130290018Y-8797003D03*
%TD*%
D14*
%TO.P,USB2,13,EH_13*%
%TO.N,GND*%
X173086405Y-89824994D03*
D15*
X177286558Y-89824994D03*
D14*
%TO.P,USB2,14,EH_14*%
X173086405Y-81175006D03*
D15*
X177286558Y-81175006D03*
%TD*%
D17*
%TO.P,H5,1,1_1*%
%TO.N,GND*%
X5000000Y-115000000D03*
%TD*%
D20*
%TO.P,R52,1*%
%TO.N,Net-(U6-VDD)*%
X163225000Y-99875001D03*
%TO.P,R52,2*%
%TO.N,Net-(U6-CFG)*%
X163225000Y-100874999D03*
%TD*%
D21*
%TO.P,C36,1*%
%TO.N,+3V3*%
X124953553Y-60003553D03*
%TO.P,C36,2*%
%TO.N,GND*%
X124246447Y-59296447D03*
%TD*%
%TO.P,C41,1*%
%TO.N,+3V3*%
X120650000Y-65625000D03*
%TO.P,C41,2*%
%TO.N,GND*%
X119942894Y-64917894D03*
%TD*%
D22*
%TO.P,U6,1,VDD_1*%
%TO.N,Net-(U6-VDD)*%
X167100000Y-101300002D03*
%TO.P,U6,2,GND_2*%
%TO.N,GND*%
X167100000Y-102250001D03*
%TO.P,U6,3,~{PG}_3*%
%TO.N,unconnected-(U6-~{PG}-Pad3)*%
X167100000Y-103200000D03*
%TO.P,U6,4,CC1_4*%
%TO.N,/CC1*%
X164825000Y-103200000D03*
%TO.P,U6,5,CC2_5*%
%TO.N,/CC2*%
X164825000Y-102250001D03*
%TO.P,U6,6,CFG_6*%
%TO.N,Net-(U6-CFG)*%
X164825000Y-101300002D03*
%TD*%
D23*
%TO.P,R46,1*%
%TO.N,+3V3*%
X111200002Y-41850000D03*
%TO.P,R46,2*%
%TO.N,/LED_I2C_SCL*%
X112200000Y-41850000D03*
%TD*%
D24*
%TO.P,C27,1*%
%TO.N,+3V3*%
X118096447Y-34753553D03*
%TO.P,C27,2*%
%TO.N,GND*%
X118803553Y-34046447D03*
%TD*%
D20*
%TO.P,R41,1*%
%TO.N,/SD_MISO*%
X76200000Y-101400001D03*
%TO.P,R41,2*%
%TO.N,+3V3*%
X76200000Y-102399999D03*
%TD*%
D25*
%TO.P,C45,1*%
%TO.N,+1V2*%
X113596447Y-58596447D03*
%TO.P,C45,2*%
%TO.N,GND*%
X114303553Y-59303553D03*
%TD*%
D26*
%TO.P,R29,1*%
%TO.N,/TMS*%
X120113005Y-6799999D03*
%TO.P,R29,2*%
%TO.N,+2V5*%
X120113005Y-5800001D03*
%TD*%
D20*
%TO.P,R39,1*%
%TO.N,/SD_CS*%
X91200000Y-101400001D03*
%TO.P,R39,2*%
%TO.N,+3V3*%
X91200000Y-102399999D03*
%TD*%
D24*
%TO.P,R31,1*%
%TO.N,/nSTATUS*%
X120696447Y-55753553D03*
%TO.P,R31,2*%
%TO.N,+3V3*%
X121403553Y-55046447D03*
%TD*%
D27*
%TO.P,U18,1,LED1_1*%
%TO.N,/LED_D0*%
X83361318Y-27400000D03*
%TO.P,U18,2,LED2_2*%
%TO.N,/LED_D1*%
X83644017Y-27117300D03*
%TO.P,U18,3,LED3_3*%
%TO.N,/LED_D2*%
X83926896Y-26834422D03*
%TO.P,U18,4,LED4_4*%
%TO.N,/LED_D3*%
X84209775Y-26551543D03*
%TO.P,U18,5,LED5_5*%
%TO.N,/LED_D4*%
X84492653Y-26268665D03*
%TO.P,U18,6,LED6_6*%
%TO.N,/LED_D5*%
X84775532Y-25985786D03*
%TO.P,U18,7,LED7_7*%
%TO.N,/LED_D6*%
X85058231Y-25703087D03*
%TO.P,U18,8,LED8_8*%
%TO.N,/LED_D7*%
X85341110Y-25420208D03*
D28*
%TO.P,U18,9,LED9_9*%
%TO.N,/LED_D8*%
X86270208Y-25420029D03*
%TO.P,U18,10,LED10_10*%
%TO.N,/LED_D9*%
X86553087Y-25702907D03*
%TO.P,U18,11,LED11_11*%
%TO.N,/LED_D10*%
X86835966Y-25985786D03*
%TO.P,U18,12,LED12_12*%
%TO.N,/LED_D11*%
X87118845Y-26268665D03*
%TO.P,U18,13,LED13_13*%
%TO.N,/LED_D12*%
X87401543Y-26551363D03*
%TO.P,U18,14,LED14_14*%
%TO.N,/LED_D13*%
X87684422Y-26834242D03*
%TO.P,U18,15,LED15_15*%
%TO.N,/LED_D14*%
X87967301Y-27117121D03*
%TO.P,U18,16,LED16_16*%
%TO.N,/LED_D15*%
X88250179Y-27400000D03*
D27*
%TO.P,U18,17,LED17_17*%
%TO.N,unconnected-(U18-LED17-Pad17)*%
X88250000Y-28329098D03*
%TO.P,U18,18,LED18_18*%
%TO.N,unconnected-(U18-LED18-Pad18)*%
X87967121Y-28611977D03*
%TO.P,U18,19,LED19_19*%
%TO.N,unconnected-(U18-LED19-Pad19)*%
X87684422Y-28894676D03*
%TO.P,U18,20,LED20_20*%
%TO.N,unconnected-(U18-LED20-Pad20)*%
X87401543Y-29177555D03*
%TO.P,U18,21,LED21_21*%
%TO.N,unconnected-(U18-LED21-Pad21)*%
X87118665Y-29460433D03*
%TO.P,U18,22,LED22_22*%
%TO.N,unconnected-(U18-LED22-Pad22)*%
X86835786Y-29743312D03*
%TO.P,U18,23,LED23_23*%
%TO.N,unconnected-(U18-LED23-Pad23)*%
X86552908Y-30026191D03*
%TO.P,U18,24,LED24_24*%
%TO.N,unconnected-(U18-LED24-Pad24)*%
X86270208Y-30308890D03*
D28*
%TO.P,U18,25,AD0_25*%
%TO.N,GND*%
X85341110Y-30309069D03*
%TO.P,U18,26,AD1_26*%
%TO.N,+3V3*%
X85058231Y-30026191D03*
%TO.P,U18,27,VDD_27*%
X84775352Y-29743312D03*
%TO.P,U18,28,SDA_28*%
%TO.N,/LED_I2C_SDA*%
X84492473Y-29460433D03*
%TO.P,U18,29,SCL_29*%
%TO.N,/LED_I2C_SCL*%
X84209775Y-29177735D03*
%TO.P,U18,30,EN_30*%
%TO.N,/LED_DATA_EN*%
X83926896Y-28894856D03*
%TO.P,U18,31,ISET_31*%
%TO.N,Net-(U18-ISET)*%
X83644017Y-28611977D03*
%TO.P,U18,32,NC_32*%
%TO.N,unconnected-(U18-NC-Pad32)*%
X83361139Y-28329098D03*
D29*
%TO.P,U18,33,GND_33*%
%TO.N,GND*%
X85805928Y-27864280D03*
%TD*%
D23*
%TO.P,C26,1*%
%TO.N,+3V3*%
X83600000Y-101300000D03*
%TO.P,C26,2*%
%TO.N,GND*%
X84600000Y-101300000D03*
%TD*%
D24*
%TO.P,C58,1*%
%TO.N,+1V2*%
X115046447Y-51528553D03*
%TO.P,C58,2*%
%TO.N,GND*%
X115753553Y-50821447D03*
%TD*%
D30*
%TO.P,C59,1*%
%TO.N,+3V3*%
X116528249Y-75723224D03*
%TO.P,C59,2*%
%TO.N,GND*%
X117871751Y-77066726D03*
%TD*%
D31*
%TO.P,R47,1*%
%TO.N,+3V3*%
X115049999Y-41850000D03*
%TO.P,R47,2*%
%TO.N,/LED_I2C_SDA*%
X114050001Y-41850000D03*
%TD*%
D23*
%TO.P,C33,1*%
%TO.N,+3V3*%
X150975000Y-50625000D03*
%TO.P,C33,2*%
%TO.N,GND*%
X151975000Y-50625000D03*
%TD*%
D21*
%TO.P,C35,1*%
%TO.N,+3V3*%
X114350000Y-70600000D03*
%TO.P,C35,2*%
%TO.N,GND*%
X113642894Y-69892894D03*
%TD*%
D24*
%TO.P,R33,1*%
%TO.N,/nCONFIG*%
X121396447Y-56453553D03*
%TO.P,R33,2*%
%TO.N,+3V3*%
X122103553Y-55746447D03*
%TD*%
D21*
%TO.P,C42,1*%
%TO.N,+3V3*%
X110103553Y-53653553D03*
%TO.P,C42,2*%
%TO.N,GND*%
X109396447Y-52946447D03*
%TD*%
D24*
%TO.P,C54,1*%
%TO.N,+2V5*%
X105850000Y-60696447D03*
%TO.P,C54,2*%
%TO.N,GND*%
X106557106Y-59989341D03*
%TD*%
%TO.P,C57,1*%
%TO.N,+1V2*%
X115746447Y-69200000D03*
%TO.P,C57,2*%
%TO.N,GND*%
X116453553Y-68492894D03*
%TD*%
%TO.P,C40,1*%
%TO.N,+3V3*%
X120725000Y-54400000D03*
%TO.P,C40,2*%
%TO.N,GND*%
X121432106Y-53692894D03*
%TD*%
D20*
%TO.P,R40,1*%
%TO.N,/SD_MOSI*%
X88600000Y-101350001D03*
%TO.P,R40,2*%
%TO.N,+3V3*%
X88600000Y-102349999D03*
%TD*%
D24*
%TO.P,C44,1*%
%TO.N,+1V2*%
X113592894Y-61457106D03*
%TO.P,C44,2*%
%TO.N,GND*%
X114300000Y-60750000D03*
%TD*%
D23*
%TO.P,C4,1*%
%TO.N,Net-(U7-BOOT)*%
X154000000Y-105600000D03*
%TO.P,C4,2*%
%TO.N,Net-(U7-SW)*%
X155000000Y-105600000D03*
%TD*%
D32*
%TO.P,C63,1*%
%TO.N,+3V3*%
X153653553Y-31396447D03*
%TO.P,C63,2*%
%TO.N,GND*%
X152946447Y-32103553D03*
%TD*%
D25*
%TO.P,C39,1*%
%TO.N,+3V3*%
X110796447Y-68446447D03*
%TO.P,C39,2*%
%TO.N,GND*%
X111503553Y-69153553D03*
%TD*%
%TO.P,C67,1*%
%TO.N,+3V3*%
X151296447Y-30846447D03*
%TO.P,C67,2*%
%TO.N,GND*%
X152003553Y-31553553D03*
%TD*%
D24*
%TO.P,C55,1*%
%TO.N,+1V2*%
X107242894Y-59307106D03*
%TO.P,C55,2*%
%TO.N,GND*%
X107950000Y-58600000D03*
%TD*%
D21*
%TO.P,C51,1*%
%TO.N,+2V5*%
X121407106Y-59307106D03*
%TO.P,C51,2*%
%TO.N,GND*%
X120700000Y-58600000D03*
%TD*%
D33*
%TO.P,R43,1*%
%TO.N,/LED_READ*%
X39300000Y-11900000D03*
%TO.P,R43,2*%
%TO.N,/LED_WRITE*%
X40100000Y-11900000D03*
%TO.P,R43,3*%
%TO.N,/LED_INACK*%
X40900000Y-11900000D03*
%TO.P,R43,4*%
%TO.N,/LED_IOSPACE*%
X41700000Y-11900000D03*
%TO.P,R43,5*%
%TO.N,Net-(LED49-A)*%
X41700000Y-13600000D03*
%TO.P,R43,6*%
%TO.N,Net-(LED10-A)*%
X40900000Y-13600000D03*
%TO.P,R43,7*%
%TO.N,Net-(LED9-A)*%
X40100000Y-13600000D03*
%TO.P,R43,8*%
%TO.N,Net-(LED8-A)*%
X39300000Y-13600000D03*
%TD*%
D34*
%TO.P,U19,1,LED1_1*%
%TO.N,/LED_A0*%
X114089567Y-34881155D03*
%TO.P,U19,2,LED2_2*%
%TO.N,/LED_A1*%
X113806867Y-34598456D03*
%TO.P,U19,3,LED3_3*%
%TO.N,/LED_A2*%
X113523989Y-34315577D03*
%TO.P,U19,4,LED4_4*%
%TO.N,/LED_A3*%
X113241110Y-34032698D03*
%TO.P,U19,5,LED5_5*%
%TO.N,/LED_A4*%
X112958232Y-33749820D03*
%TO.P,U19,6,LED6_6*%
%TO.N,/LED_A5*%
X112675353Y-33466941D03*
%TO.P,U19,7,LED7_7*%
%TO.N,/LED_A6*%
X112392654Y-33184242D03*
%TO.P,U19,8,LED8_8*%
%TO.N,/LED_A7*%
X112109775Y-32901363D03*
D35*
%TO.P,U19,9,LED9_9*%
%TO.N,/LED_A8*%
X112109596Y-31972265D03*
%TO.P,U19,10,LED10_10*%
%TO.N,/LED_A9*%
X112392474Y-31689386D03*
%TO.P,U19,11,LED11_11*%
%TO.N,/LED_A10*%
X112675353Y-31406507D03*
%TO.P,U19,12,LED12_12*%
%TO.N,/LED_A11*%
X112958232Y-31123628D03*
%TO.P,U19,13,LED13_13*%
%TO.N,/LED_A12*%
X113240930Y-30840930D03*
%TO.P,U19,14,LED14_14*%
%TO.N,/LED_A13*%
X113523809Y-30558051D03*
%TO.P,U19,15,LED15_15*%
%TO.N,/LED_A14*%
X113806688Y-30275172D03*
%TO.P,U19,16,LED16_16*%
%TO.N,/LED_A15*%
X114089567Y-29992294D03*
D34*
%TO.P,U19,17,LED17_17*%
%TO.N,/LED_A16*%
X115018665Y-29992473D03*
%TO.P,U19,18,LED18_18*%
%TO.N,/LED_A17*%
X115301544Y-30275352D03*
%TO.P,U19,19,LED19_19*%
%TO.N,/LED_A18*%
X115584243Y-30558051D03*
%TO.P,U19,20,LED20_20*%
%TO.N,/LED_A19*%
X115867122Y-30840930D03*
%TO.P,U19,21,LED21_21*%
%TO.N,/LED_A20*%
X116150000Y-31123808D03*
%TO.P,U19,22,LED22_22*%
%TO.N,/LED_A21*%
X116432879Y-31406687D03*
%TO.P,U19,23,LED23_23*%
%TO.N,unconnected-(U19-LED23-Pad23)*%
X116715758Y-31689565D03*
%TO.P,U19,24,LED24_24*%
%TO.N,unconnected-(U19-LED24-Pad24)*%
X116998457Y-31972265D03*
D35*
%TO.P,U19,25,AD0_25*%
%TO.N,GND*%
X116998636Y-32901363D03*
%TO.P,U19,26,AD1_26*%
X116715758Y-33184242D03*
%TO.P,U19,27,VDD_27*%
%TO.N,+3V3*%
X116432879Y-33467121D03*
%TO.P,U19,28,SDA_28*%
%TO.N,/LED_I2C_SDA*%
X116150000Y-33750000D03*
%TO.P,U19,29,SCL_29*%
%TO.N,/LED_I2C_SCL*%
X115867302Y-34032698D03*
%TO.P,U19,30,EN_30*%
%TO.N,/LED_ADDR_EN*%
X115584423Y-34315577D03*
%TO.P,U19,31,ISET_31*%
%TO.N,Net-(U19-ISET)*%
X115301544Y-34598456D03*
%TO.P,U19,32,NC_32*%
%TO.N,unconnected-(U19-NC-Pad32)*%
X115018665Y-34881334D03*
D36*
%TO.P,U19,33,GND_33*%
%TO.N,GND*%
X114553847Y-32436545D03*
%TD*%
D37*
%TO.P,R1,1*%
%TO.N,Net-(U6-VDD)*%
X167614997Y-99735002D03*
%TO.P,R1,2*%
%TO.N,VCC*%
X169254999Y-99735002D03*
%TD*%
D26*
%TO.P,R30,1*%
%TO.N,/TDI*%
X112513005Y-6800000D03*
%TO.P,R30,2*%
%TO.N,+2V5*%
X112513005Y-5800002D03*
%TD*%
D38*
%TO.P,C1,1*%
%TO.N,GND*%
X168800000Y-102880000D03*
%TO.P,C1,2*%
%TO.N,Net-(U6-VDD)*%
X168800000Y-101320000D03*
%TD*%
D39*
%TO.P,R51,1*%
%TO.N,GND*%
X176520001Y-87300000D03*
%TO.P,R51,2*%
%TO.N,Net-(USB2-CC1)*%
X174879999Y-87300000D03*
%TD*%
%TO.P,R56,1*%
%TO.N,GND*%
X176570001Y-17050000D03*
%TO.P,R56,2*%
%TO.N,Net-(USB3-CC1)*%
X174929999Y-17050000D03*
%TD*%
D31*
%TO.P,R28,1*%
%TO.N,/TCK*%
X117613004Y-6800000D03*
%TO.P,R28,2*%
%TO.N,GND*%
X116613006Y-6800000D03*
%TD*%
D24*
%TO.P,C65,1*%
%TO.N,+3V3*%
X150346447Y-34453553D03*
%TO.P,C65,2*%
%TO.N,GND*%
X151053553Y-33746447D03*
%TD*%
D21*
%TO.P,C69,1*%
%TO.N,+1V1*%
X154653553Y-33853553D03*
%TO.P,C69,2*%
%TO.N,GND*%
X153946447Y-33146447D03*
%TD*%
D25*
%TO.P,C64,1*%
%TO.N,+3V3*%
X150446447Y-31646447D03*
%TO.P,C64,2*%
%TO.N,GND*%
X151153553Y-32353553D03*
%TD*%
D23*
%TO.P,C47,1*%
%TO.N,+3V3*%
X86250000Y-31500000D03*
%TO.P,C47,2*%
%TO.N,GND*%
X87250000Y-31500000D03*
%TD*%
D32*
%TO.P,C46,1*%
%TO.N,+1V2*%
X116507106Y-58592894D03*
%TO.P,C46,2*%
%TO.N,GND*%
X115800000Y-59300000D03*
%TD*%
D33*
%TO.P,R42,1*%
%TO.N,/LED_RUN*%
X18300000Y-12200000D03*
%TO.P,R42,2*%
%TO.N,/LED_HALT*%
X19100000Y-12200000D03*
%TO.P,R42,3*%
%TO.N,/LED_ABORT*%
X19900000Y-12200000D03*
%TO.P,R42,4*%
%TO.N,/LED_FETCH*%
X20700000Y-12200000D03*
%TO.P,R42,5*%
%TO.N,Net-(LED7-A)*%
X20700000Y-13900000D03*
%TO.P,R42,6*%
%TO.N,Net-(LED6-A)*%
X19900000Y-13900000D03*
%TO.P,R42,7*%
%TO.N,Net-(LED2-A)*%
X19100000Y-13900000D03*
%TO.P,R42,8*%
%TO.N,Net-(LED1-A)*%
X18300000Y-13900000D03*
%TD*%
D21*
%TO.P,C43,1*%
%TO.N,+1V2*%
X116507106Y-61457106D03*
%TO.P,C43,2*%
%TO.N,GND*%
X115800000Y-60750000D03*
%TD*%
D32*
%TO.P,R44,1*%
%TO.N,Net-(U19-ISET)*%
X115253553Y-36046447D03*
%TO.P,R44,2*%
%TO.N,GND*%
X114546447Y-36753553D03*
%TD*%
D37*
%TO.P,R50,1*%
%TO.N,Net-(USB2-CC2)*%
X174929999Y-83700000D03*
%TO.P,R50,2*%
%TO.N,GND*%
X176570001Y-83700000D03*
%TD*%
%TO.P,R3,1*%
%TO.N,/CC2*%
X175499999Y-101260000D03*
%TO.P,R3,2*%
%TO.N,GND*%
X177140001Y-101260000D03*
%TD*%
D21*
%TO.P,C37,1*%
%TO.N,+3V3*%
X104453553Y-59328553D03*
%TO.P,C37,2*%
%TO.N,GND*%
X103746447Y-58621447D03*
%TD*%
D25*
%TO.P,C53,1*%
%TO.N,+2V5*%
X114357106Y-69146447D03*
%TO.P,C53,2*%
%TO.N,GND*%
X115064212Y-69853553D03*
%TD*%
%TO.P,C70,1*%
%TO.N,+1V1*%
X149646447Y-32346447D03*
%TO.P,C70,2*%
%TO.N,GND*%
X150353553Y-33053553D03*
%TD*%
D40*
%TO.P,C50,1*%
%TO.N,+1V2*%
X116450001Y-80050000D03*
%TO.P,C50,2*%
%TO.N,GND*%
X118349999Y-80050000D03*
%TD*%
D41*
%TO.P,C49,1*%
%TO.N,+2V5*%
X113499999Y-80050000D03*
%TO.P,C49,2*%
%TO.N,GND*%
X111600001Y-80050000D03*
%TD*%
D37*
%TO.P,R2,1*%
%TO.N,/CC1*%
X175499999Y-104250000D03*
%TO.P,R2,2*%
%TO.N,GND*%
X177140001Y-104250000D03*
%TD*%
D26*
%TO.P,R45,1*%
%TO.N,Net-(U18-ISET)*%
X82150000Y-28749999D03*
%TO.P,R45,2*%
%TO.N,GND*%
X82150000Y-27750001D03*
%TD*%
D25*
%TO.P,C52,1*%
%TO.N,+2V5*%
X115775000Y-52200000D03*
%TO.P,C52,2*%
%TO.N,GND*%
X116482106Y-52907106D03*
%TD*%
D21*
%TO.P,C68,1*%
%TO.N,+3V3*%
X153903553Y-34603553D03*
%TO.P,C68,2*%
%TO.N,GND*%
X153196447Y-33896447D03*
%TD*%
D39*
%TO.P,R57,1*%
%TO.N,GND*%
X176570001Y-14050000D03*
%TO.P,R57,2*%
%TO.N,Net-(USB3-CC2)*%
X174929999Y-14050000D03*
%TD*%
D25*
%TO.P,R32,1*%
%TO.N,/CONF_DONE*%
X109400000Y-64250000D03*
%TO.P,R32,2*%
%TO.N,+3V3*%
X110107106Y-64957106D03*
%TD*%
D23*
%TO.P,C34,1*%
%TO.N,+3V3*%
X150950000Y-69925000D03*
%TO.P,C34,2*%
%TO.N,GND*%
X151950000Y-69925000D03*
%TD*%
D32*
%TO.P,C38,1*%
%TO.N,+3V3*%
X114353553Y-49396447D03*
%TO.P,C38,2*%
%TO.N,GND*%
X113646447Y-50103553D03*
%TD*%
D24*
%TO.P,C66,1*%
%TO.N,+3V3*%
X151446447Y-35603553D03*
%TO.P,C66,2*%
%TO.N,GND*%
X152153553Y-34896447D03*
%TD*%
D25*
%TO.P,C56,1*%
%TO.N,+1V2*%
X123500000Y-60025000D03*
%TO.P,C56,2*%
%TO.N,GND*%
X124207106Y-60732106D03*
%TD*%
D42*
%TO.N,+5V*%
X143883333Y-107850000D03*
X58650000Y-107850000D03*
D43*
X17640000Y-95040000D03*
D42*
X145550000Y-107850000D03*
D43*
X17640000Y-44240000D03*
D42*
X134700000Y-100350000D03*
X54225000Y-107850000D03*
D43*
X152900000Y-100275000D03*
X17640000Y-62020000D03*
X19100000Y-108200000D03*
X36900000Y-107850000D03*
X41359998Y-74720000D03*
X17640000Y-41700000D03*
X17640000Y-29000000D03*
D42*
X148200000Y-105050000D03*
D43*
X17640000Y-96275000D03*
D42*
X142216667Y-107850000D03*
D43*
X41359998Y-102660000D03*
%TO.N,+3V3*%
X120650000Y-65625000D03*
X119050000Y-19200001D03*
X150975001Y-50625000D03*
X170300000Y-50560000D03*
X120725000Y-54400000D03*
X100900000Y-19200001D03*
X106050000Y-19200001D03*
X123525000Y-57191591D03*
X46511023Y-110781821D03*
X90650000Y-9900001D03*
X171901806Y-28200000D03*
X108000000Y-62848409D03*
X122825000Y-63555534D03*
X117875000Y-51525000D03*
X77700000Y-9900001D03*
X85525000Y-31475000D03*
X126300000Y-60020000D03*
X159554507Y-12390842D03*
X100500000Y-58900000D03*
X85879999Y-86100000D03*
X129675001Y-32900000D03*
X122103553Y-55746447D03*
X115050000Y-48700000D03*
X67250000Y-9900001D03*
D42*
X125695000Y-106025000D03*
X127695000Y-104025000D03*
D43*
X156700000Y-89400000D03*
X100100000Y-99650000D03*
X151296447Y-30846447D03*
X110107106Y-64957106D03*
X150446447Y-31646447D03*
X90400000Y-102400000D03*
X132099998Y-25300000D03*
X115757501Y-75000000D03*
X105875000Y-62141320D03*
X159100000Y-91300000D03*
X80450000Y-19200001D03*
X150346447Y-34453553D03*
X119975000Y-66350000D03*
X114342552Y-45142552D03*
X162250000Y-38800000D03*
X83600000Y-100700000D03*
X67150000Y-19200001D03*
X117546447Y-34196447D03*
X71599999Y-75900000D03*
X110100000Y-66350000D03*
D42*
X158484998Y-94350000D03*
D43*
X71599999Y-30400000D03*
X124953553Y-60003553D03*
X105875000Y-57900000D03*
X71599999Y-41775000D03*
X117171320Y-69175000D03*
X114342731Y-49375000D03*
X71599999Y-53150000D03*
X116464214Y-50100000D03*
X110807359Y-68450000D03*
X106575000Y-55775000D03*
X104450000Y-59325000D03*
X170380000Y-69920000D03*
X121400000Y-65000000D03*
D42*
X126695000Y-105025000D03*
D43*
X151446447Y-35603553D03*
X104475000Y-60725000D03*
X115050000Y-40600000D03*
X114350000Y-70600000D03*
X115757124Y-70600000D03*
X72350000Y-19200001D03*
X153653553Y-31396447D03*
X153903553Y-34603553D03*
X47150000Y-20901806D03*
X99748094Y-76062099D03*
X112928680Y-69175000D03*
X14000000Y-20901806D03*
X134600000Y-36199999D03*
X119292641Y-52975000D03*
X103750000Y-9900001D03*
X30350000Y-20901806D03*
D42*
X127695000Y-106025000D03*
D43*
X103025000Y-59300000D03*
X125625000Y-60727269D03*
X147300000Y-43250000D03*
X111650000Y-41050000D03*
X134100000Y-23700000D03*
X112225000Y-48700000D03*
X124950000Y-58605786D03*
X152150000Y-29500000D03*
X122825000Y-62141141D03*
X130250000Y-60725000D03*
X121403553Y-55046447D03*
X108725000Y-55050000D03*
X110100450Y-53650000D03*
X111514466Y-52225000D03*
X118585534Y-67775000D03*
X150950001Y-69925000D03*
X71599999Y-64525000D03*
X146499097Y-85700000D03*
D42*
X125695000Y-104025000D03*
D43*
X76900000Y-102399999D03*
%TO.N,GND*%
X80100000Y-30100000D03*
X37000000Y-110600000D03*
X28550000Y-41650000D03*
D42*
X160050000Y-100950000D03*
D43*
X70600001Y-75900000D03*
X149500000Y-8050000D03*
X163100000Y-83700000D03*
X73300000Y-94050000D03*
X168500000Y-62250000D03*
X162000000Y-109150000D03*
X113650000Y-48700000D03*
X173500000Y-49700000D03*
X77500000Y-28500000D03*
X25600000Y-100850000D03*
X111525000Y-67775000D03*
X154900000Y-82400000D03*
X135850000Y-68100000D03*
X104900000Y-4500000D03*
X172900000Y-44700000D03*
X162350000Y-70900000D03*
X116500000Y-60020000D03*
X119750000Y-34650000D03*
X123850000Y-68400000D03*
X115050000Y-75700000D03*
X91500000Y-92800000D03*
X159150000Y-52750000D03*
X109393343Y-54325000D03*
X46850000Y-18900000D03*
X150800000Y-55300000D03*
X115050197Y-45850000D03*
X63100000Y-39200000D03*
X159800000Y-30600000D03*
X161750000Y-68800000D03*
X17640000Y-59480000D03*
X131450000Y-73550000D03*
X124250000Y-56484484D03*
X170950000Y-102200000D03*
X155800000Y-40900000D03*
X37300000Y-98500000D03*
X75200000Y-86400000D03*
X78850000Y-110550000D03*
X80150000Y-13850000D03*
X115049856Y-61425000D03*
X110200000Y-32700000D03*
X176300000Y-56800000D03*
X69850000Y-63150000D03*
X150950000Y-41100000D03*
X85805928Y-27864280D03*
X116550000Y-40650000D03*
X144550000Y-34050000D03*
X131050000Y-60020000D03*
X159000000Y-32950000D03*
X165950000Y-44350000D03*
X115050000Y-60020000D03*
X129150000Y-86900000D03*
X95698883Y-103900000D03*
X114050000Y-36200000D03*
X115049856Y-69875000D03*
X74750000Y-91750000D03*
X115350000Y-37200000D03*
D42*
X151250000Y-103725000D03*
D43*
X110807359Y-51525000D03*
X124100000Y-40900000D03*
X95200000Y-96300000D03*
X102600000Y-30300000D03*
X24350000Y-86200000D03*
X120700000Y-67075000D03*
X148000000Y-44450000D03*
X87350000Y-41400000D03*
D42*
X117650000Y-108650000D03*
D43*
X130450000Y-71750000D03*
X154350000Y-53800000D03*
X116482106Y-52907106D03*
X67650000Y-41400000D03*
X102000000Y-81025000D03*
D42*
X122370000Y-100525000D03*
D43*
X52500000Y-85120000D03*
X90376269Y-82900000D03*
X176520001Y-85500000D03*
X133100000Y-68000000D03*
X115050000Y-44375000D03*
X122650000Y-71700000D03*
X133000000Y-116100000D03*
X8200000Y-84400000D03*
X133950000Y-69050000D03*
X149050000Y-93450000D03*
D42*
X145258333Y-100750000D03*
D43*
X123525000Y-64262641D03*
X150850000Y-18200000D03*
X149645000Y-16205000D03*
X91700000Y-72300000D03*
X134450000Y-57350000D03*
D42*
X134175000Y-105400000D03*
D43*
X118350000Y-78550000D03*
X103750000Y-58605769D03*
X113646447Y-50103553D03*
X105650000Y-50100000D03*
X114303553Y-59303553D03*
D42*
X135175000Y-105400000D03*
D43*
X161250000Y-13150000D03*
X123525000Y-62850000D03*
X141100000Y-113150000D03*
X78000000Y-96000000D03*
X90300000Y-29950000D03*
X167300000Y-35650000D03*
X133800000Y-17150000D03*
X76350000Y-73350000D03*
X51700000Y-11300000D03*
X78618872Y-100700000D03*
X168300000Y-78900000D03*
X130750000Y-84950000D03*
X146550000Y-44500000D03*
X119942894Y-64917894D03*
X75750000Y-53400000D03*
X156750000Y-54850000D03*
X120675000Y-60025000D03*
X156800000Y-76400000D03*
X114553847Y-32436545D03*
X69750000Y-82750000D03*
D42*
X146741667Y-99743175D03*
D43*
X108675000Y-53655842D03*
X155950000Y-90050000D03*
X57800000Y-91450000D03*
X68300000Y-78000000D03*
X115757107Y-48000000D03*
X101900000Y-66400000D03*
X104300000Y-114700000D03*
X151975000Y-50625000D03*
D42*
X130950000Y-23650000D03*
D43*
X65800000Y-72400000D03*
X115753553Y-50821447D03*
X176570001Y-15450000D03*
X62550000Y-30650000D03*
X52437500Y-115000000D03*
X154400000Y-76400000D03*
X70600001Y-41775000D03*
D42*
X163612799Y-94378194D03*
D43*
X118200000Y-33550000D03*
X95600000Y-29550000D03*
X33000000Y-30200000D03*
X168800000Y-60650000D03*
X167350000Y-62900000D03*
X156550000Y-27250000D03*
X49832627Y-92093159D03*
X23650000Y-30400000D03*
X98975000Y-84000000D03*
X132400000Y-58950000D03*
X157950000Y-53750000D03*
X177140001Y-103200000D03*
X82900000Y-27850000D03*
D42*
X119403333Y-100475000D03*
D43*
X75900000Y-65150000D03*
X103050000Y-86400000D03*
X159850000Y-41200000D03*
X135905000Y-35200000D03*
D42*
X145258333Y-99750000D03*
D43*
X153700000Y-55050000D03*
X105150000Y-62848427D03*
X102100000Y-43100000D03*
X92600000Y-63900000D03*
X103650000Y-93550000D03*
X154750000Y-37650000D03*
X9300000Y-96200000D03*
X100512500Y-82512500D03*
X162400000Y-47450000D03*
X120400000Y-114050000D03*
X177140001Y-102375000D03*
X15850000Y-48100000D03*
D42*
X148225000Y-99800000D03*
D43*
X113600000Y-60020000D03*
X117878427Y-69875000D03*
X65500000Y-30000000D03*
X52550000Y-92460000D03*
X153196447Y-33896447D03*
X127075000Y-59312893D03*
X124207106Y-60732106D03*
X114300000Y-60750000D03*
X146550000Y-45550000D03*
X26200000Y-53200000D03*
X64700000Y-84950000D03*
X129100000Y-70550000D03*
X107950000Y-58600000D03*
X139750000Y-26450000D03*
X82400000Y-105350000D03*
D42*
X21550000Y-106750000D03*
D43*
X78250000Y-61700000D03*
X26050000Y-72950000D03*
X105850000Y-56484628D03*
X122100000Y-54363343D03*
X137850000Y-52450000D03*
X115800000Y-59300000D03*
X133550000Y-58950000D03*
X126350000Y-61434375D03*
X170500000Y-68700000D03*
X70598806Y-115852673D03*
D42*
X134175000Y-106400000D03*
X55300000Y-101625000D03*
D43*
X135700000Y-61000000D03*
X152000000Y-9950000D03*
X114450000Y-37950000D03*
D42*
X57550000Y-101625000D03*
X114070000Y-98175000D03*
X146741667Y-100743175D03*
D43*
X158000000Y-43000000D03*
D42*
X120886667Y-99468175D03*
D43*
X99112341Y-82116085D03*
X108600000Y-45450000D03*
X109393343Y-67050000D03*
X85700000Y-78900000D03*
X122100000Y-65675000D03*
X152153553Y-34896447D03*
D42*
X163612799Y-96481807D03*
X143775000Y-99750000D03*
D43*
X112221573Y-69900000D03*
X160300000Y-51750000D03*
D42*
X116166667Y-108593175D03*
D43*
X125650000Y-56475000D03*
X120850000Y-72300000D03*
X69850000Y-70150000D03*
X150960000Y-45560000D03*
X105900000Y-71000000D03*
X118585372Y-50825000D03*
X63200000Y-61750000D03*
X161650000Y-70450000D03*
X135300000Y-53050000D03*
X150353553Y-33053553D03*
X119999747Y-52225000D03*
X97100000Y-79000000D03*
X117900000Y-60020000D03*
X126350000Y-51000000D03*
X137650000Y-60150000D03*
X58750000Y-61700000D03*
X120700000Y-58600000D03*
X123500000Y-95350000D03*
X75200000Y-30500000D03*
X49575000Y-86500000D03*
X57500000Y-115400000D03*
X105900000Y-104100000D03*
X34650000Y-68500000D03*
X127450000Y-73300000D03*
X68150000Y-44950000D03*
X116453553Y-68492894D03*
D42*
X88150000Y-31500000D03*
D43*
X174400000Y-86250000D03*
X7000000Y-55500000D03*
D42*
X156925000Y-97559998D03*
D43*
X161000000Y-49200000D03*
X62800000Y-52950000D03*
X71650000Y-25950000D03*
X86150000Y-57400000D03*
X129850000Y-71100000D03*
X170400000Y-49300000D03*
D42*
X148225000Y-100800000D03*
D43*
X70600001Y-30400000D03*
X122100000Y-57191735D03*
X111475000Y-48025000D03*
X89700000Y-95500000D03*
X91250000Y-6350000D03*
X97212500Y-82362500D03*
X82900000Y-14550000D03*
X106557106Y-59989341D03*
X137300000Y-68200000D03*
X146550000Y-69800000D03*
X10200000Y-24700000D03*
D42*
X113200000Y-108600000D03*
D43*
X160300000Y-114450000D03*
X107300000Y-63555534D03*
X155600000Y-77100000D03*
X155600000Y-55600000D03*
X70600001Y-64525000D03*
X33750000Y-60250000D03*
X110807574Y-65675000D03*
D42*
X159000000Y-100950000D03*
D43*
X62850000Y-75200000D03*
X107350000Y-16050000D03*
X57400000Y-51600000D03*
X115800000Y-60750000D03*
X19450000Y-22900000D03*
X102900000Y-73100000D03*
X65350000Y-24200000D03*
X77050000Y-105700000D03*
X67100000Y-52800000D03*
X25200000Y-94950000D03*
X17640000Y-56940000D03*
X167750000Y-90700000D03*
D42*
X143775000Y-100750000D03*
D43*
X67600000Y-105300000D03*
X100175000Y-60725000D03*
X49425000Y-90800000D03*
X123800000Y-38900000D03*
X163600000Y-46350000D03*
X162650000Y-68450000D03*
X152550000Y-73750000D03*
X102325000Y-60025000D03*
X148050000Y-45500000D03*
X82750000Y-42700000D03*
X131800000Y-94200000D03*
X56550000Y-64700000D03*
X140750000Y-31150000D03*
X72100000Y-101352800D03*
X67650000Y-59200000D03*
X133500000Y-57350000D03*
X151053553Y-33746447D03*
X65850000Y-83800000D03*
D42*
X152250000Y-103700000D03*
D43*
X42450000Y-93100000D03*
X171200000Y-103000000D03*
X59250000Y-82700000D03*
X138100000Y-113050000D03*
X59000000Y-28800000D03*
X154050000Y-28050000D03*
X165850000Y-10450000D03*
X32000000Y-114800000D03*
D42*
X122370000Y-99525000D03*
X120886667Y-100468175D03*
D43*
X60150000Y-87600000D03*
X49550000Y-26750000D03*
X163100000Y-34650000D03*
X105200000Y-42000000D03*
X146950000Y-9350000D03*
X115049856Y-58600000D03*
X47900000Y-24200000D03*
X66350000Y-94800000D03*
X103750000Y-61434231D03*
X35400000Y-55550000D03*
X132000000Y-61900000D03*
X125950000Y-72400000D03*
X99000359Y-77424847D03*
X153300000Y-53700000D03*
X65800000Y-38300000D03*
X85800000Y-30750000D03*
X154200000Y-40800000D03*
X143050000Y-35350000D03*
D42*
X114683333Y-108600000D03*
D43*
X131500000Y-61150000D03*
X125750000Y-69750000D03*
X169850000Y-111100000D03*
X110807106Y-55807106D03*
X152671447Y-34421447D03*
X167900000Y-20100000D03*
X129200000Y-72650000D03*
X95475000Y-80625000D03*
X116464231Y-71275000D03*
X130950000Y-61900000D03*
X60800000Y-23600000D03*
X112900000Y-116250000D03*
X118850000Y-77950000D03*
D42*
X153250000Y-103725000D03*
D43*
X72500000Y-38600000D03*
X167350000Y-50150000D03*
X49937500Y-85462500D03*
X134200000Y-86500000D03*
D42*
X135175000Y-106400000D03*
D43*
X70600001Y-53150000D03*
X96500000Y-74800000D03*
X65800000Y-61050000D03*
X174800000Y-85250000D03*
X111600000Y-78600000D03*
X119300000Y-68475000D03*
X121100000Y-71200000D03*
X124246447Y-59296447D03*
X113642894Y-69892894D03*
X122550000Y-113350000D03*
X86128905Y-100700000D03*
X148200000Y-19550000D03*
X113635625Y-71300000D03*
X8100000Y-43200000D03*
X122250000Y-73450000D03*
X161550000Y-39500000D03*
D42*
X85650000Y-101800000D03*
X119403333Y-99475000D03*
D43*
X117171320Y-49425000D03*
X164800000Y-45350000D03*
X12400000Y-107800000D03*
X64800000Y-102450000D03*
X175000000Y-77200000D03*
X135900000Y-32200000D03*
X38000000Y-23300000D03*
X95300000Y-62150000D03*
X146900000Y-16600000D03*
X126750000Y-86700000D03*
X27100000Y-64100000D03*
X98400000Y-58650000D03*
X30500000Y-18300000D03*
X113100000Y-42000000D03*
X24250000Y-24800000D03*
X124250000Y-62150000D03*
X92700000Y-15350000D03*
X27300000Y-108300000D03*
X85650000Y-96250000D03*
X56600000Y-88600000D03*
X116613006Y-7525000D03*
X110450000Y-13550000D03*
D42*
X157950000Y-100950000D03*
D43*
X121432106Y-53692894D03*
X151949999Y-69925000D03*
X15700000Y-113900000D03*
X160800000Y-50200000D03*
X151600000Y-34250000D03*
X88150000Y-83550000D03*
X124300000Y-87400000D03*
X112925000Y-60726765D03*
X137900000Y-12150000D03*
X174400000Y-66000000D03*
X115250000Y-92050000D03*
X159700000Y-37650000D03*
X99475000Y-60020000D03*
X62300000Y-16400000D03*
X62950000Y-112250000D03*
X160950000Y-48400000D03*
X145800000Y-21000000D03*
%TO.N,AIO0*%
X57525000Y-32330000D03*
%TO.N,AIO1*%
X58535714Y-32980000D03*
%TO.N,AIO2*%
X59546429Y-33630000D03*
%TO.N,AIO3*%
X60557143Y-34270000D03*
%TO.N,~{EVENT}*%
X42800000Y-63275000D03*
X16500000Y-45700000D03*
X67175000Y-81050000D03*
%TO.N,IRQ0*%
X61567857Y-34930000D03*
%TO.N,IRQ1*%
X62578571Y-35570000D03*
%TO.N,BS0*%
X63589286Y-36220000D03*
%TO.N,BS1*%
X64600000Y-36870000D03*
%TO.N,~{ABORT}*%
X57500000Y-66440000D03*
%TO.N,DAL21*%
X58420833Y-67090000D03*
%TO.N,DAL20*%
X59341667Y-67740000D03*
%TO.N,DAL19*%
X60262500Y-68380000D03*
%TO.N,DAL18*%
X61183333Y-69040000D03*
%TO.N,DAL17*%
X62104167Y-69680000D03*
%TO.N,DAL16*%
X63025000Y-70330000D03*
%TO.N,~{MISS}*%
X52750000Y-81625000D03*
%TO.N,/LED_A13*%
X99591919Y-22350000D03*
X111700000Y-28400000D03*
%TO.N,Net-(LED9-A)*%
X38588400Y-17800000D03*
%TO.N,/ETH_INT*%
X155000000Y-28000000D03*
%TO.N,/ETH_SCS*%
X157550000Y-27450000D03*
%TO.N,/ETH_SCLK*%
X156900000Y-28200000D03*
%TO.N,/ETH_MOSI*%
X156300000Y-28950000D03*
%TO.N,/A15*%
X156215000Y-56060000D03*
X156212059Y-75410000D03*
X124000000Y-70300000D03*
%TO.N,/A14*%
X156834706Y-55560001D03*
X124500000Y-69500000D03*
X156831765Y-74910001D03*
%TO.N,/A13*%
X157454412Y-55060000D03*
X157451471Y-74410000D03*
X125000000Y-69000000D03*
%TO.N,/A12*%
X130500000Y-70500000D03*
X158071177Y-73910000D03*
X158074118Y-54560000D03*
%TO.N,/A11*%
X158690883Y-73409999D03*
X131000000Y-70000000D03*
X158693824Y-54059999D03*
%TO.N,/A10*%
X159310588Y-72910000D03*
X159313529Y-53560000D03*
X131500000Y-69500000D03*
%TO.N,/A9*%
X159930294Y-72400000D03*
X159933235Y-53050000D03*
X132000000Y-69000000D03*
%TO.N,/A8*%
X132500000Y-68500000D03*
X160552941Y-52550000D03*
X160550000Y-71900000D03*
%TO.N,/A19*%
X161169706Y-71410000D03*
X136500000Y-67500000D03*
X161172647Y-52060000D03*
%TO.N,/WE_HI*%
X127800000Y-60020000D03*
X170900000Y-70400000D03*
%TO.N,/A18*%
X161792353Y-48550000D03*
X136000000Y-67000000D03*
X161789412Y-67900000D03*
%TO.N,/A17*%
X135500000Y-66500000D03*
X162412059Y-48075000D03*
X162409118Y-67425000D03*
%TO.N,/A7*%
X135000000Y-66000000D03*
X163031765Y-47560000D03*
X163028824Y-66910000D03*
%TO.N,/A6*%
X134500000Y-65500000D03*
X163648530Y-66410000D03*
X163651471Y-47060000D03*
%TO.N,/A5*%
X134000000Y-65000000D03*
X164271176Y-46550000D03*
X164268235Y-65900000D03*
%TO.N,/A4*%
X164887941Y-65400000D03*
X133500000Y-64500000D03*
X164890882Y-46050000D03*
%TO.N,/A3*%
X133000000Y-64000000D03*
X165507647Y-64900000D03*
X165510588Y-45550000D03*
%TO.N,/A2*%
X166130294Y-45075000D03*
X166127353Y-64425000D03*
X132500000Y-63500000D03*
%TO.N,/A1*%
X166747059Y-63910000D03*
X132000000Y-63000000D03*
X166750000Y-44560000D03*
%TO.N,/A0*%
X154975000Y-63100000D03*
X131500000Y-62500000D03*
X154975000Y-46400000D03*
%TO.N,/CE1*%
X147300000Y-45059999D03*
X134000000Y-57900000D03*
%TO.N,/OE*%
X133100000Y-58400000D03*
X147300000Y-46060000D03*
%TO.N,/A20*%
X154355000Y-73100000D03*
X122850000Y-64969747D03*
X154355000Y-54560000D03*
%TO.N,/A16*%
X155595000Y-56475000D03*
X155595000Y-75825000D03*
X123500000Y-71000000D03*
%TO.N,/LED_D9*%
X89325175Y-13000000D03*
%TO.N,/LED_A1*%
X112300000Y-37500000D03*
X68491686Y-22350000D03*
%TO.N,/LED_D11*%
X94508547Y-13000000D03*
%TO.N,/LED_A4*%
X110600000Y-36100000D03*
X76266745Y-22350000D03*
%TO.N,VCC*%
X170300000Y-99735002D03*
%TO.N,/LED_A10*%
X91816861Y-22350000D03*
X110275000Y-29775000D03*
%TO.N,/LED_A18*%
X112550350Y-22350000D03*
%TO.N,/LED_A17*%
X109958664Y-22350000D03*
%TO.N,/USB_D_N*%
X173650000Y-86250000D03*
X173650000Y-85250000D03*
%TO.N,/IO_RX2*%
X155100000Y-85400000D03*
%TO.N,/IO_TX2*%
X153200000Y-84700000D03*
%TO.N,Net-(USB3-CC1)*%
X173750000Y-17050000D03*
%TO.N,Net-(USB3-CC2)*%
X173700000Y-14050000D03*
%TO.N,/LED_D15*%
X104875291Y-13000000D03*
%TO.N,+1V2*%
X113592894Y-61457106D03*
X116507106Y-58592894D03*
X116399999Y-79900000D03*
X117200000Y-60725000D03*
X119975000Y-59312876D03*
X115757107Y-57875000D03*
X114325000Y-57898482D03*
X105850000Y-59312911D03*
D42*
X116795000Y-97275000D03*
X116795000Y-98325000D03*
D43*
X115750000Y-69175000D03*
X110125000Y-57900000D03*
X115750000Y-62141662D03*
X115050000Y-62875000D03*
X116507106Y-61457106D03*
X114342893Y-62150000D03*
X112900000Y-59312893D03*
X117200000Y-59312893D03*
X107242894Y-59307106D03*
X113596447Y-58596447D03*
X123500000Y-60025000D03*
X115050000Y-57150000D03*
X115050000Y-51525000D03*
%TO.N,/LED_D8*%
X86733489Y-13000000D03*
%TO.N,/LED_A16*%
X107366978Y-22350000D03*
%TO.N,/CONF_DONE*%
X109400000Y-64250000D03*
%TO.N,+2V5*%
X121407106Y-59307106D03*
X105850000Y-60696447D03*
X110100000Y-67775000D03*
X111514663Y-64950000D03*
X115775000Y-53650000D03*
X110807018Y-64250000D03*
X113500001Y-79900000D03*
D42*
X112295000Y-98175000D03*
D43*
X114357106Y-69100000D03*
%TO.N,Net-(LED8-A)*%
X33132600Y-17800000D03*
%TO.N,/MAILBOX_CSn*%
X131000000Y-51100000D03*
X148500000Y-39500000D03*
%TO.N,Net-(LED10-A)*%
X44044200Y-17800000D03*
%TO.N,/LED_A12*%
X97000233Y-22350000D03*
X111200000Y-28850000D03*
%TO.N,/LED_D5*%
X78958430Y-13000000D03*
%TO.N,Net-(LED49-A)*%
X49500000Y-17800000D03*
%TO.N,Net-(U7-SW)*%
X154450000Y-107350000D03*
%TO.N,Net-(U7-BOOT)*%
X154000000Y-100200000D03*
%TO.N,/LED_A14*%
X102183605Y-22350000D03*
X112200000Y-28000000D03*
%TO.N,/QSPI_SD0*%
X147000000Y-21550000D03*
X157200000Y-16200000D03*
%TO.N,/QSPI_SCLK*%
X157200000Y-14900000D03*
X149450000Y-20500000D03*
%TO.N,/QSPI_SD3*%
X151950000Y-19500000D03*
X157150000Y-13650000D03*
%TO.N,/LED_A19*%
X115142036Y-22350000D03*
%TO.N,/LED_D4*%
X76366744Y-13000000D03*
%TO.N,/LED_A6*%
X109500000Y-35050000D03*
X81450117Y-22350000D03*
%TO.N,/LED_A21*%
X120325408Y-22350000D03*
%TO.N,/FPGA_NCSO*%
X130600000Y-40200000D03*
X136100000Y-53600000D03*
%TO.N,/nCONFIG*%
X136200000Y-38700000D03*
X123800000Y-40100000D03*
X121396447Y-56453553D03*
%TO.N,/LED_D12*%
X97100233Y-13000000D03*
%TO.N,Net-(LED7-A)*%
X27676799Y-17800000D03*
%TO.N,/SD_ACT*%
X106850000Y-98550000D03*
X112000000Y-76500000D03*
%TO.N,/IO_RX1*%
X139600000Y-53650000D03*
X138500000Y-28200000D03*
X159000000Y-32000000D03*
%TO.N,/WE_LO*%
X127050000Y-60727107D03*
X170960000Y-51060000D03*
%TO.N,/FPGA_ASD0*%
X135900000Y-28100000D03*
X136800000Y-53100000D03*
%TO.N,/IO_TX1*%
X159000000Y-31200000D03*
X138950000Y-53650000D03*
X137750000Y-27500000D03*
%TO.N,/IRQ_MSCP*%
X153000000Y-41000000D03*
X128950000Y-54400000D03*
%TO.N,/MAILBOX_RESETn*%
X152000000Y-41000000D03*
X130500000Y-53150000D03*
%TO.N,/MAILBOX_READYn*%
X129700000Y-53750000D03*
X152500000Y-42500000D03*
%TO.N,/IRQ_ETH*%
X124950000Y-57200000D03*
X153500000Y-42500000D03*
X128300000Y-55050000D03*
%TO.N,/MAILBOX_WRn*%
X149500000Y-40500000D03*
X132000000Y-52150000D03*
%TO.N,/MAILBOX_RDn*%
X150000000Y-41000000D03*
X132500000Y-52650000D03*
%TO.N,/MAILBOX_STBn*%
X131500000Y-51650000D03*
X149000000Y-40000000D03*
%TO.N,/FPGA_DATA0*%
X124300000Y-52000000D03*
X132900000Y-36200000D03*
%TO.N,/FPGA_DCLK*%
X125000000Y-52400000D03*
X134650000Y-28200000D03*
%TO.N,/nSTATUS*%
X120696447Y-55753553D03*
%TO.N,/TMS*%
X122825000Y-52275000D03*
%TO.N,/TCK*%
X122121265Y-52975000D03*
%TO.N,/TDO*%
X120000000Y-55075000D03*
%TO.N,/TDI*%
X119352719Y-55777719D03*
%TO.N,/MAILBOX_D7*%
X127750000Y-50150000D03*
X148000000Y-39000000D03*
%TO.N,/MAILBOX_D6*%
X147500000Y-38500000D03*
X126200000Y-49600000D03*
%TO.N,/MAILBOX_D5*%
X147000000Y-38000000D03*
X127750000Y-49000000D03*
%TO.N,/MAILBOX_D4*%
X146500000Y-37500000D03*
X126200000Y-48450000D03*
%TO.N,/MAILBOX_D3*%
X127750000Y-47900000D03*
X146000000Y-37000000D03*
%TO.N,/MAILBOX_D2*%
X126250000Y-47350000D03*
X145500000Y-36500000D03*
%TO.N,/SD_MOSI*%
X88628778Y-100700000D03*
%TO.N,/SD_CS*%
X91200000Y-100700000D03*
%TO.N,/MAILBOX_D1*%
X127700000Y-46800000D03*
X145000000Y-36000000D03*
%TO.N,/MAILBOX_D0*%
X126250000Y-46250000D03*
X144500000Y-35500000D03*
%TO.N,/LED_IOSPACE*%
X111499406Y-57898859D03*
X41700000Y-11100000D03*
%TO.N,/LED_INACK*%
X110792641Y-58605625D03*
X40900000Y-11100000D03*
%TO.N,/LED_WRITE*%
X40100000Y-11100000D03*
X110085534Y-59312731D03*
%TO.N,/LED_READ*%
X39300000Y-11100000D03*
X109378266Y-60020000D03*
%TO.N,/LED_FETCH*%
X20700000Y-11400000D03*
X108671321Y-60726945D03*
%TO.N,/LED_ABORT*%
X19900000Y-11400000D03*
X107964214Y-61434052D03*
%TO.N,/LED_HALT*%
X107257125Y-62141141D03*
X19100000Y-11400000D03*
%TO.N,/LED_RUN*%
X106550000Y-62848265D03*
X18300000Y-11400000D03*
%TO.N,/SD_MISO*%
X76200000Y-100700000D03*
%TO.N,/INIT_L_FPGA*%
X47425000Y-109475000D03*
X103050000Y-60727107D03*
%TO.N,/LED_ADDR_EN*%
X115950000Y-36700000D03*
X114350000Y-47950000D03*
%TO.N,/LED_I2C_SDA*%
X112928680Y-49350000D03*
%TO.N,/LED_I2C_SCL*%
X115750000Y-37750000D03*
X112650000Y-40850000D03*
X112221573Y-50100000D03*
%TO.N,/LED_DATA_EN*%
X111514484Y-50800000D03*
%TO.N,DV_L*%
X73550000Y-71600000D03*
X104450000Y-57900000D03*
%TO.N,/LED_A20*%
X117733722Y-22350000D03*
%TO.N,/LED_A0*%
X65900000Y-22350000D03*
X112800000Y-37950000D03*
%TO.N,/LED_A15*%
X112800000Y-27500000D03*
X104775292Y-22350000D03*
%TO.N,Net-(LED6-A)*%
X22220999Y-17800000D03*
%TO.N,/ETH_MISO*%
X159000000Y-30000000D03*
%TO.N,/ETH_RST*%
X155700000Y-27600000D03*
%TO.N,/LED_D1*%
X68591686Y-13000000D03*
%TO.N,/LED_D2*%
X71183372Y-13000000D03*
%TO.N,/LED_D10*%
X91916861Y-13000000D03*
%TO.N,Net-(LED2-A)*%
X16765199Y-17800000D03*
%TO.N,/LED_D13*%
X99691919Y-13000000D03*
%TO.N,+1V1*%
X154653553Y-33853553D03*
X149646447Y-32346447D03*
X151800000Y-30200000D03*
%TO.N,/LED_A5*%
X78858431Y-22350000D03*
X110050000Y-35500000D03*
%TO.N,/LED_D14*%
X102283605Y-13000000D03*
%TO.N,/LED_A9*%
X89225175Y-22350000D03*
X109725000Y-30325000D03*
%TO.N,/LED_A8*%
X109200000Y-30850000D03*
X86633489Y-22350000D03*
%TO.N,Net-(LED1-A)*%
X11300000Y-17800000D03*
%TO.N,/LED_A7*%
X108950000Y-34550000D03*
X84041803Y-22350000D03*
%TO.N,/LED_A2*%
X111750000Y-37050000D03*
X71083372Y-22350000D03*
%TO.N,/LED_D3*%
X73775058Y-13000000D03*
%TO.N,/CC1*%
X173900000Y-104250000D03*
%TO.N,/CC2*%
X173900000Y-101260000D03*
%TO.N,/LED_A11*%
X110750000Y-29350000D03*
X94408547Y-22350000D03*
%TO.N,/LED_D6*%
X81550116Y-13000000D03*
%TO.N,/LED_D0*%
X66000000Y-13000000D03*
%TO.N,Net-(USB2-CC1)*%
X173850000Y-87250000D03*
%TO.N,Net-(USB2-CC2)*%
X173750000Y-83750000D03*
%TO.N,/LED_D7*%
X84141803Y-13000000D03*
%TO.N,/LED_A3*%
X73675059Y-22350000D03*
X111200000Y-36600000D03*
%TD*%
%TO.N,/nCONFIG*%
D44*
X123800000Y-40100000D02*
X122450000Y-41450000D01*
X122450000Y-41450000D02*
X122450000Y-51050000D01*
X122450000Y-51050000D02*
X123500000Y-52100000D01*
X123500000Y-52100000D02*
X123500000Y-55700000D01*
X123500000Y-55700000D02*
X122750000Y-56450000D01*
X122750000Y-56450000D02*
X121400000Y-56450000D01*
X121400000Y-56450000D02*
X121396447Y-56453553D01*
%TO.N,+5V*%
D45*
X142250000Y-103600000D02*
X142250000Y-107816667D01*
D46*
X151125000Y-100275000D02*
X150150000Y-101250000D01*
X149300000Y-105050000D02*
X148200000Y-105050000D01*
D45*
X141250000Y-102600000D02*
X142250000Y-103600000D01*
D46*
X150150000Y-101250000D02*
X150150000Y-104200000D01*
D45*
X134700000Y-101750000D02*
X135550000Y-102600000D01*
D46*
X150150000Y-104200000D02*
X149300000Y-105050000D01*
X152900000Y-100275000D02*
X151125000Y-100275000D01*
D45*
X134700000Y-100350000D02*
X134700000Y-101750000D01*
X135550000Y-102600000D02*
X141250000Y-102600000D01*
X142250000Y-107816667D02*
X142216667Y-107850000D01*
%TO.N,+3V3*%
D46*
X115049999Y-41850000D02*
X115050000Y-40600000D01*
X90400000Y-102400000D02*
X91200000Y-102399999D01*
X76200000Y-102399999D02*
X76900000Y-102399999D01*
X88650001Y-102400000D02*
X90400000Y-102400000D01*
X85525000Y-31475000D02*
X84825000Y-31475000D01*
X117162205Y-34196447D02*
X117546447Y-34196447D01*
X85058231Y-30026191D02*
X84775352Y-29743312D01*
X115757501Y-75000000D02*
X115805025Y-75000000D01*
D45*
X118096447Y-34746447D02*
X117546447Y-34196447D01*
D46*
X111500000Y-41050000D02*
X111650000Y-41050000D01*
D45*
X86250001Y-31500000D02*
X85550000Y-31500000D01*
D46*
X83600000Y-100700000D02*
X83600001Y-101300000D01*
D45*
X85550000Y-31500000D02*
X85525000Y-31475000D01*
D46*
X84300000Y-30950000D02*
X84300000Y-30218664D01*
X84300000Y-30218664D02*
X84775352Y-29743312D01*
X111200002Y-41850000D02*
X111200002Y-41349998D01*
D44*
X122825000Y-63555534D02*
X122825000Y-62141141D01*
D46*
X115805025Y-75000000D02*
X116528249Y-75723224D01*
X116432879Y-33467121D02*
X117162205Y-34196447D01*
X111200002Y-41349998D02*
X111500000Y-41050000D01*
X84825000Y-31475000D02*
X84300000Y-30950000D01*
%TO.N,GND*%
X117450000Y-33350000D02*
X118000000Y-33350000D01*
X111503553Y-69181980D02*
X112221573Y-69900000D01*
X116715758Y-33184242D02*
X116998636Y-32901364D01*
X84600000Y-101300000D02*
X85150000Y-101300000D01*
X176520001Y-87300000D02*
X176520001Y-85500000D01*
X118000000Y-33350000D02*
X118200000Y-33550000D01*
X177140001Y-104250000D02*
X177140001Y-101260000D01*
X114546447Y-36696447D02*
X114050000Y-36200000D01*
X176520001Y-85500000D02*
X176520001Y-83750000D01*
D45*
X171200000Y-103000000D02*
X168920000Y-103000000D01*
D46*
X85150000Y-101300000D02*
X85650000Y-101800000D01*
X85359069Y-30309069D02*
X85800000Y-30750000D01*
X82249999Y-27850000D02*
X82900000Y-27850000D01*
X176570001Y-15450000D02*
X176570001Y-14050000D01*
D45*
X118696447Y-34046447D02*
X118200000Y-33550000D01*
X168920000Y-103000000D02*
X168170001Y-102250001D01*
D46*
X117966726Y-77066726D02*
X118850000Y-77950000D01*
X116613006Y-7525000D02*
X116613006Y-6800000D01*
D45*
X168170001Y-102250001D02*
X167100000Y-102250001D01*
D46*
X111600000Y-78600000D02*
X111600001Y-80050000D01*
X117001363Y-32901363D02*
X117450000Y-33350000D01*
X176570001Y-17050000D02*
X176570001Y-15450000D01*
D45*
X87249999Y-31500000D02*
X88150000Y-31500000D01*
D46*
X152003553Y-31553553D02*
X152353553Y-31553553D01*
X118349999Y-80050000D02*
X118350000Y-78550000D01*
X109384395Y-52946447D02*
X108675000Y-53655842D01*
%TO.N,AIO0*%
D44*
X17525000Y-32850000D02*
X16215000Y-31540000D01*
X16215000Y-31540000D02*
X13000000Y-31540000D01*
X49720000Y-32330000D02*
X49200000Y-32850000D01*
X57525000Y-32330000D02*
X49720000Y-32330000D01*
X49200000Y-32850000D02*
X17525000Y-32850000D01*
%TO.N,AIO1*%
X53695000Y-32980000D02*
X51375000Y-35300000D01*
X16330000Y-34080000D02*
X13000000Y-34080000D01*
X51375000Y-35300000D02*
X17550000Y-35300000D01*
X58535714Y-32980000D02*
X53695000Y-32980000D01*
X17550000Y-35300000D02*
X16330000Y-34080000D01*
%TO.N,AIO2*%
X17550000Y-37850000D02*
X16320000Y-36620000D01*
X50575000Y-37850000D02*
X17550000Y-37850000D01*
X54795000Y-33630000D02*
X50575000Y-37850000D01*
X16320000Y-36620000D02*
X13000000Y-36620000D01*
X59546429Y-33630000D02*
X54795000Y-33630000D01*
%TO.N,AIO3*%
X55830000Y-34270000D02*
X49725000Y-40375000D01*
X17500000Y-40375000D02*
X16285000Y-39160000D01*
X49725000Y-40375000D02*
X17500000Y-40375000D01*
X60557143Y-34270000D02*
X55830000Y-34270000D01*
X16285000Y-39160000D02*
X13000000Y-39160000D01*
%TO.N,~{EVENT}*%
X67175000Y-65200000D02*
X65250000Y-63275000D01*
X67175000Y-81050000D02*
X67175000Y-65200000D01*
X15420000Y-46780000D02*
X13000000Y-46780000D01*
X16500000Y-45700000D02*
X15420000Y-46780000D01*
X65250000Y-63275000D02*
X42800000Y-63275000D01*
%TO.N,IRQ0*%
X21975000Y-42975000D02*
X49200000Y-42975000D01*
X49200000Y-42975000D02*
X57245000Y-34930000D01*
X57245000Y-34930000D02*
X61567857Y-34930000D01*
X17350000Y-50950000D02*
X17350000Y-47600000D01*
X16440000Y-51860000D02*
X17350000Y-50950000D01*
X13000000Y-51860000D02*
X16440000Y-51860000D01*
X17350000Y-47600000D02*
X21975000Y-42975000D01*
%TO.N,IRQ1*%
X18825000Y-49050000D02*
X22400000Y-45475000D01*
X58830000Y-35570000D02*
X62578571Y-35570000D01*
X13000000Y-54400000D02*
X17175000Y-54400000D01*
X18825000Y-52750000D02*
X18825000Y-49050000D01*
X22400000Y-45475000D02*
X48925000Y-45475000D01*
X48925000Y-45475000D02*
X58830000Y-35570000D01*
X17175000Y-54400000D02*
X18825000Y-52750000D01*
%TO.N,BS0*%
X19775000Y-67375000D02*
X19775000Y-51125000D01*
X13000000Y-69640000D02*
X17510000Y-69640000D01*
X22900000Y-48000000D02*
X48525000Y-48000000D01*
X60305000Y-36220000D02*
X63589286Y-36220000D01*
X48525000Y-48000000D02*
X60305000Y-36220000D01*
X17510000Y-69640000D02*
X19775000Y-67375000D01*
X19775000Y-51125000D02*
X22900000Y-48000000D01*
%TO.N,BS1*%
X17570000Y-72180000D02*
X13000000Y-72180000D01*
X64600000Y-36870000D02*
X62155000Y-36870000D01*
X48475000Y-50550000D02*
X23125000Y-50550000D01*
X23125000Y-50550000D02*
X21450000Y-52225000D01*
X21450000Y-52225000D02*
X21450000Y-68300000D01*
X62155000Y-36870000D02*
X48475000Y-50550000D01*
X21450000Y-68300000D02*
X17570000Y-72180000D01*
%TO.N,~{ABORT}*%
X55565000Y-68375000D02*
X57500000Y-66440000D01*
X39375000Y-68375000D02*
X55565000Y-68375000D01*
X30490000Y-77260000D02*
X39375000Y-68375000D01*
X13000000Y-77260000D02*
X30490000Y-77260000D01*
%TO.N,DAL21*%
X54585833Y-70925000D02*
X39500000Y-70925000D01*
X30625000Y-79800000D02*
X13000000Y-79800000D01*
X58420833Y-67090000D02*
X54585833Y-70925000D01*
X39500000Y-70925000D02*
X30625000Y-79800000D01*
%TO.N,DAL20*%
X13000000Y-82340000D02*
X30985000Y-82340000D01*
X39875000Y-73450000D02*
X53631667Y-73450000D01*
X53631667Y-73450000D02*
X59341667Y-67740000D01*
X30985000Y-82340000D02*
X39875000Y-73450000D01*
%TO.N,DAL19*%
X13000000Y-84880000D02*
X30945000Y-84880000D01*
X52642500Y-76000000D02*
X60262500Y-68380000D01*
X39825000Y-76000000D02*
X52642500Y-76000000D01*
X30945000Y-84880000D02*
X39825000Y-76000000D01*
%TO.N,DAL18*%
X13000000Y-87420000D02*
X30805000Y-87420000D01*
X51748333Y-78475000D02*
X61183333Y-69040000D01*
X39750000Y-78475000D02*
X51748333Y-78475000D01*
X30805000Y-87420000D02*
X39750000Y-78475000D01*
%TO.N,DAL17*%
X50709167Y-81075000D02*
X62104167Y-69680000D01*
X13000000Y-89960000D02*
X31640000Y-89960000D01*
X40525000Y-81075000D02*
X50709167Y-81075000D01*
X31640000Y-89960000D02*
X40525000Y-81075000D01*
%TO.N,DAL16*%
X13000000Y-92500000D02*
X31975000Y-92500000D01*
X31975000Y-92500000D02*
X40875000Y-83600000D01*
X40875000Y-83600000D02*
X49755000Y-83600000D01*
X49755000Y-83600000D02*
X63025000Y-70330000D01*
%TO.N,~{MISS}*%
X30595000Y-97580000D02*
X42000000Y-86175000D01*
X42000000Y-86175000D02*
X48250000Y-86175000D01*
X13000000Y-97580000D02*
X30595000Y-97580000D01*
X52750000Y-81675000D02*
X52750000Y-81625000D01*
X48250000Y-86175000D02*
X52750000Y-81675000D01*
%TO.N,/LED_A13*%
D46*
X112650000Y-29350000D02*
X112650000Y-29700000D01*
X111700000Y-28400000D02*
X112650000Y-29350000D01*
X112650000Y-29700000D02*
X113508051Y-30558051D01*
%TO.N,Net-(LED9-A)*%
X38600000Y-17788400D02*
X38588400Y-17800000D01*
X40100000Y-13600000D02*
X40100000Y-17350000D01*
X39661600Y-17788400D02*
X38600000Y-17788400D01*
X40100000Y-17350000D02*
X39661600Y-17788400D01*
%TO.N,/A15*%
X156215000Y-56060000D02*
X156215000Y-75407059D01*
X156215000Y-75407059D02*
X156212059Y-75410000D01*
%TO.N,/A14*%
X156834706Y-55560001D02*
X156834706Y-74907060D01*
X156834706Y-74907060D02*
X156831765Y-74910001D01*
%TO.N,/A13*%
X157454412Y-74407059D02*
X157451471Y-74410000D01*
X157454412Y-55060000D02*
X157454412Y-74407059D01*
%TO.N,/A12*%
X158074118Y-54560000D02*
X158074118Y-73907059D01*
X158074118Y-73907059D02*
X158071177Y-73910000D01*
%TO.N,/A11*%
X158693824Y-54059999D02*
X158693824Y-73407058D01*
X158693824Y-73407058D02*
X158690883Y-73409999D01*
%TO.N,/A10*%
X159313529Y-53560000D02*
X159313529Y-72907059D01*
X159313529Y-72907059D02*
X159310588Y-72910000D01*
%TO.N,/A9*%
X159933235Y-72397059D02*
X159930294Y-72400000D01*
X159933235Y-53050000D02*
X159933235Y-72397059D01*
%TO.N,/A8*%
X160552941Y-71897059D02*
X160550000Y-71900000D01*
X160552941Y-52550000D02*
X160552941Y-71897059D01*
%TO.N,/A19*%
X161172647Y-52060000D02*
X161172647Y-71407059D01*
X161172647Y-71407059D02*
X161169706Y-71410000D01*
%TO.N,/A18*%
X161792353Y-48550000D02*
X161792353Y-67897059D01*
X161792353Y-67897059D02*
X161789412Y-67900000D01*
%TO.N,/A17*%
X162412059Y-48075000D02*
X162412059Y-67422059D01*
X162412059Y-67422059D02*
X162409118Y-67425000D01*
%TO.N,/A7*%
X163031765Y-47560000D02*
X163031765Y-66907059D01*
X163031765Y-66907059D02*
X163028824Y-66910000D01*
%TO.N,/A6*%
X163651471Y-47060000D02*
X163651471Y-66407059D01*
X163651471Y-66407059D02*
X163648530Y-66410000D01*
%TO.N,/A5*%
X164271176Y-65897059D02*
X164268235Y-65900000D01*
X164271176Y-46550000D02*
X164271176Y-65897059D01*
%TO.N,/A4*%
X164890882Y-46050000D02*
X164890882Y-65397059D01*
X164890882Y-65397059D02*
X164887941Y-65400000D01*
%TO.N,/A3*%
X165510588Y-45550000D02*
X165510588Y-64897059D01*
X165510588Y-64897059D02*
X165507647Y-64900000D01*
%TO.N,/A2*%
X166127353Y-45077941D02*
X166130294Y-45075000D01*
X166127353Y-64425000D02*
X166127353Y-45077941D01*
%TO.N,/A1*%
X166750000Y-63907059D02*
X166747059Y-63910000D01*
X166750000Y-44560000D02*
X166750000Y-63907059D01*
%TO.N,/A0*%
X154975000Y-46400000D02*
X154975000Y-63100000D01*
%TO.N,/CE1*%
X145840001Y-45059999D02*
X147300000Y-45059999D01*
X144000000Y-52600000D02*
X144000000Y-46900000D01*
X138700000Y-57900000D02*
X144000000Y-52600000D01*
X144000000Y-46900000D02*
X145840001Y-45059999D01*
X134000000Y-57900000D02*
X138700000Y-57900000D01*
%TO.N,/OE*%
X144800000Y-47300000D02*
X144800000Y-52800000D01*
X144800000Y-52800000D02*
X139200000Y-58400000D01*
X147300000Y-46060000D02*
X146040000Y-46060000D01*
X146040000Y-46060000D02*
X144800000Y-47300000D01*
X139200000Y-58400000D02*
X133100000Y-58400000D01*
%TO.N,/A20*%
X148500000Y-73150000D02*
X148000000Y-72650000D01*
X154355000Y-73100000D02*
X154305000Y-73150000D01*
X135750000Y-69100000D02*
X131619747Y-64969747D01*
X148000000Y-69650000D02*
X147450000Y-69100000D01*
X154355000Y-73100000D02*
X154355000Y-54560000D01*
X148000000Y-72650000D02*
X148000000Y-69650000D01*
X131619747Y-64969747D02*
X122850000Y-64969747D01*
X147450000Y-69100000D02*
X135750000Y-69100000D01*
X154305000Y-73150000D02*
X148500000Y-73150000D01*
%TO.N,/A16*%
X155595000Y-56475000D02*
X155595000Y-75825000D01*
%TO.N,/LED_D9*%
X90100000Y-22800000D02*
X88850000Y-24050000D01*
X90100000Y-18750000D02*
X90100000Y-22800000D01*
X87155994Y-25094006D02*
X87155994Y-25100000D01*
X89325175Y-17975175D02*
X90100000Y-18750000D01*
X88850000Y-24050000D02*
X88200000Y-24050000D01*
X87155994Y-25100000D02*
X86553087Y-25702907D01*
X88200000Y-24050000D02*
X87155994Y-25094006D01*
X89325175Y-13000000D02*
X89325175Y-17975175D01*
%TO.N,/LED_A1*%
X112300000Y-37500000D02*
X112800000Y-37000000D01*
X112800000Y-37000000D02*
X112800000Y-35605323D01*
X112800000Y-35605323D02*
X113806867Y-34598456D01*
%TO.N,/LED_D11*%
X87131335Y-26268665D02*
X88550000Y-24850000D01*
X89600000Y-24850000D02*
X91100000Y-23350000D01*
X92600000Y-23350000D02*
X93550000Y-22400000D01*
X91100000Y-23350000D02*
X92600000Y-23350000D01*
X88550000Y-24850000D02*
X89600000Y-24850000D01*
X93550000Y-13958547D02*
X94508547Y-13000000D01*
X93550000Y-22400000D02*
X93550000Y-13958547D01*
%TO.N,/LED_A4*%
X112950180Y-33749820D02*
X110600000Y-36100000D01*
%TO.N,VCC*%
X169254999Y-99735002D02*
X170300000Y-99735002D01*
%TO.N,/LED_A10*%
X111800000Y-30550000D02*
X112656507Y-31406507D01*
X110275000Y-29775000D02*
X111050000Y-30550000D01*
X111050000Y-30550000D02*
X111800000Y-30550000D01*
%TO.N,/LED_A18*%
X117000000Y-27100000D02*
X117000000Y-29150000D01*
X117000000Y-29150000D02*
X115591949Y-30558051D01*
X112550350Y-24300350D02*
X112850000Y-24600000D01*
X112550350Y-22350000D02*
X112550350Y-24300350D01*
X112850000Y-24600000D02*
X114500000Y-24600000D01*
X114500000Y-24600000D02*
X117000000Y-27100000D01*
%TO.N,/LED_A17*%
X116450000Y-27650000D02*
X116450000Y-29126896D01*
X116450000Y-29126896D02*
X115301544Y-30275352D01*
X109958664Y-24758664D02*
X110450000Y-25250000D01*
X110450000Y-25250000D02*
X114050000Y-25250000D01*
X114050000Y-25250000D02*
X116450000Y-27650000D01*
X109958664Y-22350000D02*
X109958664Y-24758664D01*
%TO.N,/USB_D_N*%
X173650000Y-85250000D02*
X173650000Y-86250000D01*
%TO.N,/IO_RX2*%
X152300000Y-85400000D02*
X155100000Y-85400000D01*
X136600000Y-86900000D02*
X150800000Y-86900000D01*
X150800000Y-86900000D02*
X152300000Y-85400000D01*
X135660784Y-89800000D02*
X135660784Y-87839216D01*
X135660784Y-87839216D02*
X136600000Y-86900000D01*
%TO.N,/IO_TX2*%
X134500000Y-84700000D02*
X153200000Y-84700000D01*
X133120779Y-89800000D02*
X133120779Y-86079221D01*
X133120779Y-86079221D02*
X134500000Y-84700000D01*
%TO.N,Net-(USB3-CC1)*%
X173750000Y-17050000D02*
X174929999Y-17050000D01*
%TO.N,Net-(USB3-CC2)*%
X173700000Y-14050000D02*
X174929999Y-14050000D01*
%TO.N,/LED_D15*%
X98750000Y-22850000D02*
X96150000Y-25450000D01*
X90700000Y-26450000D02*
X89200179Y-26450000D01*
X104875291Y-13024709D02*
X98750000Y-19150000D01*
X96150000Y-25450000D02*
X91700000Y-25450000D01*
X98750000Y-19150000D02*
X98750000Y-22850000D01*
X91700000Y-25450000D02*
X90700000Y-26450000D01*
X104875291Y-13000000D02*
X104875291Y-13024709D01*
X89200179Y-26450000D02*
X88250179Y-27400000D01*
%TO.N,/LED_D8*%
X86733489Y-17383489D02*
X87500000Y-18150000D01*
X86733489Y-13000000D02*
X86733489Y-17383489D01*
X87500000Y-18150000D02*
X87500000Y-24190237D01*
X87500000Y-24190237D02*
X86270208Y-25420029D01*
%TO.N,/LED_A16*%
X107366978Y-22350000D02*
X107366978Y-25516978D01*
X115900000Y-27900000D02*
X115900000Y-29111138D01*
X107366978Y-25516978D02*
X108000000Y-26150000D01*
X115900000Y-29111138D02*
X115018665Y-29992473D01*
X114150000Y-26150000D02*
X115900000Y-27900000D01*
X108000000Y-26150000D02*
X114150000Y-26150000D01*
%TO.N,+2V5*%
D45*
X120113005Y-5800001D02*
X121650001Y-5800001D01*
X112513005Y-5800002D02*
X120113004Y-5800002D01*
D46*
X115775000Y-52200000D02*
X115775000Y-53650000D01*
D45*
X122670003Y-6820003D02*
X122670003Y-8797003D01*
X121650001Y-5800001D02*
X122670003Y-6820003D01*
%TO.N,Net-(LED8-A)*%
D46*
X38100000Y-13600000D02*
X33900000Y-17800000D01*
X33900000Y-17800000D02*
X33132600Y-17800000D01*
X39300000Y-13600000D02*
X38100000Y-13600000D01*
%TO.N,Net-(LED10-A)*%
X40900000Y-17350000D02*
X41350000Y-17800000D01*
X40900000Y-13600000D02*
X40900000Y-17350000D01*
X41350000Y-17800000D02*
X44044200Y-17800000D01*
%TO.N,/LED_A12*%
X111200000Y-28850000D02*
X113190930Y-30840930D01*
%TO.N,/LED_D5*%
X78958430Y-13000000D02*
X78958430Y-14458430D01*
X82850000Y-24050000D02*
X84775532Y-25975532D01*
X82850000Y-18350000D02*
X82850000Y-24050000D01*
X78958430Y-14458430D02*
X82850000Y-18350000D01*
%TO.N,Net-(LED49-A)*%
X41700000Y-13600000D02*
X43400000Y-13600000D01*
X43400000Y-13600000D02*
X47600000Y-17800000D01*
X47600000Y-17800000D02*
X49500000Y-17800000D01*
%TO.N,Net-(U7-SW)*%
X155000000Y-106800000D02*
X155000000Y-105600000D01*
X154450000Y-107350000D02*
X155000000Y-106800000D01*
%TO.N,Net-(U7-BOOT)*%
D44*
X154000000Y-100200000D02*
X154000000Y-105600000D01*
%TO.N,/LED_A14*%
D46*
X112200000Y-28000000D02*
X113050000Y-28850000D01*
X113050000Y-28850000D02*
X113050000Y-29450000D01*
X113050000Y-29450000D02*
X113806688Y-30206688D01*
X113806688Y-30206688D02*
X113806688Y-30275172D01*
%TO.N,/QSPI_SD0*%
X154250000Y-19800000D02*
X154250000Y-16750000D01*
X147000000Y-21550000D02*
X152500000Y-21550000D01*
X154250000Y-16750000D02*
X154800000Y-16200000D01*
X152500000Y-21550000D02*
X154250000Y-19800000D01*
X154800000Y-16200000D02*
X157200000Y-16200000D01*
%TO.N,/QSPI_SCLK*%
X153200000Y-16300000D02*
X154600000Y-14900000D01*
X154600000Y-14900000D02*
X157200000Y-14900000D01*
X152050000Y-20500000D02*
X153200000Y-19350000D01*
X153200000Y-19350000D02*
X153200000Y-16300000D01*
X149450000Y-20500000D02*
X152050000Y-20500000D01*
%TO.N,/QSPI_SD3*%
X151950000Y-19500000D02*
X151950000Y-15550000D01*
X153850000Y-13650000D02*
X157150000Y-13650000D01*
X151950000Y-15550000D02*
X153850000Y-13650000D01*
%TO.N,/LED_A19*%
X117550000Y-26600000D02*
X117550000Y-29158052D01*
X117550000Y-29158052D02*
X115867122Y-30840930D01*
X115142036Y-24192036D02*
X117550000Y-26600000D01*
X115142036Y-22350000D02*
X115142036Y-24192036D01*
%TO.N,/LED_D4*%
X76366744Y-14016744D02*
X76366744Y-13000000D01*
X82300000Y-19950000D02*
X76366744Y-14016744D01*
X84492653Y-26268665D02*
X82300000Y-24076012D01*
X82300000Y-24076012D02*
X82300000Y-19950000D01*
%TO.N,/LED_A6*%
X110800000Y-34750000D02*
X112365758Y-33184242D01*
X109500000Y-35050000D02*
X109800000Y-34750000D01*
X109800000Y-34750000D02*
X110800000Y-34750000D01*
%TO.N,/LED_A21*%
X120325408Y-22350000D02*
X118700000Y-23975408D01*
X118700000Y-29139566D02*
X116432879Y-31406687D01*
X118700000Y-23975408D02*
X118700000Y-29139566D01*
%TO.N,/FPGA_NCSO*%
X136100000Y-53600000D02*
X136100000Y-52800000D01*
X133700000Y-41900000D02*
X132000000Y-40200000D01*
X133700000Y-50400000D02*
X133700000Y-41900000D01*
X136100000Y-52800000D02*
X133700000Y-50400000D01*
X132000000Y-40200000D02*
X130600000Y-40200000D01*
%TO.N,/LED_D12*%
X93900000Y-23850000D02*
X95300000Y-22450000D01*
X95300000Y-22450000D02*
X95300000Y-14800000D01*
X97100000Y-13000000D02*
X97100233Y-13000000D01*
X88650000Y-25300000D02*
X89900000Y-25300000D01*
X95300000Y-14800000D02*
X97100000Y-13000000D01*
X89900000Y-25300000D02*
X91350000Y-23850000D01*
X87401543Y-26548457D02*
X88650000Y-25300000D01*
X91350000Y-23850000D02*
X93900000Y-23850000D01*
%TO.N,Net-(LED7-A)*%
X22500000Y-13900000D02*
X26400000Y-17800000D01*
X26400000Y-17800000D02*
X27676799Y-17800000D01*
X20700000Y-13900000D02*
X22500000Y-13900000D01*
%TO.N,/SD_ACT*%
X109000000Y-77900000D02*
X110400000Y-76500000D01*
X109000000Y-97400000D02*
X109000000Y-77900000D01*
X106850000Y-98550000D02*
X107850000Y-98550000D01*
X107850000Y-98550000D02*
X109000000Y-97400000D01*
X110400000Y-76500000D02*
X112000000Y-76500000D01*
%TO.N,/IO_RX1*%
X139600000Y-53650000D02*
X139600000Y-46050000D01*
X155850000Y-32000000D02*
X152050000Y-28200000D01*
X159000000Y-32000000D02*
X155850000Y-32000000D01*
X139600000Y-46050000D02*
X138500000Y-44950000D01*
X152050000Y-28200000D02*
X138500000Y-28200000D01*
X138500000Y-44950000D02*
X138500000Y-28200000D01*
%TO.N,/FPGA_ASD0*%
X136800000Y-52600000D02*
X134400000Y-50200000D01*
X135300000Y-36550000D02*
X135300000Y-28750000D01*
X134400000Y-50200000D02*
X134400000Y-37450000D01*
X135900000Y-28150000D02*
X135900000Y-28100000D01*
X136800000Y-53100000D02*
X136800000Y-52600000D01*
X135300000Y-28750000D02*
X135900000Y-28150000D01*
X134400000Y-37450000D02*
X135300000Y-36550000D01*
%TO.N,/IO_TX1*%
X137750000Y-45150000D02*
X138950000Y-46350000D01*
X138950000Y-46350000D02*
X138950000Y-53650000D01*
X159000000Y-31200000D02*
X156100000Y-31200000D01*
X137750000Y-27500000D02*
X137750000Y-45150000D01*
X156100000Y-31200000D02*
X152400000Y-27500000D01*
X152400000Y-27500000D02*
X137750000Y-27500000D01*
%TO.N,/IRQ_ETH*%
X128300000Y-55050000D02*
X127800000Y-55050000D01*
X125650000Y-57200000D02*
X124950000Y-57200000D01*
X127800000Y-55050000D02*
X125650000Y-57200000D01*
%TO.N,/FPGA_DATA0*%
X125000000Y-51300000D02*
X124300000Y-52000000D01*
X132900000Y-36200000D02*
X132400000Y-36700000D01*
X127400000Y-36700000D02*
X125000000Y-39100000D01*
X132400000Y-36700000D02*
X127400000Y-36700000D01*
X125000000Y-39100000D02*
X125000000Y-51300000D01*
%TO.N,/FPGA_DCLK*%
X125000000Y-52100000D02*
X125500000Y-51600000D01*
X125500000Y-39350000D02*
X127550000Y-37300000D01*
X125500000Y-51600000D02*
X125500000Y-39350000D01*
X127550000Y-37300000D02*
X132775000Y-37300000D01*
X134000000Y-28850000D02*
X134650000Y-28200000D01*
X134000000Y-36075000D02*
X134000000Y-28850000D01*
X132775000Y-37300000D02*
X134000000Y-36075000D01*
X125000000Y-52400000D02*
X125000000Y-52100000D01*
%TO.N,/TMS*%
D45*
X120113005Y-6799999D02*
X120113005Y-8780011D01*
%TO.N,/TCK*%
X117613004Y-6800000D02*
X117613004Y-8773991D01*
%TO.N,/TDI*%
X112513005Y-6800000D02*
X112513005Y-8793980D01*
%TO.N,/SD_MOSI*%
D46*
X88600000Y-100728778D02*
X88628778Y-100700000D01*
X88600000Y-101350001D02*
X88600000Y-100728778D01*
%TO.N,/SD_CS*%
X91200000Y-101400001D02*
X91200000Y-100700000D01*
%TO.N,/LED_IOSPACE*%
X41700000Y-11900000D02*
X41700000Y-11100000D01*
%TO.N,/LED_INACK*%
X40900000Y-11900000D02*
X40900000Y-11100000D01*
%TO.N,/LED_WRITE*%
X40100000Y-11900000D02*
X40100000Y-11100000D01*
%TO.N,/LED_READ*%
X39300000Y-11900000D02*
X39300000Y-11100000D01*
%TO.N,/LED_FETCH*%
X20700000Y-12200000D02*
X20700000Y-11400000D01*
%TO.N,/LED_ABORT*%
X19900000Y-12200000D02*
X19900000Y-11400000D01*
%TO.N,/LED_HALT*%
X19100000Y-12200000D02*
X19100000Y-11400000D01*
%TO.N,/LED_RUN*%
X18300000Y-12200000D02*
X18300000Y-11400000D01*
%TO.N,/SD_MISO*%
X76200000Y-101400001D02*
X76200000Y-100700000D01*
%TO.N,/INIT_L_FPGA*%
D44*
X49925000Y-98325000D02*
X51075000Y-97175000D01*
X93100000Y-59400000D02*
X100300000Y-59400000D01*
X68925000Y-81325000D02*
X70850000Y-79400000D01*
X47425000Y-109475000D02*
X49925000Y-106975000D01*
X73100000Y-79400000D02*
X93100000Y-59400000D01*
X100300000Y-59400000D02*
X101627107Y-60727107D01*
X68925000Y-95325000D02*
X68925000Y-81325000D01*
X67075000Y-97175000D02*
X68925000Y-95325000D01*
X49925000Y-106975000D02*
X49925000Y-98325000D01*
X51075000Y-97175000D02*
X67075000Y-97175000D01*
X70850000Y-79400000D02*
X73100000Y-79400000D01*
X101627107Y-60727107D02*
X103050000Y-60727107D01*
%TO.N,/LED_ADDR_EN*%
D46*
X116200000Y-34950000D02*
X116200000Y-36450000D01*
X116200000Y-36450000D02*
X115950000Y-36700000D01*
X115584423Y-34334423D02*
X116200000Y-34950000D01*
%TO.N,/LED_I2C_SDA*%
X83250000Y-30700000D02*
X84489567Y-29460433D01*
X112928680Y-48703680D02*
X111250000Y-47025000D01*
X83250000Y-32250000D02*
X83250000Y-30700000D01*
X111250000Y-47025000D02*
X111250000Y-46050000D01*
X112928680Y-49350000D02*
X112928680Y-48703680D01*
X87600000Y-36600000D02*
X83250000Y-32250000D01*
X114050001Y-43249999D02*
X114050001Y-41850000D01*
X114050001Y-41850000D02*
X114050001Y-41250001D01*
X109400000Y-36600000D02*
X87600000Y-36600000D01*
X111250000Y-46050000D02*
X114050001Y-43249999D01*
X117500000Y-35100000D02*
X116150000Y-33750000D01*
X117500000Y-37050000D02*
X117500000Y-35100000D01*
X113700000Y-40850000D02*
X117500000Y-37050000D01*
X114050001Y-41250001D02*
X113650000Y-40850000D01*
X113650000Y-40850000D02*
X113700000Y-40850000D01*
X113650000Y-40850000D02*
X109400000Y-36600000D01*
%TO.N,/LED_I2C_SCL*%
X109050000Y-37250000D02*
X87000000Y-37250000D01*
X110450000Y-47650000D02*
X110450000Y-45150000D01*
X110450000Y-45150000D02*
X112200000Y-43400000D01*
X112650000Y-40850000D02*
X109050000Y-37250000D01*
X112221573Y-50100000D02*
X112221573Y-49421573D01*
X115750000Y-37750000D02*
X116700000Y-36800000D01*
X116700000Y-36800000D02*
X116700000Y-34850000D01*
X112221573Y-49421573D02*
X110450000Y-47650000D01*
X82600000Y-32850000D02*
X82600000Y-30800000D01*
X82600000Y-30800000D02*
X84209775Y-29190225D01*
X87000000Y-37250000D02*
X82600000Y-32850000D01*
X116700000Y-34850000D02*
X115882698Y-34032698D01*
X112200000Y-43400000D02*
X112200000Y-41850000D01*
X112650000Y-40850000D02*
X112200000Y-41300000D01*
X112200000Y-41300000D02*
X112200000Y-41850000D01*
%TO.N,/LED_DATA_EN*%
X86850000Y-38250000D02*
X82000000Y-33400000D01*
X82000000Y-30800000D02*
X83905144Y-28894856D01*
X82000000Y-33400000D02*
X82000000Y-30800000D01*
X111514484Y-50114484D02*
X109750000Y-48350000D01*
X108650000Y-38250000D02*
X86850000Y-38250000D01*
X109750000Y-39350000D02*
X108650000Y-38250000D01*
X109750000Y-48350000D02*
X109750000Y-39350000D01*
X111514484Y-50800000D02*
X111514484Y-50114484D01*
%TO.N,DV_L*%
X91450000Y-57900000D02*
X104450000Y-57900000D01*
X73550000Y-71600000D02*
X77750000Y-71600000D01*
X77750000Y-71600000D02*
X91450000Y-57900000D01*
%TO.N,/LED_A20*%
X118100000Y-25750000D02*
X118100000Y-29173808D01*
X117050000Y-24700000D02*
X118100000Y-25750000D01*
X118100000Y-29173808D02*
X116150000Y-31123808D01*
X117050000Y-23033722D02*
X117050000Y-24700000D01*
X117733722Y-22350000D02*
X117050000Y-23033722D01*
%TO.N,/LED_A0*%
X112800000Y-37950000D02*
X113300000Y-37450000D01*
X113300000Y-37450000D02*
X113300000Y-35670722D01*
X113300000Y-35670722D02*
X114089567Y-34881155D01*
%TO.N,/LED_A15*%
X113250000Y-28350000D02*
X113750000Y-28850000D01*
X112800000Y-27500000D02*
X113250000Y-27950000D01*
X113250000Y-27950000D02*
X113250000Y-28350000D01*
X113750000Y-28850000D02*
X113750000Y-29650000D01*
X113750000Y-29650000D02*
X114089567Y-29989567D01*
%TO.N,Net-(LED6-A)*%
X19900000Y-16700000D02*
X19900000Y-13900000D01*
X21000000Y-17800000D02*
X19900000Y-16700000D01*
X22220999Y-17800000D02*
X21000000Y-17800000D01*
%TO.N,/ETH_RST*%
X148190000Y-25940000D02*
X148190000Y-24320000D01*
X155700000Y-27600000D02*
X154850000Y-26750000D01*
X149000000Y-26750000D02*
X148190000Y-25940000D01*
X154850000Y-26750000D02*
X149000000Y-26750000D01*
%TO.N,/LED_D1*%
X77100000Y-23900000D02*
X77100000Y-19700000D01*
X83644017Y-27117300D02*
X82126717Y-25600000D01*
X78800000Y-25600000D02*
X77100000Y-23900000D01*
X77100000Y-19700000D02*
X74450000Y-17050000D01*
X68591686Y-14741686D02*
X68591686Y-13000000D01*
X82126717Y-25600000D02*
X78800000Y-25600000D01*
X70900000Y-17050000D02*
X68591686Y-14741686D01*
X74450000Y-17050000D02*
X70900000Y-17050000D01*
%TO.N,/LED_D2*%
X71183372Y-13000000D02*
X71183372Y-14683372D01*
X78000000Y-18500000D02*
X78000000Y-23450000D01*
X72350000Y-15850000D02*
X75350000Y-15850000D01*
X71183372Y-14683372D02*
X72350000Y-15850000D01*
X75350000Y-15850000D02*
X78000000Y-18500000D01*
X79550000Y-25000000D02*
X82100000Y-25000000D01*
X78000000Y-23450000D02*
X79550000Y-25000000D01*
X82100000Y-25000000D02*
X83926896Y-26826896D01*
%TO.N,/LED_D10*%
X90950000Y-22650000D02*
X89150000Y-24450000D01*
X89150000Y-24450000D02*
X88350000Y-24450000D01*
X91916861Y-16483139D02*
X90950000Y-17450000D01*
X88350000Y-24450000D02*
X86835966Y-25964034D01*
X90950000Y-17450000D02*
X90950000Y-22650000D01*
X91916861Y-13000000D02*
X91916861Y-16483139D01*
%TO.N,Net-(LED2-A)*%
X18050000Y-17800000D02*
X19100000Y-16750000D01*
X19100000Y-16750000D02*
X19100000Y-13900000D01*
X16765199Y-17800000D02*
X18050000Y-17800000D01*
%TO.N,/LED_D13*%
X91550000Y-24400000D02*
X90250000Y-25700000D01*
X94500000Y-24400000D02*
X91550000Y-24400000D01*
X96150000Y-16550000D02*
X96150000Y-22750000D01*
X99691919Y-13000000D02*
X99691919Y-13008081D01*
X90250000Y-25700000D02*
X88818664Y-25700000D01*
X99691919Y-13008081D02*
X96150000Y-16550000D01*
X96150000Y-22750000D02*
X94500000Y-24400000D01*
X88818664Y-25700000D02*
X87684422Y-26834242D01*
%TO.N,/LED_A5*%
X110350000Y-35200000D02*
X110950000Y-35200000D01*
X110050000Y-35500000D02*
X110350000Y-35200000D01*
X110950000Y-35200000D02*
X112675353Y-33474647D01*
%TO.N,/LED_D14*%
X102250000Y-13000000D02*
X97850000Y-17400000D01*
X97850000Y-17400000D02*
X97850000Y-22450000D01*
X102283605Y-13000000D02*
X102250000Y-13000000D01*
X88984422Y-26100000D02*
X87967301Y-27117121D01*
X90450000Y-26100000D02*
X88984422Y-26100000D01*
X97850000Y-22450000D02*
X95350000Y-24950000D01*
X91600000Y-24950000D02*
X90450000Y-26100000D01*
X95350000Y-24950000D02*
X91600000Y-24950000D01*
%TO.N,/LED_A9*%
X110300000Y-30900000D02*
X111600000Y-30900000D01*
X109725000Y-30325000D02*
X110300000Y-30900000D01*
X111600000Y-30900000D02*
X112389386Y-31689386D01*
%TO.N,/LED_A8*%
X109200000Y-30850000D02*
X109600000Y-31250000D01*
X111400000Y-31250000D02*
X112109596Y-31959596D01*
X109600000Y-31250000D02*
X111400000Y-31250000D01*
%TO.N,Net-(LED1-A)*%
X18300000Y-13900000D02*
X16300000Y-13900000D01*
X12400000Y-17800000D02*
X11300000Y-17800000D01*
X16300000Y-13900000D02*
X12400000Y-17800000D01*
%TO.N,/LED_A7*%
X109300000Y-34200000D02*
X110800000Y-34200000D01*
X108950000Y-34550000D02*
X109300000Y-34200000D01*
X110800000Y-34200000D02*
X112098637Y-32901363D01*
%TO.N,/LED_A2*%
X111750000Y-37050000D02*
X112150000Y-36650000D01*
X112150000Y-36650000D02*
X112150000Y-35700000D01*
X112150000Y-35700000D02*
X113523989Y-34326011D01*
%TO.N,/LED_D3*%
X82208232Y-24550000D02*
X84209775Y-26551543D01*
X79700000Y-23600000D02*
X80650000Y-24550000D01*
X79700000Y-18550000D02*
X79700000Y-23600000D01*
X76250000Y-15100000D02*
X79700000Y-18550000D01*
X80650000Y-24550000D02*
X82208232Y-24550000D01*
X74300000Y-15100000D02*
X76250000Y-15100000D01*
X73775058Y-14575058D02*
X74300000Y-15100000D01*
X73775058Y-13000000D02*
X73775058Y-14575058D01*
%TO.N,/CC1*%
D45*
X173900000Y-104250000D02*
X175499999Y-104250000D01*
X164825000Y-103200000D02*
X164825000Y-103825000D01*
X165250000Y-104250000D02*
X173900000Y-104250000D01*
X164825000Y-103825000D02*
X165250000Y-104250000D01*
%TO.N,/CC2*%
X162600000Y-98500000D02*
X170600000Y-98500000D01*
X164825000Y-102250001D02*
X162550001Y-102250001D01*
X162550001Y-102250001D02*
X162100000Y-101800000D01*
X171760000Y-101260000D02*
X173900000Y-101260000D01*
X171300000Y-100800000D02*
X171760000Y-101260000D01*
X171300000Y-99200000D02*
X171300000Y-100800000D01*
X170600000Y-98500000D02*
X171300000Y-99200000D01*
X162100000Y-101800000D02*
X162100000Y-99000000D01*
X162100000Y-99000000D02*
X162600000Y-98500000D01*
X173900000Y-101260000D02*
X175499999Y-101260000D01*
%TO.N,/LED_A11*%
D46*
X111550000Y-30150000D02*
X111950000Y-30150000D01*
X110750000Y-29350000D02*
X111550000Y-30150000D01*
X111950000Y-30150000D02*
X112923628Y-31123628D01*
%TO.N,/LED_D6*%
X81550116Y-15450116D02*
X83350000Y-17250000D01*
X83350000Y-17250000D02*
X83350000Y-23994856D01*
X81550116Y-13000000D02*
X81550116Y-15450116D01*
X83350000Y-23994856D02*
X85058231Y-25703087D01*
%TO.N,/LED_D0*%
X75400000Y-19300000D02*
X75400000Y-23750000D01*
X68900000Y-17700000D02*
X73800000Y-17700000D01*
X75400000Y-23750000D02*
X77750000Y-26100000D01*
X66000000Y-14800000D02*
X68900000Y-17700000D01*
X77750000Y-26100000D02*
X82061318Y-26100000D01*
X73800000Y-17700000D02*
X75400000Y-19300000D01*
X66000000Y-13000000D02*
X66000000Y-14800000D01*
X82061318Y-26100000D02*
X83361318Y-27400000D01*
%TO.N,Net-(USB2-CC1)*%
X173850000Y-87250000D02*
X174829999Y-87250000D01*
%TO.N,Net-(USB2-CC2)*%
X173750000Y-83750000D02*
X174879999Y-83750000D01*
%TO.N,/LED_D7*%
X84141803Y-13000000D02*
X84141803Y-21041803D01*
X84141803Y-21041803D02*
X84750000Y-21650000D01*
X84050000Y-24129098D02*
X85341110Y-25420208D01*
X84750000Y-22600000D02*
X84050000Y-23300000D01*
X84050000Y-23300000D02*
X84050000Y-24129098D01*
X84750000Y-21650000D02*
X84750000Y-22600000D01*
%TO.N,/LED_A3*%
X111500000Y-35800000D02*
X113241110Y-34058890D01*
X111500000Y-36300000D02*
X111500000Y-35800000D01*
X111200000Y-36600000D02*
X111500000Y-36300000D01*
%TO.N,Net-(U6-VDD)*%
D45*
X167614997Y-99735002D02*
X163364999Y-99735002D01*
X167100000Y-101300002D02*
X168780002Y-101300002D01*
X167100000Y-101300002D02*
X167100000Y-100249999D01*
X167100000Y-100249999D02*
X167614997Y-99735002D01*
%TO.N,Net-(U6-CFG)*%
X164825000Y-101300002D02*
X163650003Y-101300002D01*
X163650003Y-101300002D02*
X163225000Y-100874999D01*
%TO.N,Net-(U18-ISET)*%
D46*
X82600000Y-29650000D02*
X83638023Y-28611977D01*
X82150000Y-28749999D02*
X82150000Y-29500000D01*
X82150000Y-29500000D02*
X82300000Y-29650000D01*
X82300000Y-29650000D02*
X82600000Y-29650000D01*
%TO.N,Net-(U19-ISET)*%
X115301544Y-34601544D02*
X115750000Y-35050000D01*
X115750000Y-35550000D02*
X115253553Y-36046447D01*
X115750000Y-35050000D02*
X115750000Y-35550000D01*
%TD*%
%TA.AperFunction,Conductor*%
%TO.N,GND*%
G36*
X152194263Y-30980167D02*
G01*
X152238610Y-31008668D01*
X154292261Y-33062319D01*
X154325746Y-33123642D01*
X154320762Y-33193334D01*
X154292261Y-33237681D01*
X152249856Y-35280086D01*
X152188533Y-35313571D01*
X152118841Y-35308587D01*
X152074494Y-35280086D01*
X150020843Y-33226435D01*
X149987358Y-33165112D01*
X149992342Y-33095420D01*
X150020843Y-33051073D01*
X152063248Y-31008668D01*
X152124571Y-30975183D01*
X152194263Y-30980167D01*
G37*
%TD.AperFunction*%
%TD*%
M02*
